<svg id="Capa_1" data-name="Capa 1" xmlns="http://www.w3.org/2000/svg" viewBox="0 0 51.64 34.82"><defs><style>.cls-1,.cls-2{fill:#020000;}.cls-2{fill-rule:evenodd;}</style></defs><path class="cls-1" d="M47.7,34.82c-2.44,0-3.89-1.25-4-3H46c0,.55.35,1.37,1.82,1.39,1,0,1.46-.58,1.46-1-.06-.69-.93-.75-1.86-.9a7.87,7.87,0,0,1-2.29-.6,2.39,2.39,0,0,1-1.23-2.12c0-1.56,1.37-2.82,3.63-2.82s3.6,1.17,3.75,2.88H49.09c0-.47-.11-1.19-1.42-1.19-.87,0-1.45.17-1.51.78,0,.9,1.83.84,3.25,1.22a2.54,2.54,0,0,1,2.23,2.38c0,2.17-1.77,3-3.94,3Z"/><polygon class="cls-1" points="5.57 20.25 13.2 15.87 17.23 22.83 7.05 22.83 5.57 20.25 5.57 20.25"/><polygon class="cls-1" points="22.66 34.61 20.48 34.61 20.48 25.82 22.66 25.82 22.66 34.61 22.66 34.61"/><path class="cls-2" d="M2.09,30.26a2.54,2.54,0,0,0,5.08,0,2.54,2.54,0,0,0-5.08,0Zm2.46,4.56a4.55,4.55,0,1,1,0-9.09,4.52,4.52,0,0,1,2.62.79v-.7H9.31v8.79H7.17V34a4.69,4.69,0,0,1-2.62.79Z"/><polygon class="cls-1" points="33.86 22.83 23.24 4.41 30.87 0 44.07 22.83 33.86 22.83 33.86 22.83"/><path class="cls-2" d="M12.15,30.26a2.54,2.54,0,1,0,2.56-2.52,2.54,2.54,0,0,0-2.56,2.52Zm2.5,4.56a4.55,4.55,0,1,1,0-9.09,4.38,4.38,0,0,1,2.58.79V22.83h2.18V34.61H17.23V34a4.68,4.68,0,0,1-2.58.79Z"/><polygon class="cls-1" points="14.47 12.42 22.14 8.04 30.7 22.83 22.66 22.83 22.66 25.01 20.48 25.01 20.48 22.83 14.47 12.42 14.47 12.42"/><path class="cls-2" d="M35.68,30.26a2.54,2.54,0,0,0,2.53,2.49,2.5,2.5,0,0,0,2.49-2.49,2.52,2.52,0,0,0-2.49-2.52,2.56,2.56,0,0,0-2.53,2.52Zm2.44,4.56a4.55,4.55,0,1,1,0-9.09,4.31,4.31,0,0,1,2.58.79v-.7h2.18v8.79H40.7V34a4.53,4.53,0,0,1-2.58.79Z"/><path class="cls-2" d="M25.65,30.26a2.53,2.53,0,0,0,5.05,0,2.53,2.53,0,0,0-5.05,0Zm5.05-7.43h2.14V34.61H30.7V34a4.69,4.69,0,0,1-2.62.79,4.55,4.55,0,1,1,0-9.09,4.46,4.46,0,0,1,2.62.79V22.83Z"/></svg>