<svg id="Layer_1" data-name="Layer 1" xmlns="http://www.w3.org/2000/svg" viewBox="0 0 446.77 87.12"><path d="M357.51,22.82c-5.84,6.24-12.09,11-18.42,15.83-3.71,2.8-7.59,5.4-10.91,8.77-2.34,2.37-2.24,4.95-1.4,7.39,2,5.78,5.27,11,8.08,16.35a135,135,0,0,1,6,13.64c.63,1.61-.05,2.16-1.77,2.13q-9.45-.12-18.92,0c-1.6,0-1.92-.51-1.9-2,.08-6.41,0-12.81,0-19.22A14.88,14.88,0,0,0,316.54,59c-1.17-2.36-2.62-2-4.33-.69-3.65,2.82-6.22,6.5-8.69,10.33a64.29,64.29,0,0,0-8.16,16.94,1.88,1.88,0,0,1-2.12,1.38c-9.6-.07-19.19,0-28.95,0,3.66-5.66,8.77-9.72,13.65-13.89,6.84-5.84,14.1-11.19,21.15-16.79A17.83,17.83,0,0,0,302,53.91c3.07-3.63,1.39-7.13-.22-10.51-2.34-4.91-5-9.66-7.45-14.51-1-1.91-1.81-3.9-2.81-6.07,6.28,0,12.27,0,18.26,0,1.37,0,1.56.56,1.55,1.72,0,4.42-.19,8.86.56,13.25.09.57,0,1.18.15,1.73,1.45,5.39,3.39,5.89,7.56,2.16,5.43-4.86,8.8-11.1,11.95-17.48.43-.87.55-1.39,1.65-1.38C341.09,22.84,349,22.82,357.51,22.82Z"/><path d="M132.92,23.4c-2.51,11.84-3.64,32.4-2.16,41.12,5.56-10.46,14.25-18,20.58-27.35a35.82,35.82,0,0,0,5.44-12.1c.25-1.08.45-1.72,1.76-1.7,4.64.07,9.29,0,14.21,0a63.21,63.21,0,0,1-6.05,13c-5,8.58-11.91,15.75-18.11,23.44s-11.48,15.82-13.92,25.53a1.74,1.74,0,0,1-2,1.55q-10.77,0-21.53.09c-1.31,0-1.8-.34-1.36-1.66,3.63-10.8,3.22-21.94,2.86-33.1-.27-8.8-1-17.6-.19-26.43.19-2,.8-2.52,2.75-2.48C121.1,23.48,127,23.4,132.92,23.4Z"/><path d="M257.56,35.11a69.68,69.68,0,0,1,7.63-8.17c5.11-4.38,11.15-4.45,17.32-4.05,1.15.07,1.4.62,1.08,1.76q-1.87,6.71-3.56,13.46c-.32,1.28-.85,1.31-2,1.12-10.23-1.64-15.13.74-20.67,9.46-3.68,5.78-4.77,12.41-6.58,18.81-1.63,5.77-3.13,11.57-4.63,17.38-.29,1.13-.49,2-2,2-5.42-.06-10.85,0-16.6,0,1.81-6.85,3.52-13.47,5.31-20.08,3.68-13.63,7.4-27.25,10.4-41,.41-1.9,1-2.73,3.17-2.64,4,.17,7.95,0,11.92-.16,1.93-.09,2,.69,1.63,2.19C259.19,28.15,258.49,31.25,257.56,35.11Z"/><path d="M105,23.4C99.45,44.27,94,64.75,88.64,85.24A2.08,2.08,0,0,1,86.23,87c-4.65-.05-9.31,0-14,.19C70.46,87.29,70,87,70.52,85c5.37-19.9,10.61-39.84,15.86-59.77.3-1.13.55-1.9,2-1.88C93.81,23.45,99.24,23.4,105,23.4Z"/><path d="M385.8,22.82c-3.6,13.58-7.13,27-10.67,40.33-1.86,7-3.8,14-5.56,21.05-.44,1.75-1.15,2.31-2.94,2.26-4.65-.13-9.31-.09-14,0-1.48,0-1.75-.32-1.35-1.81q8-30.16,16-60.35c.24-1,.61-1.5,1.75-1.49C374.54,22.85,380.07,22.82,385.8,22.82Z"/><path d="M97.17,18.64c-2.52,0-5,0-7.56,0-1,0-1.65,0-1.26-1.42,1.43-5.09,8.86-9,13.85-7.31a6,6,0,0,1,3.9,3.61c1.4,3.63.39,5.11-3.41,5.11Z"/><path d="M378.39,18.64c-2.42,0-4.84,0-7.26,0-1.17,0-1.84-.05-1.32-1.59,1.7-5.07,8.75-8.83,13.66-7.19a5.94,5.94,0,0,1,4.14,4.1c1.05,3.6.27,4.66-3.41,4.66Z"/><path d="M79.69,0C76,0,72.31,0,68.63,0c-6.32,0-6.29,0-7.91,6.27-2.14,8.25-4.34,16.5-6.56,24.94C50.8,26.08,48,23.8,43.15,23,32.6,21.22,23,23.47,15.32,31.18A52,52,0,0,0,1.15,56.45,47.94,47.94,0,0,0,0,64.76a46.92,46.92,0,0,0,.51,8.38C2.43,81.94,7,86.62,15.85,87.85s16.95-.74,24-6.46C40.48,80.86,40.92,80,42,80c.4,1.71-.33,3.26-.81,4.77-.67,2.08,0,2.48,2,2.42,4.08-.11,8.16-.12,12.23,0,1.87.06,2.63-.49,3.11-2.4,4.18-16.51,8.49-33,12.77-49.46Q75.83,17.83,80.39.3A3.16,3.16,0,0,0,79.69,0ZM48.53,49.61c-.22,8.61-3.84,15.66-10.23,21.29-3.41,3-7.59,3.74-12,3.15-3.52-.47-6.27-3.26-6.8-7.7C18.25,55.89,22,47.11,29.64,40.1c3.29-3,7.58-3.34,11.82-2.58,3.83.69,6.54,4.16,7,8.61A31.06,31.06,0,0,1,48.53,49.61Z"/><path d="M445.85,32.72c-2.65-6.6-8-9.78-14.59-10.95-10.7-1.87-21,.19-31.08,3.71-.63.22-1.28.42-1.44,1.25-.88,4.68-1.77,9.36-2.77,14.58,1.15-.67,1.71-1,2.28-1.34,6.64-3.66,13.63-6.18,21.33-5.67,8,.53,10.31,3.77,8.89,11.69-.36,2-1.13,2.64-3.2,2.61-7.85-.12-15.71-.27-23.51,1-12.25,2-20,9.63-21.32,20.85-1,8.58,2.48,14,10.93,15.78,9.34,2,18.29.84,26.19-5.11L420.44,79c-.6,2.82-1.07,5-1.58,7.35,5.28,0,10.32,0,15.36,0,1.57,0,1.58-1,1.82-2,1.7-7.45,3.37-14.92,5.2-22.35,1.5-6.06,2.4-12.28,4.61-18.17A17.24,17.24,0,0,0,445.85,32.72ZM407,75.09c-3.07.23-6.23-.26-7.86-3.28s-.1-5.63,1.69-8c2.18-2.92,5.5-3.89,8.82-4.58,5-1,10.17-.94,15.31-.77C423.34,67.05,415.42,74.45,407,75.09Z"/><path d="M229.07,39.07c-1-8.78-6.16-14.82-14.79-16.8a38.17,38.17,0,0,0-19.52.92c-18,5.27-31.29,25-30.37,44.86.4,8.69,5.38,15.55,13.77,18.25,12.23,3.92,24.26,1.92,36.15-1.84a2,2,0,0,0,1.46-1.6c1.12-4.69,2.32-9.36,3.63-14.61A82.24,82.24,0,0,1,208,73.18c-5.3,1.77-10.67,2.76-16.27,1.53-6.81-1.49-10.2-6.07-9.74-13,.13-2,.79-2.76,3-2.74,12.9.08,25.8-.06,38.7,0,2,0,3-.5,3.54-2.41A44.24,44.24,0,0,0,229.07,39.07ZM212.42,44.2c-.25,4.93-.25,4.93-5.22,4.93h-9c-3.77,0-7.54,0-11.32,0-1,0-2,.21-1.44-1.46,2.27-7.36,10.34-13.51,17.85-13.49,5.84,0,8.84,2.92,9.13,8.87A11,11,0,0,1,212.42,44.2Z"/><path d="M114.93,18.26l3.24-15.79h-5.76l.42-2h13.82l-.41,2h-5.72l-3.24,15.79Z"/><path d="M124.86,18.26l2.65-12.91h2.17L127,18.26ZM128,2.93l.51-2.5h2.16l-.52,2.5Z"/><path d="M139.73,13.87l2.11.22a6.39,6.39,0,0,1-2.09,3,5.7,5.7,0,0,1-3.9,1.44,5.13,5.13,0,0,1-2.59-.67,4.27,4.27,0,0,1-1.8-1.93,6.48,6.48,0,0,1-.61-2.88,9.3,9.3,0,0,1,1-4.1,7,7,0,0,1,2.5-3,6.1,6.1,0,0,1,3.31-1,4.77,4.77,0,0,1,3.64,1.43,5.45,5.45,0,0,1,1.36,3.92,11.84,11.84,0,0,1-.17,1.94h-9.36A4.35,4.35,0,0,0,133,13a4.11,4.11,0,0,0,.82,2.77,2.54,2.54,0,0,0,2,1,3.81,3.81,0,0,0,2.2-.75A4.8,4.8,0,0,0,139.73,13.87Zm-6.3-3.19h7.14c0-.23,0-.39,0-.49a3.62,3.62,0,0,0-.81-2.54,2.73,2.73,0,0,0-2.1-.88,3.86,3.86,0,0,0-2.53,1A5.92,5.92,0,0,0,133.43,10.68Z"/><path d="M144,18.26l2.66-12.91h2l-.46,2.25a10,10,0,0,1,2.39-1.93,4.67,4.67,0,0,1,2.28-.61,3.31,3.31,0,0,1,2.42.85,3,3,0,0,1,.89,2.27,13.58,13.58,0,0,1-.31,2.26l-1.62,7.82h-2.17l1.69-8.18A9.23,9.23,0,0,0,154,8.32a1.37,1.37,0,0,0-.44-1.05,1.78,1.78,0,0,0-1.26-.4,4.2,4.2,0,0,0-3,1.22,7.88,7.88,0,0,0-1.91,4.17l-1.23,6Z"/><path d="M166.25,16.39a5.21,5.21,0,0,1-3.88,2.17,3.84,3.84,0,0,1-3-1.36,5.74,5.74,0,0,1-1.21-3.93,9.68,9.68,0,0,1,1-4.32A7.28,7.28,0,0,1,161.49,6a5.07,5.07,0,0,1,2.87-1,3.85,3.85,0,0,1,3.58,2.32L169.38.43h2.16l-3.67,17.83h-2Zm-5.94-3.54a6.73,6.73,0,0,0,.27,2.13,2.72,2.72,0,0,0,.89,1.29,2.33,2.33,0,0,0,1.53.52,3.39,3.39,0,0,0,2.67-1.56,8,8,0,0,0,1.6-5.1,3.42,3.42,0,0,0-.79-2.4,2.6,2.6,0,0,0-2-.86,3,3,0,0,0-1.42.35,4.26,4.26,0,0,0-1.27,1.2,7.56,7.56,0,0,0-1.06,2.15A7.24,7.24,0,0,0,160.31,12.85Z"/><path d="M179.9,16.66a8.66,8.66,0,0,1-2.17,1.44,5.6,5.6,0,0,1-2.23.46,3.86,3.86,0,0,1-2.84-1.06,3.59,3.59,0,0,1-1.08-2.69,3.73,3.73,0,0,1,1.78-3.25,5.53,5.53,0,0,1,2-.73,23.92,23.92,0,0,1,2.77-.23,9.72,9.72,0,0,0,2.93-.44,5.55,5.55,0,0,0,.25-1.49,1.44,1.44,0,0,0-.55-1.2,3.41,3.41,0,0,0-2.2-.61,3.8,3.8,0,0,0-2.24.61A3.42,3.42,0,0,0,175,9.22L172.83,9A5.8,5.8,0,0,1,175,6.08a6.26,6.26,0,0,1,3.67-1,5.68,5.68,0,0,1,3.74,1.14,2.69,2.69,0,0,1,1.06,2.21,11.36,11.36,0,0,1-.3,2.4L182.41,14a12.49,12.49,0,0,0-.34,2.49,8.21,8.21,0,0,0,.27,1.75h-2.19A7.58,7.58,0,0,1,179.9,16.66Zm.8-4.94a4.86,4.86,0,0,1-1,.28c-.35.07-.93.13-1.74.21a13.27,13.27,0,0,0-2.67.43,2.25,2.25,0,0,0-1.18.83,2.19,2.19,0,0,0-.39,1.27,2,2,0,0,0,.63,1.52,2.48,2.48,0,0,0,1.79.59,4,4,0,0,0,2.07-.58,4.12,4.12,0,0,0,1.57-1.61A9.49,9.49,0,0,0,180.7,11.72Z"/></svg>