<svg id="Capa_1" data-name="Capa 1" xmlns="http://www.w3.org/2000/svg" viewBox="0 0 283.46 283.46"><path d="M227.32,121.76h-6.19a8.58,8.58,0,0,0-8.07-5.71H156a8.57,8.57,0,0,0-8.45,7.2,12.09,12.09,0,0,0-11.63,0,8.59,8.59,0,0,0-8.45-7.2H70.41a8.58,8.58,0,0,0-8.07,5.71h-6.2a5.71,5.71,0,0,0-5.71,5.71v2.85A8.57,8.57,0,0,0,59,138.88h2.86v5.71a22.85,22.85,0,0,0,22.82,22.82H96.08A40,40,0,0,0,135.87,131a6.67,6.67,0,0,1,11.72,0,40,40,0,0,0,39.79,36.46h11.41a22.85,22.85,0,0,0,22.83-22.82v-5.71h2.85a8.57,8.57,0,0,0,8.56-8.56v-2.85A5.71,5.71,0,0,0,227.32,121.76ZM59,133.17a2.86,2.86,0,0,1-2.85-2.85v-2.85h5.71v5.7Zm71.33-5.7A34.27,34.27,0,0,1,96.08,161.7H84.67a17.14,17.14,0,0,1-17.12-17.11v-20a2.86,2.86,0,0,1,2.86-2.85h57.06a2.86,2.86,0,0,1,2.85,2.85Zm85.59,17.12a17.14,17.14,0,0,1-17.12,17.11H187.38a34.27,34.27,0,0,1-34.24-34.23v-2.86a2.86,2.86,0,0,1,2.86-2.85h57.06a2.86,2.86,0,0,1,2.85,2.85Zm11.41-14.27a2.86,2.86,0,0,1-2.85,2.85h-2.85v-5.7h5.7Z"/><path d="M105.48,125.45,79.8,151.13a2.85,2.85,0,1,0,4,4l25.67-25.68a2.85,2.85,0,0,0-4-4Z"/><path d="M193.92,125.45,171.1,148.27a2.85,2.85,0,0,0,2,4.87,2.8,2.8,0,0,0,2-.83L198,129.48a2.85,2.85,0,0,0-4-4Z"/></svg>