<svg id="Capa_1" data-name="Capa 1" xmlns="http://www.w3.org/2000/svg" viewBox="0 0 283.46 283.46"><path d="M221.33,74.82a56.14,56.14,0,0,0-70.25-8.6c-1.52.83-14.6,8.32-12.6,21.88.72,4.93,3.36,8.49,5.91,11.94,3.73,5,7.25,9.79,6.28,19.52l-.07.73-.75-.39a10.83,10.83,0,0,0-14.3,4.07l-.32.54-.45-.44a13.63,13.63,0,0,0-9.69-3.85h-.46l0-.45a24.18,24.18,0,0,1,0-4.63,28.38,28.38,0,0,0-.12-6.82,20.79,20.79,0,0,0-9.65-14.71,28.59,28.59,0,0,0-23-3.26,26.33,26.33,0,0,0-11.59,43.49,8.59,8.59,0,0,1,2.47,6.28,49.44,49.44,0,0,0,27.06,46.22,51,51,0,0,0,23.38,5.8,48.67,48.67,0,0,0,14.14-2.1,51,51,0,0,0,7.45-2.94,30.29,30.29,0,0,0,16.93-26.92v-.59l.58.11a10.86,10.86,0,0,0,5.28-.34,11,11,0,0,0,7-13.74l-2.9-9.32a18.44,18.44,0,0,0-24.28-11.7l-.83.33.16-.88c2.7-14.84-2.67-22.1-7-27.92-2.26-3-4.21-5.69-4.7-9-1.39-9.44,8.8-14.91,9.24-15.14a2,2,0,0,0,.25-.14,49.55,49.55,0,0,1,26.44-7.64c27.91,0,50.63,23.33,50.63,52,0,31.37-24.58,57.69-45.2,74.25A255.68,255.68,0,0,1,142,218.78l-.22.11-.22-.11a257.32,257.32,0,0,1-42.12-26.51,3.29,3.29,0,0,0-4,5.19,253.11,253.11,0,0,0,45,28.06,3.32,3.32,0,0,0,2.76,0,254.12,254.12,0,0,0,47.22-29.82c13.78-11,24.77-22.58,32.67-34.29,10-14.86,15.11-30.06,15.11-45.17A58.92,58.92,0,0,0,221.33,74.82ZM119.77,132.5a14.91,14.91,0,0,0,4.44-5.37l.12-.28.29,0a7,7,0,0,1,3.94.78,6.92,6.92,0,0,1,3.17,3.39l.1.21L130,134.8l-12.48-.25.9-.83C118.87,133.29,119.33,132.89,119.77,132.5Zm33.12,5.21,0-.05,1.26-2.47a12.29,12.29,0,0,1,1.89-2.2,11.86,11.86,0,0,1,19.27,5.26l2.9,9.33a4.39,4.39,0,0,1-2.72,5.52,4.31,4.31,0,0,1-5.25-2.4L168,143.55a3.27,3.27,0,0,0-1.61-1.94,3.23,3.23,0,0,0-2.51-.22,3.29,3.29,0,0,0-2.16,4.11l2.27,7.29a23.62,23.62,0,0,1-12.17,28.4,43.22,43.22,0,0,1-6.48,2.56,41.59,41.59,0,0,1-12.1,1.79c-18.33,0-36-11.86-41.86-29.82a43.48,43.48,0,0,1-2.13-15.33,15.21,15.21,0,0,0-4.3-11.1,19.76,19.76,0,0,1,8.7-32.63,21.79,21.79,0,0,1,17.59,2.47A14.26,14.26,0,0,1,118,109.2a22.08,22.08,0,0,1,.08,5.41,30.78,30.78,0,0,0,.2,7.69c.35,2.37-.2,3-2.84,5.26-.7.62-1.49,1.31-2.32,2.13l-.07.07a6.61,6.61,0,0,0,4.46,11.37l13,.26h.11a5.62,5.62,0,0,0,5-3l5.47-10.75a4.28,4.28,0,0,1,7.63,3.89l-.19.38a18.77,18.77,0,0,0-1.58,3.09l-3.7,7.27a14.31,14.31,0,0,1-8.45,7.09,13.76,13.76,0,0,1-4.44.64L114,149.62h-.06a3.29,3.29,0,0,0-.07,6.57l16.36.33a20.6,20.6,0,0,0,6.53-.93,21,21,0,0,0,9.57-6.25l.58-.67,2.93,9.41a3.29,3.29,0,0,0,4.12,2.16,3.29,3.29,0,0,0,2.16-4.12L152.7,145.3A12,12,0,0,1,152.89,137.71Z"/><path d="M88.7,183.33a3.29,3.29,0,0,0-4.64.25,3.28,3.28,0,0,0,.25,4.64l.11.1a3.37,3.37,0,0,0,4.64-.25,3.29,3.29,0,0,0-.25-4.64Z"/><path d="M51.93,116.24c0-28.69,22.71-52,50.63-52A49.49,49.49,0,0,1,129,71.86a3.29,3.29,0,1,0,3.51-5.56,56.13,56.13,0,0,0-29.94-8.66c-31.54,0-57.21,26.29-57.21,58.6,0,20.44,9.21,40.82,27.38,60.57a3.37,3.37,0,0,0,4.64.2,3.29,3.29,0,0,0,.2-4.65C60.56,153.86,51.93,135,51.93,116.24Z"/><path d="M180.9,82.21a3.29,3.29,0,1,0-3.28-3.29A3.29,3.29,0,0,0,180.9,82.21Z"/><path d="M214,116.24a3.29,3.29,0,0,0,6.57,0,41,41,0,0,0-7.21-23.36,39.75,39.75,0,0,0-18.51-14.67,3.29,3.29,0,0,0-2.36,6.14A34.18,34.18,0,0,1,214,116.24Z"/></svg>