<svg id="Capa_1" data-name="Capa 1" xmlns="http://www.w3.org/2000/svg" viewBox="0 0 283.46 283.46"><path d="M220.56,138.37H198.31L194.94,80a5.76,5.76,0,0,0-5.74-5.42H107.8A5.75,5.75,0,0,0,102.06,80l-1.33,23H71.9a5.76,5.76,0,0,0-5.75,5.75v3.36H62.9a5.76,5.76,0,0,0-5.75,5.75V123a5.76,5.76,0,0,0,5.06,5.71l1.62,30.56a2.47,2.47,0,0,0,2.47,2.34h.14A2.48,2.48,0,0,0,68.78,159L68,144.88A27.71,27.71,0,0,1,70.69,195l-1.28-24.18a2.48,2.48,0,0,0-5,.26l1.72,32.44a5.75,5.75,0,0,0,5.74,5.45H214.2a5.76,5.76,0,0,0,5.74-5.45l2.49-47a5.75,5.75,0,0,0,3.89-5.43v-6.95a5.76,5.76,0,0,0-5.76-5.75Zm0,5a.79.79,0,0,1,.8.79v6.95a.79.79,0,0,1-.8.79H199.09l-.5-8.53ZM71.11,108.72a.79.79,0,0,1,.79-.8h34.89a.8.8,0,0,1,.8.8v3.36H71.11Zm-9,9.11a.79.79,0,0,1,.79-.79h52.89a.79.79,0,0,1,.8.79V123a.8.8,0,0,1-.8.8H62.9a.79.79,0,0,1-.79-.8Zm52.15,52.74H160a.79.79,0,0,1,.79.8v17.06a.79.79,0,0,1-.79.8H113.27Zm1.64-30.85h25a.8.8,0,0,1,.8.8v13.91a.79.79,0,0,1-.8.79H115.08ZM71.13,203.21,71,200.33a32.65,32.65,0,0,0-3.22-60.82l-.58-10.79h44.35l-4,74.49a.81.81,0,0,1-.8.75H71.92A.79.79,0,0,1,71.13,203.21ZM214.2,204H202a6.07,6.07,0,0,0,.05-1.13l-1.65-28.54a2.48,2.48,0,1,0-4.95.29l1.65,28.54a.76.76,0,0,1-.22.59.78.78,0,0,1-.57.25H112.46a2.63,2.63,0,0,0,.05-.49l.5-9.29h47a5.76,5.76,0,0,0,5.75-5.75V171.37a5.76,5.76,0,0,0-5.75-5.75H114.52l.29-5.44h26.06a5.76,5.76,0,0,0,5.75-5.75V140.52a5.76,5.76,0,0,0-5.75-5.75H116.16l.32-6.09a5.75,5.75,0,0,0,5.06-5.71v-5.14a5.76,5.76,0,0,0-5.75-5.75h-3.25v-3.36a5.75,5.75,0,0,0-5.75-5.75h-1.1L107,80.55l5.36,15.81a5.75,5.75,0,0,0,5.45,3.9h13a2.48,2.48,0,1,0,0-5h-13a.8.8,0,0,1-.76-.54L111.86,79.5h73.27L180,94.76a.8.8,0,0,1-.75.54H125.45a2.48,2.48,0,0,0,0,5H179.2a5.77,5.77,0,0,0,5.45-3.9L190,80.55l4.74,82.23a2.48,2.48,0,0,0,2.47,2.34h.15a2.47,2.47,0,0,0,2.33-2.61l-.33-5.68h18.08L215,203.21a.79.79,0,0,1-.79.75Z"/><path d="M186.32,189.23h-4.7a2.48,2.48,0,0,0,0,5h4.7a2.48,2.48,0,1,0,0-5Z"/><path d="M99.62,139.68h4.7a2.48,2.48,0,1,0,0-5h-4.7a2.48,2.48,0,0,0,0,5Z"/><path d="M104.32,143.49h-15a2.48,2.48,0,0,0,0,5h15a2.48,2.48,0,1,0,0-5Z"/></svg>