<svg id="Capa_1" data-name="Capa 1" xmlns="http://www.w3.org/2000/svg" viewBox="0 0 283.46 283.46"><path d="M215,144.22a3,3,0,0,0-3,3v37.94l-15.77,4.27V115a3,3,0,1,0-6,0V217.25H117.88a3,3,0,1,0,0,6h72.45v6.9H93.13v-6.9h15a3,3,0,1,0,0-6h-15V115a3,3,0,1,0-6,0v74.41l-15.76-4.27V96.87c0-8.94,10.63-16,20.22-20.36l.15-.06a92.64,92.64,0,0,1,10.39-3.9L120.41,82v47.42a3,3,0,1,0,6,0V85.07l14,7.24a3,3,0,0,0,2.74,0L158,84.62v44.79a3,3,0,0,0,6,0V81.54l17.37-9a91.18,91.18,0,0,1,10.79,4.08l.15.05c9.48,4.38,19.83,11.37,19.83,20.19v40.21a3,3,0,1,0,5.95,0V96.87c0-12-12.07-20.28-22.29-25.13-7.22-20.34-21.06-24.09-21.66-24.25l-.17,0-.17,0-.29,0h-63l-.3,0-.17,0-.17,0c-.59.16-14.35,3.89-21.58,24.05C77.86,76.36,65.45,84.69,65.45,96.86V204.27a3,3,0,0,0,2.2,2.87l19.52,5.3v20.64a3,3,0,0,0,3,3H193.31a3,3,0,0,0,3-3V212.44l19.53-5.3a3,3,0,0,0,2.19-2.87V147.2A3,3,0,0,0,215,144.22ZM141.91,78.54,130.72,67h22.37Zm32.2-24.69c2.83,1.28,9,5,13.78,14.63-3.22-1.18-5.53-1.83-6.06-2l-.08,0a2.54,2.54,0,0,0-.54-.09,3.07,3.07,0,0,0-1.6.32l-15.86,8.21a3,3,0,0,0-5.79,1v2l-14.33,7.41.42-.42,18.22-18.82h0l6.74-7Zm-7.82-.49-3.81,3.93L158.86,61H125l-7.43-7.67Zm-56.59.49,28.06,29-.68.71-.24.25-10.47-5.42V75.92a3,3,0,0,0-5.89-.61l-16.63-8.6-.29-.13-.1,0-.22-.07-.1,0-.24,0h-.08l-.31,0h-.08l-.28,0h-.09l-.35.07c-.35.1-2.55.7-5.71,1.84C100.73,58.82,106.87,55.12,109.7,53.85ZM87.17,206.27,71.41,202V191.31l15.76,4.28ZM212.06,202l-15.77,4.28V195.59l15.77-4.28Z"/><path d="M163.27,157.94a3,3,0,0,0-3-3H123.52a3,3,0,0,0-3,3,24.86,24.86,0,0,1-13.28,22,3,3,0,0,0-1.58,2.63v23.28a3,3,0,0,0,3,3h66.51a3,3,0,0,0,3-3V182.58a3,3,0,0,0-1.59-2.63A24.86,24.86,0,0,1,163.27,157.94Zm8.91,44.94H111.63V184.32a30.76,30.76,0,0,0,14.72-23.4h31.11a30.79,30.79,0,0,0,14.72,23.4v18.56Z"/></svg>