<svg id="Capa_1" data-name="Capa 1" xmlns="http://www.w3.org/2000/svg" viewBox="0 0 120.49 15.64"><path d="M93.92,5.17,97.4,1l3.73,4.14ZM83.19,3.35H76V1.14h7.2s2.12-.08,2.12,1.1-2.09,1.11-2.09,1.11M61.07,5.17,64.62,1l3.79,4.22Zm-55,0L9.58,1l3.8,4.21ZM118.11,0V4.45h-9.3V0h-2.38V7.29L99.09.06H95.85L88.77,7.49c-.46-.33-1-.72-1.53-1a18.85,18.85,0,0,0-3.1-1.71c1.77-.25,3.73-.63,3.7-2.52S86.12.15,85.31.06C84.92,0,83.72,0,83.72,0H73.66V7.23L66.32,0h-24V7.15L32.93,0H30.46V7.15L21.1,0H18.63V7.23L11.29,0H8L.27,8.12H3.41L5,6.36h9.5l1.68,1.76H20.9V1.93L29,8.12h3.73V1.93l8.1,6.19h3.73V1.2h4.9V8.12h2.37V1.2H61.92L55.31,8.12h3.14L60,6.37h9.5l1.68,1.75H76V4.79h3c.67,0,1.15,0,1.44,0a5.74,5.74,0,0,1,1.18.24,6,6,0,0,1,1.31.61c.49.29,1.12.72,1.87,1.26l1.59,1.17H91.3l1.58-1.75h9.36l1.68,1.75h4.89V5.64h9.3V8.12h2.37V0Z"/><path d="M19.28,15.29c.51,0,.75-.27.75-.67s-.26-.67-.76-.67h-.83v1.34Zm0-1.61a.55.55,0,0,0,.6-.61.58.58,0,0,0-.66-.6h-.77v1.21Zm-1.15-1.49h1.12a.84.84,0,0,1,.94.86.72.72,0,0,1-.49.75.8.8,0,0,1,.66.84.92.92,0,0,1-1,.93H18.12Z"/><path d="M21.84,14.45H23.1l-.63-1.61Zm1.38.29h-1.5l-.33.83h-.32l1.4-3.46h0l1.4,3.46h-.34Z"/><path d="M26,15.29c.51,0,.75-.27.75-.67S26.5,14,26,14h-.83v1.34Zm0-1.61a.55.55,0,0,0,.6-.61.58.58,0,0,0-.66-.6h-.77v1.21Zm-1.14-1.49H26a.84.84,0,0,1,.94.86.72.72,0,0,1-.49.75.8.8,0,0,1,.66.84.92.92,0,0,1-1,.93H24.85Z"/><polygon points="27.64 12.19 28 12.19 28.96 13.89 29.92 12.19 30.26 12.19 29.12 14.21 29.12 15.57 28.8 15.57 28.8 14.22 27.64 12.19"/><path d="M33,14.45h1.27l-.64-1.61Zm1.38.29h-1.5l-.32.83h-.32l1.39-3.46h0L35,15.57h-.34Z"/><polygon points="35.96 12.19 36.28 12.19 36.28 15.28 37.81 15.28 37.81 15.57 35.96 15.57 35.96 12.19"/><path d="M39.75,13.94c.54,0,.79-.29.79-.73a.69.69,0,0,0-.79-.73h-.64v1.46Zm-.64,1.63h-.32V12.19h1a1,1,0,1,1,0,2h-.66Z"/><path d="M42,14.45h1.27l-.64-1.61Zm1.38.29h-1.5l-.32.83h-.32l1.39-3.46h0l1.4,3.46h-.34Z"/><path d="M44.57,13.88a1.67,1.67,0,0,1,1.68-1.73,1.56,1.56,0,0,1,1.3.63L47.3,13a1.27,1.27,0,0,0-1.06-.52,1.36,1.36,0,0,0-1.34,1.44,1.38,1.38,0,0,0,2.49.88l.25.17a1.64,1.64,0,0,1-1.38.68,1.67,1.67,0,0,1-1.69-1.73"/><path d="M49.06,14.45h1.27l-.63-1.61Zm1.39.29H49l-.33.83H48.3l1.39-3.46h0l1.39,3.46h-.33Z"/><path d="M60,13.88a1.37,1.37,0,1,0-2.73,0,1.37,1.37,0,1,0,2.73,0m-3.06,0a1.7,1.7,0,1,1,1.69,1.73A1.68,1.68,0,0,1,57,13.88"/><path d="M62.34,13.91c.54,0,.79-.28.79-.71s-.26-.72-.79-.72h-.65v1.43Zm-.65,1.66h-.32V12.19h1a1,1,0,0,1,1.1,1,.92.92,0,0,1-.71.94l.87,1.43h-.36l-.83-1.38h-.74Z"/><path d="M64.36,13.88A1.68,1.68,0,0,1,66,12.15a1.54,1.54,0,0,1,1.24.53l-.22.21a1.26,1.26,0,0,0-1-.45,1.36,1.36,0,0,0-1.34,1.44,1.38,1.38,0,0,0,1.4,1.44,1.52,1.52,0,0,0,1-.33v-.78h-1v-.28h1.3v1.21a1.83,1.83,0,0,1-1.31.47,1.68,1.68,0,0,1-1.73-1.73"/><path d="M68.9,14.45h1.26l-.63-1.61Zm1.38.29h-1.5l-.33.83h-.32l1.39-3.46h0L71,15.57h-.34Z"/><polygon points="72.2 12.91 72.2 15.57 71.91 15.57 71.91 12.12 71.94 12.12 74.16 14.85 74.16 12.19 74.46 12.19 74.46 15.64 74.43 15.64 72.2 12.91"/><rect x="75.72" y="12.19" width="0.32" height="3.38"/><path d="M77.08,13.88a1.66,1.66,0,0,1,1.67-1.73,1.56,1.56,0,0,1,1.3.63l-.24.18a1.27,1.27,0,0,0-1.07-.52,1.36,1.36,0,0,0-1.33,1.44,1.36,1.36,0,0,0,1.36,1.44,1.35,1.35,0,0,0,1.12-.56l.25.17a1.63,1.63,0,0,1-1.38.68,1.65,1.65,0,0,1-1.68-1.73"/><path d="M82.19,13.88a1.66,1.66,0,0,1,1.67-1.73,1.56,1.56,0,0,1,1.3.63l-.24.18a1.27,1.27,0,0,0-1.06-.52,1.36,1.36,0,0,0-1.34,1.44,1.36,1.36,0,0,0,1.36,1.44A1.35,1.35,0,0,0,85,14.76l.25.17a1.63,1.63,0,0,1-1.38.68,1.65,1.65,0,0,1-1.68-1.73"/><path d="M89,13.88a1.37,1.37,0,1,0-2.73,0,1.37,1.37,0,1,0,2.73,0m-3.06,0a1.7,1.7,0,1,1,1.69,1.73,1.68,1.68,0,0,1-1.69-1.73"/><polygon points="90.85 12.48 89.82 12.48 89.82 12.19 92.19 12.19 92.19 12.48 91.16 12.48 91.16 15.57 90.85 15.57 90.85 12.48"/><polygon points="93.85 12.48 92.82 12.48 92.82 12.19 95.18 12.19 95.18 12.48 94.16 12.48 94.16 15.57 93.85 15.57 93.85 12.48"/><path d="M98.75,13.88a1.37,1.37,0,1,0-1.37,1.44,1.37,1.37,0,0,0,1.37-1.44m-3.07,0a1.7,1.7,0,1,1,1.7,1.73,1.69,1.69,0,0,1-1.7-1.73"/><polygon points="100.39 12.91 100.39 15.57 100.1 15.57 100.1 12.12 100.13 12.12 102.35 14.85 102.35 12.19 102.65 12.19 102.65 15.64 102.62 15.64 100.39 12.91"/><polygon points="55.06 15.16 52.89 13.37 52.89 12.55 55.06 14.34 55.06 15.16"/></svg>