<svg id="Capa_1" data-name="Capa 1" xmlns="http://www.w3.org/2000/svg" viewBox="0 0 141.73 22.47"><path d="M118.56,11.34c.63-.81,1-1.33,1.2-1.57a1.94,1.94,0,0,0,1.08-.26.34.34,0,0,1,.17-.09s.07,0,.07.06a1.68,1.68,0,0,1-.24.34c-.27.34-.59.79-.67.89s-1.14,1.62-2.53,3.37c-1.66,2.09-3.67,4.53-4.36,5.33l.11.07c2.37-2.65,4.67-4.29,5.93-4.29a1,1,0,0,1,1.11,1c0,1.84-3.86,3.77-3.86,5.28a.45.45,0,0,0,.49.47c1.08,0,2.68-2.26,4.13-3.75.93-1,3.17-3.06,4.71-3.06a.72.72,0,0,1,.79.74c0,1.24-2.07,2.75-4.92,3.6A3.93,3.93,0,0,0,121,21.2a.72.72,0,0,0,.75.8c2.09,0,6.87-5,7.65-6.78a.73.73,0,0,1-.23-.59.6.6,0,0,1,.53-.63.36.36,0,0,1,.36.4,1.76,1.76,0,0,1-.21.69,8,8,0,0,0,1.13.19c.63.1,1,.38,1,.91A3.25,3.25,0,0,1,130.91,18L129,20.09c-.51.58-.68.84-.68,1.2a.46.46,0,0,0,.44.48,2.41,2.41,0,0,0,1.45-.67,2,2,0,0,1,0-.26A1.7,1.7,0,0,1,132,19.31l.19,0a15.61,15.61,0,0,0,3.88-4c.5-.75.63-1.58,1.35-1.58a.29.29,0,0,1,.29.31c0,.61-1.08.83-1.08,1.8,0,.69.29,1.09.29,2.31A3.46,3.46,0,0,1,135,21.51l0,.07a12.67,12.67,0,0,0,6.33-4.89c.06-.08.12-.19.2-.19a.11.11,0,0,1,.11.12.57.57,0,0,1-.12.28c-.76,1-3.91,5.35-9.45,5.35-1.22,0-1.67-.45-1.81-.86a3,3,0,0,1-1.74.87A1.17,1.17,0,0,1,127.33,21c0-.5.31-1.06,1.17-2l1.62-1.82c.31-.35.85-.85.85-1.3,0-.2-.12-.38-.52-.45a5.27,5.27,0,0,1-.8-.14c-.9,1.86-5.56,7-8.15,7-1.17,0-1.66-.67-1.66-1.34a2.57,2.57,0,0,1,.27-1.06l-.07-.05c-.46.55-1.91,2.44-3.2,2.44-.88,0-1.37-.5-1.37-1.11,0-2.06,4.24-4.33,4.24-5.29,0-.18-.07-.38-.47-.38-1.55,0-4.86,3.1-7,5.77l-.61.77a4.8,4.8,0,0,1-1,.09c-.19,0-.26-.1-.26-.23a.61.61,0,0,1,.17-.36l1-1.22-.08-.05c-.85.91-2.24,2-3.57,2a1.08,1.08,0,0,1-1.18-1,2.07,2.07,0,0,1,.55-1.28l1.61-2-.06-.06a4.18,4.18,0,0,1-2.39.95c-.95,1.2-3.09,3.42-4.52,3.42A1.2,1.2,0,0,1,100.5,21a2.16,2.16,0,0,1,.2-.94l0,0c-.37.44-1.88,2.23-3,2.23A1.17,1.17,0,0,1,96.35,21c0-.5.35-1.09,1.16-2l1.72-1.93c.25-.28.75-.79.75-1.2,0-.2-.11-.39-.52-.45a7.32,7.32,0,0,1-.79-.14,17.06,17.06,0,0,1-5.58,5.5.22.22,0,0,1-.12.05.14.14,0,0,1-.14-.14c0-.07,0-.12.12-.17a16.92,16.92,0,0,0,5.46-5.38.73.73,0,0,1-.23-.59.6.6,0,0,1,.53-.63.36.36,0,0,1,.36.4,1.76,1.76,0,0,1-.21.69,6.35,6.35,0,0,0,1.1.19c.72.09,1,.43,1,.9A3.36,3.36,0,0,1,100,18l-1.89,2.09a2,2,0,0,0-.68,1.21.44.44,0,0,0,.46.47c.58,0,1.45-.69,2.5-1.86,1.82-2,4.29-4.74,6.56-4.74a.9.9,0,0,1,1,.92,5.79,5.79,0,0,1-1.31,2.55c1,0,2.64-1.13,3.74-2.53l1-1.31h-2.16c.13-.19.15-.31.5-.31h1.73c1.29-.39,2.18-1.3,3.76-3.15a.22.22,0,0,1,.17-.09.13.13,0,0,1,.14.13.24.24,0,0,1,0,.12l-2.35,3h1.56c-.17.28-.23.31-.49.31h-1.31l-4.14,5.27c-.57.72-.88,1.05-.88,1.43,0,.22.11.42.47.42.88,0,2.85-1.28,4.4-3.21.43-.53,5.28-6.59,5.89-7.37m17,8a4.89,4.89,0,0,0,.74-2.6c0-.17,0-.61,0-.75a1,1,0,0,1,.09-.48,18.46,18.46,0,0,1-3.77,3.95.52.52,0,0,1,.33.52c0,.47-.37.78-1.06.78s-1,.28-1,.61.44.55.72.55a5,5,0,0,0,3.94-2.58M106,18.8a.74.74,0,0,1-.51-.7c0-1.1,2-.88,2-2.12a.53.53,0,0,0-.59-.51c-1.66,0-5.57,4.79-5.57,5.91A.57.57,0,0,0,102,22c1.32,0,3.68-2.68,4.08-3.2m15.91.39c2.49-.74,4.13-2.58,4.13-3.35,0-.18-.06-.39-.31-.39-.72,0-2.45,2-3.82,3.74M90,12.94c-.66,0-1-.27-1-.54s.31-.51.8-.51a2.14,2.14,0,0,1,1.66.71,4.63,4.63,0,0,1-1.5.34m1.67-3.69a33.52,33.52,0,0,1,3.72-3.82,4.39,4.39,0,0,1,.48,2c0,2-1.71,3.89-3.55,4.79A4,4,0,0,0,90,11.58l-.3,0c.62-.74,1.44-1.67,2-2.35m1.2,3.5c2.26-.83,4.55-2.83,4.55-5.5a4.05,4.05,0,0,0-1-2.68c2.7-2.09,5.26-4,9.19-4,4.66,0,7.18,2.31,7.18,4.59,0,2.84-2.84,4.47-6.8,4.47a8.34,8.34,0,0,1-6.42-2.87c-.18-.18-.28-.35-.38-.35a.1.1,0,0,0-.1.1c0,.1.08.22.27.42a8.58,8.58,0,0,0,6.73,3c4.13,0,7-1.9,7-4.73S110.08.27,105.85.27c-4.42,0-7.21,1.63-10.08,3.62C94.6,2.86,92.07,2,89.22,2,82.43,2,77.8,6.27,77.8,9.57a3,3,0,0,0,3.27,3.21c4.74,0,7.39-6.06,7.39-8.64A.13.13,0,0,0,88.33,4c-.1,0-.15.08-.18.33-.47,3.71-3.16,8.14-7,8.14a2.74,2.74,0,0,1-3-2.85c0-3.37,4.79-7.29,11.17-7.29a7.82,7.82,0,0,1,5.57,2.25,28.92,28.92,0,0,0-4,3.81c-1.8,2-4.78,5.4-5.63,6.36-1.24,1.4-6,7.31-12.22,7.31-4.82,0-8-2.11-8-5,0-2.45,3.09-5.6,7.89-5.6,3.37,0,4.55,1.78,4.55,3.33,0,2.47-3.22,4.63-6.73,4.63a4.63,4.63,0,0,1-1.5-.19,1,1,0,0,0-.21,0,.13.13,0,0,0-.13.13c0,.14.19.22.47.28a8.16,8.16,0,0,0,1.39.13c3.56,0,7-2.23,7-4.93,0-1.88-1.41-3.64-4.81-3.64-4.36,0-8.25,2.76-8.25,5.92,0,3.36,3.69,5.31,8.22,5.31,7.46,0,11.74-4.9,13.58-7l2.32-2.7c.12.3.46.62,1.43.62a7.31,7.31,0,0,0,1.64-.19,5.08,5.08,0,0,1,.58,2.46c0,3.05-3.15,6.65-5.75,6.65a2,2,0,0,1-2.08-1.9c0-2.67,4.25-5.08,6.9-5.08a.15.15,0,0,0,.17-.15c0-.07,0-.15-.17-.15-2.8,0-7.2,2.46-7.2,5.39a2.34,2.34,0,0,0,2.57,2.19A7.28,7.28,0,0,0,94,15.53a4.21,4.21,0,0,0-1.1-2.78M90,12.94c-.66,0-1-.27-1-.54s.31-.51.8-.51a2.14,2.14,0,0,1,1.66.71,4.63,4.63,0,0,1-1.5.34m1.67-3.69a33.52,33.52,0,0,1,3.72-3.82,4.39,4.39,0,0,1,.48,2c0,2-1.71,3.89-3.55,4.79A4,4,0,0,0,90,11.58l-.3,0c.62-.74,1.44-1.67,2-2.35m1.2,3.5c2.26-.83,4.55-2.83,4.55-5.5a4.05,4.05,0,0,0-1-2.68c2.7-2.09,5.26-4,9.19-4,4.66,0,7.18,2.31,7.18,4.59,0,2.84-2.84,4.47-6.8,4.47a8.34,8.34,0,0,1-6.42-2.87c-.18-.18-.28-.35-.38-.35a.1.1,0,0,0-.1.1c0,.1.08.22.27.42a8.58,8.58,0,0,0,6.73,3c4.13,0,7-1.9,7-4.73S110.08.27,105.85.27c-4.42,0-7.21,1.63-10.08,3.62C94.6,2.86,92.07,2,89.22,2,82.43,2,77.8,6.27,77.8,9.57a3,3,0,0,0,3.27,3.21c4.74,0,7.39-6.06,7.39-8.64A.13.13,0,0,0,88.33,4c-.1,0-.15.08-.18.33-.47,3.71-3.16,8.14-7,8.14a2.74,2.74,0,0,1-3-2.85c0-3.37,4.79-7.29,11.17-7.29a7.82,7.82,0,0,1,5.57,2.25,28.92,28.92,0,0,0-4,3.81c-1.8,2-4.78,5.4-5.63,6.36-1.24,1.4-6,7.31-12.22,7.31-4.82,0-8-2.11-8-5,0-2.45,3.09-5.6,7.89-5.6,3.37,0,4.55,1.78,4.55,3.33,0,2.47-3.22,4.63-6.73,4.63a4.63,4.63,0,0,1-1.5-.19,1,1,0,0,0-.21,0,.13.13,0,0,0-.13.13c0,.14.19.22.47.28a8.16,8.16,0,0,0,1.39.13c3.56,0,7-2.23,7-4.93,0-1.88-1.41-3.64-4.81-3.64-4.36,0-8.25,2.76-8.25,5.92,0,3.36,3.69,5.31,8.22,5.31,7.46,0,11.74-4.9,13.58-7l2.32-2.7c.12.3.46.62,1.43.62a7.31,7.31,0,0,0,1.64-.19,5.08,5.08,0,0,1,.58,2.46c0,3.05-3.15,6.65-5.75,6.65a2,2,0,0,1-2.08-1.9c0-2.67,4.25-5.08,6.9-5.08a.15.15,0,0,0,.17-.15c0-.07,0-.15-.17-.15-2.8,0-7.2,2.46-7.2,5.39a2.34,2.34,0,0,0,2.57,2.19A7.28,7.28,0,0,0,94,15.53a4.21,4.21,0,0,0-1.1-2.78"/><path d="M51.31,15.78c-1.16,1.46-2.87,2.71-4,2.58a3.76,3.76,0,0,0,1.1-2.25c0-.53-.32-1-1.14-1-1.78,0-4,2-4.33,2.36a4.11,4.11,0,0,1-2.45,1.29A5.88,5.88,0,0,0,41.79,16a.86.86,0,0,0-.95-.88c-2.26,0-4.69,2.76-6.5,4.76-1.06,1.17-2,1.88-2.53,1.88a.44.44,0,0,1-.46-.47,1.72,1.72,0,0,1,.57-1.09l1.91-2.11A3.71,3.71,0,0,0,35,16.2c0-.46-.24-.82-1.1-.93a6.88,6.88,0,0,1-1-.17,1.7,1.7,0,0,0,.22-.7.36.36,0,0,0-.37-.4.61.61,0,0,0-.52.64.7.7,0,0,0,.23.58,17,17,0,0,1-5.45,5.38c-.09,0-.12.1-.12.17a.13.13,0,0,0,.13.14.22.22,0,0,0,.12-.05,17,17,0,0,0,5.58-5.5,3.83,3.83,0,0,0,.77.14c.42.06.54.25.54.45,0,.43-.44.85-.74,1.19l-1.72,1.93c-.83.89-1.16,1.46-1.16,2a1.17,1.17,0,0,0,1.26,1.23c1.2,0,2.77-1.92,3.08-2.26l0,0a2.2,2.2,0,0,0-.2.94,1.2,1.2,0,0,0,1.33,1.29c1.43,0,3.58-2.16,4.43-3.24l.15,0a3.05,3.05,0,0,0,1.72-.58l0,.05A4.86,4.86,0,0,0,41.06,21a1.17,1.17,0,0,0,1.24,1.26c1.82,0,4.32-3.1,4.77-3.64a4.08,4.08,0,0,0,2.72-1l.07.05s-2.31,2.84-3,3.8c-.11.13-.23.26-.23.39s.13.28.33.28a2.46,2.46,0,0,0,1-.16c.21-.29.3-.43.54-.75,1-1.26,4.91-5.73,6.45-5.73a.35.35,0,0,1,.38.34,3.2,3.2,0,0,1-2,2.17,1.44,1.44,0,0,0-.92-.38A.37.37,0,0,0,52,18c0,.26.33.44.71.44a3,3,0,0,0,.4,0c0,.23-.23.46-.47.75-.52.6-1.3,1.43-1.3,2.06s.55,1.08,1.39,1.08a3.79,3.79,0,0,0,2.07-.87c.13.35.46.87,2,.87A7,7,0,0,0,62.07,20c.12-.13.14-.16.14-.22a.1.1,0,0,0-.11-.1c-.06,0-.1,0-.17.1a10.57,10.57,0,0,1-1.76,1.44l0,0a3.57,3.57,0,0,0,1.3-3c0-1.26-.29-1.5-.29-2.33a1.39,1.39,0,0,1,.5-1c.25-.23.58-.45.58-.78a.3.3,0,0,0-.28-.32,1,1,0,0,0-.8.64,6.9,6.9,0,0,1-.84,1.36,16.74,16.74,0,0,1-3.6,3.63l-.2,0c-1,0-2,.81-1.79,1.77a3.55,3.55,0,0,1-1.78.86.41.41,0,0,1-.44-.41c0-.8,1.26-1.43,1.26-2.65a1,1,0,0,0-.2-.61c1.23-.37,2.7-1.38,2.7-2.47a.69.69,0,0,0-.72-.75c-1.48,0-3.47,1.67-5.9,4.43l-.08-.08c.68-.8,2.68-3.22,4.34-5.31,1.4-1.75,2.46-3.27,2.53-3.36l.67-.9c.09-.12.24-.28.24-.34a.06.06,0,0,0-.06-.06.28.28,0,0,0-.17.09A1.92,1.92,0,0,1,56,9.79c-.17.24-.57.76-1.2,1.57-.33.43-3.51,4.42-3.51,4.42M25.36,13c-.34,0-.51-.19-.51-.38s.3-.5.76-.5a1.6,1.6,0,0,1,1.17.54,3.56,3.56,0,0,1-1.42.34m2.33-.12a6.81,6.81,0,0,0,4.17-6.08A4.17,4.17,0,0,0,31,4.33c2.67-2,6.18-4,10.34-4,4.82,0,6.71,2.63,6.71,5.14,0,4.55-4.86,7.1-10,7.1a14.29,14.29,0,0,1-3.22-.36,4.74,4.74,0,0,0-.56-.14.11.11,0,0,0-.12.11c0,.1.08.17.39.25a15,15,0,0,0,3.48.45c5.41,0,10.32-2.73,10.32-7.41,0-3.07-2.47-5.45-7-5.45a19.51,19.51,0,0,0-11,3.61A8.33,8.33,0,0,0,24.82,2C18.39,2,13.26,6.34,13.26,9.68c0,1.75,1.24,3.09,3.43,3.09,4.69,0,7.84-5.78,8.51-7.32a1.59,1.59,0,0,0,.17-.53c0-.1,0-.14-.12-.14s-.12.09-.17.22c-1.56,3.58-4.69,7.47-8.44,7.47a2.78,2.78,0,0,1-3.08-2.81c0-3.42,5.46-7.38,11.3-7.38a5.73,5.73,0,0,1,4.61,2,30.72,30.72,0,0,0-4.33,4.08c-2,2.15-4.57,5.09-5.62,6.29-2.5,2.85-6.47,7.31-12.19,7.31-4.76,0-7-2.4-7-5.42C.33,14,2.69,11,7.68,11c3.26,0,4.48,1.5,4.48,3.08,0,2.54-2.91,4.46-6.26,4.46a4.41,4.41,0,0,1-1.43-.21.86.86,0,0,0-.23-.06.12.12,0,0,0-.12.12c0,.1.12.18.5.28A5.22,5.22,0,0,0,6,18.8c3.38,0,6.46-2.06,6.46-4.73,0-1.88-1.45-3.41-4.78-3.41C2.81,10.66,0,13.56,0,16.5c0,3.44,2.7,5.73,7.2,5.73,7.39,0,11.75-4.95,13.58-7,1.48-1.68,3.45-3.94,5.26-6a34,34,0,0,1,4-4,4.12,4.12,0,0,1,.37,1.71,6.74,6.74,0,0,1-3.14,5.61,2.55,2.55,0,0,0-1.69-.63c-.84,0-1.15.44-1.15.78s.19.8,1.05.8A5.43,5.43,0,0,0,27,13.15a3.62,3.62,0,0,1,.23,1.39c0,3-3.49,7.56-6.3,7.56a1.91,1.91,0,0,1-2-1.83c0-2.5,3.36-4.56,6.73-5.61.22-.07.4-.13.4-.25s0-.08-.11-.08a3.33,3.33,0,0,0-.57.14c-3.45,1-6.76,3.3-6.76,5.65a2.22,2.22,0,0,0,2.46,2.28,7.5,7.5,0,0,0,7.3-7.31,3.57,3.57,0,0,0-.69-2.17m28.42,9c-.47,0-.75-.23-.75-.54s.35-.61.89-.61c.72,0,1.14-.27,1.14-.8a.52.52,0,0,0-.33-.51,18,18,0,0,0,3.77-4,.93.93,0,0,0-.1.42c0,.24,0,.57,0,.87,0,2.82-2.61,5.12-4.65,5.12M46.32,18a.53.53,0,0,0,.4.56c-.57.77-2.94,3.4-4.22,3.4a.52.52,0,0,1-.53-.57c0-1.24,4-5.92,5.51-5.92.38,0,.53.21.53.49,0,.95-1.69,1.11-1.69,2m-6.87.25a.73.73,0,0,0,.49.7c-.56.71-2.76,3-3.93,3a.56.56,0,0,1-.6-.64c0-1.31,4.09-5.8,5.51-5.8.37,0,.54.18.54.48,0,.91-2,1-2,2.26"/></svg>