<svg id="Capa_1" data-name="Capa 1" xmlns="http://www.w3.org/2000/svg" viewBox="0 0 73.75 11.39"><path d="M0,.2H2.63A2.52,2.52,0,0,1,5,2.88,2.36,2.36,0,0,1,3.5,5.28,2.75,2.75,0,0,1,5.43,8.22c0,1.67-.92,3.16-2.65,3.16H.08l.85-.81V1ZM2.11,1V5h.43c1.21,0,1.27-.88,1.27-2,0-1.49-.44-2-1.31-2Zm0,4.74v4.93h.5c1.47,0,1.56-.88,1.56-2.4S4,5.69,2.57,5.69Z"/><path d="M7.47,1,6.49.2H9.32A2.51,2.51,0,0,1,11.56,3a2.39,2.39,0,0,1-1.41,2.42,1.48,1.48,0,0,1,.49.35c1.08,1.08.3,4.39,1.26,5.39a1.73,1.73,0,0,0,.3.25H10.76a3.62,3.62,0,0,1-.58-2.31V7.73c0-1.4-.17-2-1.09-2H8.65v4.83l.95.85H6.52l1-.81ZM9.22,5c.83,0,1.13-.57,1.13-2,0-1.16-.17-2-1.34-2H8.62V5Z"/><path d="M12.7.2h3.14l-1,.78V8.81c0,1.11.22,2,1.05,2,.51,0,1.16-.36,1.16-1.55V1L16.18.2H18.8L17.8,1V9.4a2,2,0,0,1-2,2.12c-2,0-2.13-1.88-2.13-3V1Z"/><path d="M19.57.2h2.09L23.52,7l-.06-6L22.57.2h2.54l-.9.8V11.38h-.48L21.27,2.55v8l1,.82H19.57l1-.84V1Z"/><path d="M31,6.29c0,1.51-.49,5.22-2.42,5.22-1.4,0-2.43-2.06-2.43-5.89,0-3.2.9-5.6,2.47-5.6C30.39,0,31,3.37,31,5.21Zm-1.3-1.16c0-.59-.1-3.56-.71-4.17A.52.52,0,0,0,28.6.77a.61.61,0,0,0-.37.14c-.64.63-.75,3-.75,3.94V6.44c0,.72.05,4.33,1.09,4.33s1.15-2.66,1.15-4.46Z"/><path d="M35.85.21h5.08V3.89A16.06,16.06,0,0,1,39.75,1H38V5.34h.9a15.57,15.57,0,0,1,.86-1.94V8a13.11,13.11,0,0,1-.86-1.95H38v4.48l1,.82H35.86l1-.77V1Z"/><path d="M42,.2h4.91V3.86A15.35,15.35,0,0,1,45.85,1H44.13V5h.77c.24-.56.54-1.1.88-1.72V7.57c-.29-.51-.7-1.44-.88-1.87h-.75v4.89H46a15.07,15.07,0,0,1,1.18-3.27v4.06H42l.93-.81V1Z"/><path d="M49.18,1,48.2.2H51A2.51,2.51,0,0,1,53.27,3a2.39,2.39,0,0,1-1.41,2.42,1.38,1.38,0,0,1,.49.35c1.08,1.08.3,4.39,1.26,5.39a2.21,2.21,0,0,0,.3.25H52.47a3.62,3.62,0,0,1-.57-2.31V7.73c0-1.4-.18-2-1.1-2h-.44v4.83l1,.85H48.23l1-.81ZM50.93,5c.84,0,1.13-.57,1.13-2,0-1.16-.16-2-1.34-2h-.39V5Z"/><path d="M55.38,1,54.4.2h2.82A2.5,2.5,0,0,1,59.46,3a2.38,2.38,0,0,1-1.4,2.42,1.48,1.48,0,0,1,.49.35c1.08,1.08.29,4.39,1.26,5.39a2.15,2.15,0,0,0,.29.25H58.66a3.62,3.62,0,0,1-.57-2.31V7.73c0-1.4-.18-2-1.09-2h-.45v4.83l1,.85H54.43l1-.81ZM57.13,5c.83,0,1.12-.57,1.12-2,0-1.16-.16-2-1.34-2h-.39V5Z"/><path d="M60.64.2h3.11l-1,.8v9.57l1,.81H60.52l1.07-.87V1Z"/><path d="M64.4.2h2.09L68.35,7l-.06-6L67.41.2h2.53L69,1V11.38h-.47L66.1,2.55v8l1,.82H64.4l1-.84V1Z"/><path d="M70.64.2h3.11l-1,.8v9.57l1,.81H70.53l1.06-.87V1Z"/></svg>