<svg id="Capa_1" data-name="Capa 1" xmlns="http://www.w3.org/2000/svg" viewBox="0 0 141.73 141.73"><path d="M0,29.67V0H8.18C17.31,0,24,6.86,24,14.84S17.31,29.67,8.18,29.67h-2V25.93H8.54a10.93,10.93,0,0,0,11-11.09C19.49,8.3,14.27,3.73,7,3.73H4.35V29.67Z"/><path d="M40.37.85h5l-6,6H36.21ZM35.05,23l-1.66-3,11-5.59a6.37,6.37,0,0,0-5-2,6.87,6.87,0,0,0-7.25,7,6.88,6.88,0,0,0,7.25,7.05c4.8,0,6.59-2.64,7.44-6.37l4.1.47c-.47,5.38-5.18,9.45-11.54,9.45-6.15,0-11.5-4.33-11.5-10.6s5.35-10.6,11.5-10.6A11.4,11.4,0,0,1,50,15.34Z"/><path d="M76.85,0V18.9c0,6.7-4.67,11.19-11.18,11.19C58.47,30.09,54.22,25,54.22,19c0-5.67,5-10.09,10.66-10.09a13.45,13.45,0,0,1,6.29,1.44v3.91a11.72,11.72,0,0,0-5.59-1.79c-4.39,0-7.29,2.8-7.29,7s3,7.08,7.38,7.08c3.88,0,7.11-2.71,7.11-8.31V0Z"/><path d="M99.38,29.67V18.22c0-3.81-3.5-5.77-7.2-5.77a7,7,0,1,0-.05,14.08,7.39,7.39,0,0,0,5.6-2.8v4.41a9.55,9.55,0,0,1-6,1.95,10.63,10.63,0,0,1-10.9-10.81c0-5.8,4.34-10.39,11.46-10.39,6.83,0,11.18,3.83,11.18,9.68v11.1Z"/><rect x="109.32" width="4.07" height="29.67"/><path d="M130.24,26.53a6.87,6.87,0,0,0,7.24-7,7.25,7.25,0,0,0-14.5,0,6.88,6.88,0,0,0,7.26,7m0-17.64c6.13,0,11.49,4.32,11.49,10.6s-5.36,10.6-11.49,10.6-11.5-4.33-11.5-10.6,5.35-10.6,11.5-10.6"/><path d="M8.82,137.47v-5.33c0-1.78-1.63-2.68-3.34-2.68a3.27,3.27,0,1,0,0,6.54,3.45,3.45,0,0,0,2.6-1.29v2a4.39,4.39,0,0,1-2.79.92,5,5,0,0,1-5.08-5c0-2.69,2-4.83,5.33-4.83s5.21,1.77,5.21,4.51v5.16Z"/><path d="M12.48,128h1.8v1.08h0a3.06,3.06,0,0,1,2.79-1.28h.44v1.66h-.29c-1.82,0-2.9,1-2.9,3.59v4.42H12.48Z"/><path d="M24.55,129.66h-3.7v5c0,.88.46,1.17,1.42,1.17h2.28v1.67H22A2.82,2.82,0,0,1,19,134.41v-8.77h1.89V128h3.7Z"/><path d="M28.83,134.35,28.05,133l5.1-2.61a3,3,0,0,0-2.34-.9,3.27,3.27,0,1,0,0,6.54c2.24,0,3.07-1.21,3.46-2.95l1.92.22c-.23,2.5-2.42,4.4-5.38,4.4a5,5,0,1,1,0-9.87,5.28,5.28,0,0,1,5,3Z"/><path d="M44.17,128v5.68a2.41,2.41,0,0,0,4.82,0V128h1.9v5.71c0,2.16-1.16,3.41-3.35,4v4.06H45.63v-4.06c-2.18-.55-3.35-1.8-3.35-4V128Z"/><path d="M65.84,137.47v-5.33c0-1.78-1.63-2.68-3.35-2.68a3.27,3.27,0,1,0,0,6.54,3.52,3.52,0,0,0,2.61-1.29v2a4.47,4.47,0,0,1-2.81.92,5,5,0,0,1-5.06-5c0-2.69,2-4.83,5.33-4.83,3.18,0,5.19,1.77,5.19,4.51v5.16Z"/><path d="M69.49,128H71.3v1.08h0a3,3,0,0,1,2.8-1.28h.42v1.66h-.28c-1.83,0-2.91,1-2.91,3.59v4.42H69.49Z"/><path d="M81.84,129.66H78.13v5c0,.88.45,1.17,1.43,1.17h2.28v1.67H79.3a2.81,2.81,0,0,1-3-3.06v-8.77h1.88V128h3.71Z"/><path d="M86.11,134.35,85.34,133l5.1-2.61a3,3,0,0,0-2.35-.9,3.27,3.27,0,1,0,0,6.54c2.23,0,3.08-1.21,3.46-2.95l1.91.22c-.21,2.5-2.41,4.4-5.37,4.4a5,5,0,1,1,0-9.87,5.28,5.28,0,0,1,5,3Z"/><path d="M94.62,135.8H99.9c.89,0,1.23-.29,1.23-.89,0-1.74-6.51-1.07-6.51-4.36,0-1.66,1.27-2.55,3.52-2.55h4.45v1.66H97.83c-.93,0-1.19.24-1.23.82,0,1.64,6.52,1,6.52,4.35,0,1.79-1.38,2.64-3.22,2.64H94.62Z"/><path d="M113,137.47v-5.33c0-1.78-1.61-2.68-3.35-2.68a3.27,3.27,0,1,0,0,6.54,3.44,3.44,0,0,0,2.61-1.29v2a4.42,4.42,0,0,1-2.8.92,5,5,0,0,1-5.06-5c0-2.69,2-4.83,5.33-4.83,3.17,0,5.2,1.77,5.2,4.51v5.16Z"/><path d="M116.66,137.47v-5.53a4.42,4.42,0,0,1,8.82,0v5.53H123.6v-5.53a2.52,2.52,0,0,0-5,0v5.53Z"/><path d="M127.51,128h1.88v9.47h-1.88Zm1.46-4h2.32l-2.8,2.81H127Z"/><path d="M139.66,137.47v-5.33c0-1.78-1.63-2.68-3.36-2.68a3.27,3.27,0,1,0,0,6.54,3.41,3.41,0,0,0,2.6-1.29v2a4.37,4.37,0,0,1-2.79.92,4.94,4.94,0,0,1-5.07-5c0-2.69,2-4.83,5.32-4.83s5.22,1.77,5.22,4.51v5.16Z"/><polygon points="43.3 112.41 29.89 112.41 33.36 44.99 108.53 45.2 111.91 112.19 48.18 112.19 47.72 60.75 90.9 60.75 92.01 96.43 60.16 96.43 60.16 76.41 69.42 76.41 69.42 86.39 82.52 86.39 82.76 70.82 56.31 70.82 54.95 102.05 97.21 102.05 94.73 55.16 43.07 55.16 43.3 112.41"/></svg>