<svg id="Isolation_Mode" data-name="Isolation Mode" xmlns="http://www.w3.org/2000/svg" viewBox="0 0 1148.8 300.66"><path d="M164.09,46.8q18.75,6.09,21.52,6.09,7.19,0,10.19-3.13a25.11,25.11,0,0,0,5.14-9.06h7.35l2.6,79.58h-7.66Q193,92.79,182,79.29q-19.74-23.63-51.38-23.63-32.12,0-56.5,27.6T49.77,174.19q0,52.26,24.3,81.61t60,29.35a93.67,93.67,0,0,0,14.19-1.28,79.48,79.48,0,0,0,15.49-4.05q11.91-4.44,14.85-7.65t2.93-9.49V202.44q0-21.91-5.46-27.29t-23.89-6.68v-7h85.12v7q-12.39.92-16.47,4.62Q214,179,214,197.46v74.4q0,6.66-28.78,17.73t-55.36,11.07q-48.93,0-82.52-32.31-37-35.64-37-95.64,0-52.78,29.52-90.47,32.45-41.53,86.1-41.54A122.57,122.57,0,0,1,164.09,46.8Z"/><path d="M342.82,45.14v7q-19.23,1.49-24.95,7.3t-5.7,26.67V207.06q0,29.73,7.17,46.34,13.37,30.27,50.71,30.27,40.95,0,55-31,7.83-17.34,7.83-53.53V100.71q0-30.84-6.53-38.68t-24.79-9.88v-7h77.31v7q-19.41,2.4-25.35,10.62t-6,37.94v98.41q0,39.13-10.6,61.1-19.57,40.44-74.36,40.44-54.17,0-73.72-39.88-10.6-21.42-10.6-56.49V86.12c0-13.77-1.87-22.62-5.62-26.49s-11.94-6.36-24.55-7.48v-7Z"/><path d="M488.45,288.29q18.44-2.19,23.9-7.43t5.45-26.54V86.12q0-20.12-5.38-26.31t-24-7.66v-7H665.87L667,99.23h-8.49q-4.26-25-12.71-32.34T608,59.54H562.52c-4.91,0-7.93.89-9.08,2.68s-1.71,5.13-1.71,10.06v84.37h51.53q21.36,0,27.22-7.16t9.47-29h7.83V207.8H640q-3.75-22-9.63-29.08c-3.9-4.75-12.94-7.12-27.06-7.12H551.73v93.62q0,11.25,6.29,13.29t37.64,2q34,0,50.14-8.4t29-40.71h9.3L669,295.31H488.45Z"/><path d="M710.23,219.24q8.47,25.48,19.86,40.62,19.89,26.42,49.35,26.4A38,38,0,0,0,807,274.81q11.65-11.44,11.65-31.94A47.82,47.82,0,0,0,807,210.75q-7.62-8.69-32.21-26l-28.49-20.12a105.45,105.45,0,0,1-20.52-18.65q-14.19-17.9-14.19-39.51,0-28.61,16.8-47.62t44.52-19q11.4,0,27.47,6.37t18.36,6.38c4.13,0,7-1.11,8.56-3.33a25.62,25.62,0,0,0,3.65-9.42h6.86l7.33,80.5h-8Q829,83.91,810.93,69.51T775.31,55.1a34.67,34.67,0,0,0-23.9,9.14q-10.18,9.15-10.2,25.39,0,14.6,7.81,24.93,7.83,10.51,24.27,22L802.64,157q27.51,19.2,38.82,35.26,11.13,16.26,11.14,38.41,0,29.73-19.81,49.66t-50.65,19.94q-15.5,0-32.37-6.64T730.45,287c-3.9,0-6.56,1.35-7.9,4.06a27.89,27.89,0,0,0-2.7,8.67h-7.33l-9.94-80.49Z"/><path d="M896,219.24q8.49,25.48,19.87,40.62,19.88,26.42,49.35,26.4a38,38,0,0,0,27.6-11.45q11.64-11.44,11.65-31.94a47.82,47.82,0,0,0-11.74-32.12q-7.62-8.69-32.21-26L932,164.59a105.45,105.45,0,0,1-20.52-18.65Q897.29,128,897.3,106.43q0-28.61,16.8-47.62t44.51-19q11.42,0,27.47,6.37c10.72,4.24,16.82,6.38,18.37,6.38,4.13,0,7-1.11,8.55-3.33a25.44,25.44,0,0,0,3.66-9.42h6.85l7.34,80.5h-8q-8.15-36.37-26.18-50.77T961.07,55.1a34.71,34.71,0,0,0-23.91,9.14Q927,73.39,927,89.63q0,14.6,7.81,24.93,7.83,10.51,24.27,22L988.4,157q27.51,19.2,38.81,35.26,11.14,16.26,11.15,38.41,0,29.73-19.82,49.66T967.9,300.29q-15.49,0-32.37-6.64T916.21,287c-3.9,0-6.56,1.35-7.9,4.06a27.89,27.89,0,0,0-2.7,8.67h-7.33l-9.95-80.49Z"/><path d="M1098.7,0a47.33,47.33,0,0,1,24.65,7.22,48.91,48.91,0,0,1,18.73,20.66,61.67,61.67,0,0,1,.11,55.77,49.53,49.53,0,0,1-18.54,20.69,45.92,45.92,0,0,1-49.9,0,49.93,49.93,0,0,1-18.57-20.69,61.5,61.5,0,0,1,.11-55.77,49,49,0,0,1,18.78-20.66A47.32,47.32,0,0,1,1098.7,0Zm0,9.26a39.28,39.28,0,0,0-20.55,6,41.33,41.33,0,0,0-15.66,17.25A51.17,51.17,0,0,0,1062.4,79a42,42,0,0,0,15.51,17.25,38.06,38.06,0,0,0,41.58,0A41.56,41.56,0,0,0,1135,79a51.33,51.33,0,0,0-.09-46.49,41,41,0,0,0-15.64-17.25A39.41,39.41,0,0,0,1098.7,9.26Zm-22,77.5V26.65h18.53q9.49,0,13.75,1.67a13.59,13.59,0,0,1,6.77,5.81,16.54,16.54,0,0,1,2.54,8.81,17,17,0,0,1-4.22,11.47,15.93,15.93,0,0,1-11.19,5.48,15,15,0,0,1,4.58,3.18q3.24,3.56,8,11.92L1122,86.76h-10.64l-4.77-9.47q-5.65-11.17-9.1-14c-1.61-1.39-3.93-2.08-7-2.08h-5.11V86.76Zm8.7-33.82H1096c5.07,0,8.5-.84,10.33-2.52a8.6,8.6,0,0,0,2.77-6.67,8.79,8.79,0,0,0-1.34-4.78,8.17,8.17,0,0,0-3.67-3.14c-1.57-.69-4.5-1-8.74-1h-9.9Z"/></svg>