<svg id="Capa_1" data-name="Capa 1" xmlns="http://www.w3.org/2000/svg" viewBox="0 0 97.95 35.1"><defs><style>.cls-1{fill:#fff;}</style></defs><path class="cls-1" d="M75.46,17.26l-.08,0,0,.08c-.54,1.59-.89,2.42-3.2,2.83l-.1,0,0,.07c-.73,1-1.41,2-3.3,2a4.88,4.88,0,0,1-.73-.05h-.13l-.08.08a4.09,4.09,0,0,1-3.09,1.56,4.91,4.91,0,0,1-1.14-.14l-.14,0-.09.09a3.85,3.85,0,0,1-2.76,1.1,7.52,7.52,0,0,1-1.7-.23l-.14,0-.09.09a4.19,4.19,0,0,1-2.46.88h0A2.72,2.72,0,0,1,55,25.37c-1.45-.66-2.66-1.68-4.21-1.7h0a3.72,3.72,0,0,0-1.79.49,3.72,3.72,0,0,0-1.79-.49c-1.55,0-2.76,1-4.21,1.7a2.41,2.41,0,0,1-1,.19h0a4.22,4.22,0,0,1-2.56-.83l-.1-.09-.13,0a6.54,6.54,0,0,1-1.46.17,4.33,4.33,0,0,1-3-1l-.09-.09-.14,0a5.32,5.32,0,0,1-1.19.14,4,4,0,0,1-3-1.56l-.09-.08H30a5,5,0,0,1-.65,0,3.93,3.93,0,0,1-3.37-2L26,20.23l-.1,0c-2.09-.37-2.61-1.07-3.21-2.83l0-.08-.07,0h0l-.34-.19a2.39,2.39,0,0,1-1.38-2,2.85,2.85,0,0,1,.42-1.4l.05-.08-.05-.08a2.84,2.84,0,0,1-.41-1.37,2.44,2.44,0,0,1,1.37-2l.34-.19h0l.07,0,0-.07a4.59,4.59,0,0,1,1-1.95,3.88,3.88,0,0,1,2.2-.89l.1,0L26,6.85c1-1.33,1.61-2,3.2-2,.25,0,.52,0,.82,0l.13,0,.09-.08a3.87,3.87,0,0,1,3-1.58,6.2,6.2,0,0,1,1.26.15l.14,0,.09-.08a3.72,3.72,0,0,1,2.67-1.2,8.27,8.27,0,0,1,1.82.27l.13,0,.1-.09a2.81,2.81,0,0,1,.94-.57,3.86,3.86,0,0,1,1.39-.27h0A2.84,2.84,0,0,1,43,1.78h0c1.44.67,2.64,1.67,4.18,1.68h0A3.67,3.67,0,0,0,49,3a3.73,3.73,0,0,0,1.79.48h0c1.54,0,2.74-1,4.18-1.68h0a2.83,2.83,0,0,1,1.15-.25h0a4,4,0,0,1,1.34.26,3.29,3.29,0,0,1,1.1.63l.09.09.14,0a7.76,7.76,0,0,1,1.62-.19,4,4,0,0,1,2.84,1.07l.09.08.14,0a6.42,6.42,0,0,1,1.21-.14,3.86,3.86,0,0,1,3,1.57l.08.08.13,0a6.7,6.7,0,0,1,.74,0c1.94,0,2.59,1.06,3.29,2l0,.07.1,0c2.26.4,2.64,1.2,3.2,2.84l0,.07.08,0a2.62,2.62,0,0,1,1.71,2.24,2.84,2.84,0,0,1-.41,1.37l0,.08,0,.08a2.85,2.85,0,0,1,.42,1.4C77.18,16,76.57,16.69,75.46,17.26Z"/><path d="M75.34,17.22l-.08,0,0,.07c-.54,1.58-.89,2.41-3.19,2.82l-.1,0,0,.07c-.72,1-1.4,2-3.28,2a6.39,6.39,0,0,1-.72-.05h-.13l-.08.08a4.07,4.07,0,0,1-3.07,1.55,5.52,5.52,0,0,1-1.14-.14l-.14,0-.09.09a3.82,3.82,0,0,1-2.75,1.09,7.92,7.92,0,0,1-1.68-.22l-.14,0-.1.09a4.19,4.19,0,0,1-2.44.87h0A2.71,2.71,0,0,1,55,25.28c-1.44-.66-2.64-1.67-4.19-1.69h0a3.66,3.66,0,0,0-1.78.49,3.72,3.72,0,0,0-1.78-.49c-1.55,0-2.75,1-4.19,1.69a2.41,2.41,0,0,1-1,.19h0a4.25,4.25,0,0,1-2.55-.82l-.09-.09-.14,0a6.36,6.36,0,0,1-1.44.16,4.29,4.29,0,0,1-3-1l-.09-.09-.14,0a5.3,5.3,0,0,1-1.18.14,4,4,0,0,1-3-1.55l-.08-.08h-.13a5,5,0,0,1-.65,0,3.94,3.94,0,0,1-3.36-2l0-.07-.09,0c-2.08-.37-2.6-1.06-3.19-2.82l0-.07-.08,0h0L22.38,17A2.38,2.38,0,0,1,21,15a2.82,2.82,0,0,1,.42-1.39l0-.08,0-.08A2.81,2.81,0,0,1,21,12.09a2.43,2.43,0,0,1,1.36-2l.34-.18h0l.08,0,0-.07a4.44,4.44,0,0,1,1-1.94A4,4,0,0,1,26,6.94h.09l0-.07c1-1.33,1.6-2,3.18-2a6.24,6.24,0,0,1,.83,0l.13,0,.08-.09a3.89,3.89,0,0,1,3-1.56,6.19,6.19,0,0,1,1.25.15l.14,0,.09-.09a3.71,3.71,0,0,1,2.65-1.19,8.1,8.1,0,0,1,1.81.27l.14,0,.09-.09a2.92,2.92,0,0,1,.94-.57,3.8,3.8,0,0,1,1.38-.26h0a3,3,0,0,1,1.24.25h0c1.44.67,2.63,1.67,4.17,1.68h0A3.66,3.66,0,0,0,49,3a3.66,3.66,0,0,0,1.78.49h0c1.54,0,2.73-1,4.17-1.68h0a2.7,2.7,0,0,1,1.15-.24h0a3.93,3.93,0,0,1,1.33.25,3.13,3.13,0,0,1,1.09.63l.1.09.14,0a7.59,7.59,0,0,1,1.61-.19,3.93,3.93,0,0,1,2.82,1.06l.09.09.14,0a5.54,5.54,0,0,1,1.2-.14,3.84,3.84,0,0,1,3,1.55l.08.09.13,0a6.58,6.58,0,0,1,.74,0c1.93,0,2.57,1,3.26,2l0,.07h.1c2.25.4,2.64,1.2,3.19,2.83l0,.07.08,0A2.57,2.57,0,0,1,77,12.09a2.81,2.81,0,0,1-.41,1.37l0,.08,0,.08A2.82,2.82,0,0,1,77.05,15a2.59,2.59,0,0,1-1.71,2.21m-26.3,9h0a.48.48,0,0,1-.49-.53.41.41,0,0,1,0-.16,1.48,1.48,0,0,1,.21-.47.74.74,0,0,1,.15-.18l.1-.08.1.07a.8.8,0,0,1,.16.19,1.7,1.7,0,0,1,.2.47.59.59,0,0,1,0,.13.53.53,0,0,1-.47.56m-.5-24.68a.88.88,0,0,1,0-.16A.5.5,0,0,1,49,.88h0a.54.54,0,0,1,.48.56.59.59,0,0,1,0,.14c0,.07,0,.16-.08.24a1.71,1.71,0,0,1-.13.23,1,1,0,0,1-.16.18l-.1.08-.08-.07a.8.8,0,0,1-.16-.19,1.71,1.71,0,0,1-.13-.23,1.86,1.86,0,0,1-.09-.24M77.76,11.89a2.79,2.79,0,0,0-1-2l-.09-.07-.13-.11a4.15,4.15,0,0,0-.78-.5,3.63,3.63,0,0,0-3.14-3l-.19,0-.09,0,0,0L72.14,6c-.15-.2-.31-.41-.49-.61l0,0,0,0a3.49,3.49,0,0,0-1.68-1.05c-.17,0-.35-.08-.55-.11a6.3,6.3,0,0,0-.65,0h0a5.33,5.33,0,0,0-.67,0,8.39,8.39,0,0,0-.74-.7,3.78,3.78,0,0,0-2.55-.92h0a5.93,5.93,0,0,0-1.2.13,4.17,4.17,0,0,0-1.42-.85l-.39-.12a5.72,5.72,0,0,0-.57-.11c-.23,0-.45,0-.68,0h0a7.43,7.43,0,0,0-1.6.19A4.43,4.43,0,0,0,56.17.82a3.3,3.3,0,0,0-1.37.28c-.49.23-.94.48-1.37.72a5.63,5.63,0,0,1-2.59.93h-.05a2.93,2.93,0,0,1-1.25-.29,1.37,1.37,0,0,0,.19-.22A2.46,2.46,0,0,0,50,1.82a2.56,2.56,0,0,0,.12-.32,1.12,1.12,0,0,0,.05-.31A1.17,1.17,0,0,0,49,0h0a1.11,1.11,0,0,0-.85.37,1.21,1.21,0,0,0-.28.79,1,1,0,0,0,0,.34,2.56,2.56,0,0,0,.12.32,2.32,2.32,0,0,0,.24.43c.06.08.13.15.2.23a3.08,3.08,0,0,1-1.23.27h0a5.63,5.63,0,0,1-2.59-.93c-.43-.24-.88-.49-1.37-.72A3.44,3.44,0,0,0,41.8.8a4.05,4.05,0,0,0-2.57.88L39,1.62a7.52,7.52,0,0,0-1.52-.19h0a3.71,3.71,0,0,0-1.35.25l-.33.14-.2.11a3.21,3.21,0,0,0-.46.29,4.52,4.52,0,0,0-.55.45,6.21,6.21,0,0,0-.67-.11l-.57,0h0A4.32,4.32,0,0,0,30,4.16a6.91,6.91,0,0,0-.76,0h0a3.9,3.9,0,0,0-1.3.2l-.35.14a5.31,5.31,0,0,0-1.86,1.78,4.29,4.29,0,0,0-2.36,1,2.92,2.92,0,0,0-.28.32l-.1.13-.21.37a7.79,7.79,0,0,0-.41,1,1.72,1.72,0,0,1-.07.21,5.6,5.6,0,0,0-.61.38,3,3,0,0,0-1.4,2.26,4.55,4.55,0,0,0,.53,1.68,3.49,3.49,0,0,0-.47,1.25,3.33,3.33,0,0,0,0,.56,1.5,1.5,0,0,0,.05.37,3.45,3.45,0,0,0,1.92,2.15c0,.08.05.15.07.21a1.59,1.59,0,0,1,.07.2c.06.15.12.3.19.45a3.62,3.62,0,0,0,3.1,2.16,6.24,6.24,0,0,0,1.48,1.47l.33.19a3.2,3.2,0,0,0,.88.33l.23.05a4.72,4.72,0,0,0,.77.06h0L30,23l.08.07a.8.8,0,0,0,.13.13,4.22,4.22,0,0,0,3.1,1.42h0a5.58,5.58,0,0,0,1.17-.13,3.37,3.37,0,0,0,.37.29c.11.08.23.14.34.21a5.35,5.35,0,0,0,2.53.58,6.9,6.9,0,0,0,1.44-.15,4.8,4.8,0,0,0,2.82.87A2.92,2.92,0,0,0,43.26,26c1.51-.7,2.69-1.64,4-1.64h0a3.08,3.08,0,0,1,1.23.27,2.2,2.2,0,0,0-.2.23,2.7,2.7,0,0,0-.36.75,1.27,1.27,0,0,0,0,.34,1.19,1.19,0,0,0,.29.79,1.09,1.09,0,0,0,.84.37h0A1.18,1.18,0,0,0,50.15,26a1.06,1.06,0,0,0,0-.31,2.63,2.63,0,0,0-.35-.75l-.18-.22a3,3,0,0,1,1.25-.28h0a3.91,3.91,0,0,1,1.68.45c.42.2.86.45,1.32.7l.17.09a8.33,8.33,0,0,0,.79.4,3,3,0,0,0,1.34.28,4.89,4.89,0,0,0,.66-.05,5.2,5.2,0,0,0,1.77-.65l.15-.1.14-.11a7.57,7.57,0,0,0,1.68.21h0a4.31,4.31,0,0,0,3-1.14l.24.05a5.6,5.6,0,0,0,.89.07h.24A4.55,4.55,0,0,0,68,23a5.07,5.07,0,0,0,.66,0h0a4.57,4.57,0,0,0,.86-.08c.1,0,.19,0,.29-.06h0a3.57,3.57,0,0,0,1.48-.8,7.07,7.07,0,0,0,1-1.17l.1,0,.39-.08.18-.05a4.76,4.76,0,0,0,.81-.29,3.34,3.34,0,0,0,.53-.3,4,4,0,0,0,1.41-2.28,3.19,3.19,0,0,0,2-2.52,3.09,3.09,0,0,0-.49-1.81,4.38,4.38,0,0,0,.53-1.68"/><polygon points="70.14 17.59 70 17.59 70 16.69 69.66 16.69 69.66 16.57 70.48 16.57 70.48 16.69 70.14 16.69 70.14 17.59"/><polygon points="31.43 15.92 29.87 15.92 29.88 13.4 28.32 13.4 28.32 15.91 26.77 15.91 26.77 9.52 28.32 9.52 28.32 11.93 29.85 11.93 29.85 9.53 31.42 9.53 31.43 15.92"/><path d="M35.1,11.1a.82.82,0,0,1-.81-.82.81.81,0,0,1,.81-.81.82.82,0,0,1,.82.81.82.82,0,0,1-.82.82"/><path d="M33.16,11.1a.82.82,0,0,1-.81-.82.81.81,0,0,1,.81-.81.82.82,0,0,1,.82.81.82.82,0,0,1-.82.82"/><path d="M33.5,16a2.09,2.09,0,0,1-.75-.15,2.11,2.11,0,0,1-1.08-1.93,2.25,2.25,0,0,1,1.14-2.25,1.8,1.8,0,0,1,.75-.16,1.25,1.25,0,0,1,.92.34l0-.26h1.41v4.3H34.58l0-.25a1.65,1.65,0,0,1-1,.36m.35-3.09c-.07,0-.64,0-.64.87,0,0-.08.86.67.86h0c.07,0,.62,0,.62-.87,0,0,.09-.84-.65-.86h0"/><path d="M42.67,17.94a4.51,4.51,0,0,1-1.4-.23V16.46a3.33,3.33,0,0,0,1.11.24,1.31,1.31,0,0,0,.86-.28.85.85,0,0,0,.16-.74,1.6,1.6,0,0,1-.94.28,1.77,1.77,0,0,1-.61-.1,2.12,2.12,0,0,1-1.2-2,2.33,2.33,0,0,1,1-2.13,1.85,1.85,0,0,1,.86-.21,1.28,1.28,0,0,1,.91.33l0-.26h1.4v4.38a2,2,0,0,1-.71,1.57,2.41,2.41,0,0,1-1.53.45m.15-5.08c-.07,0-.63,0-.63.88,0,0-.09.86.66.86h0c.07,0,.62,0,.62-.87,0,0,.1-.84-.65-.87h0"/><path d="M62.6,16a2.09,2.09,0,0,1-.75-.15,2.11,2.11,0,0,1-1.08-1.93,2.25,2.25,0,0,1,1.14-2.25,1.8,1.8,0,0,1,.75-.16,1.27,1.27,0,0,1,.92.34l0-.26H65v4.3H63.68l0-.25a1.65,1.65,0,0,1-1,.36M63,12.92c-.08,0-.64,0-.64.87,0,0-.08.86.67.86h0c.07,0,.61,0,.61-.87,0,0,.1-.84-.64-.86h0"/><polygon points="68.47 15.9 65.16 15.9 66.58 12.83 65.26 12.83 65.26 11.6 68.74 11.6 67.29 14.74 68.47 14.74 68.47 15.9"/><path d="M70,16l-.37,0a4.19,4.19,0,0,1-.93-.23V14.59a3,3,0,0,0,1.07.31h0c.08,0,.6,0,.62-.25,0,0,0-.21-.55-.32a1.66,1.66,0,0,1-1.2-.77A1.53,1.53,0,0,1,68.89,12a1.81,1.81,0,0,1,1.21-.48h.13a4.06,4.06,0,0,1,1.36.24v1.11a2.25,2.25,0,0,0-.93-.21h-.21c-.06,0-.46,0-.46.27,0,0,0,.15.43.2a1.93,1.93,0,0,1,1.19.45,1.22,1.22,0,0,1,.3.88,1.43,1.43,0,0,1-.7,1.22A2.36,2.36,0,0,1,70,16"/><rect x="53.77" y="12.67" width="1.47" height="1.4"/><path d="M53.26,15.93H51.88V13.3a.51.51,0,0,0-.47-.47h-.08c-.35,0-.45.15-.47.47v2.62H49.44v-4.3h1.28l.05.26a1.71,1.71,0,0,1,.86-.37,1.3,1.3,0,0,1,.23,0,1.37,1.37,0,0,1,1.4,1.3Z"/><path d="M38,16a2.09,2.09,0,0,1-.75-.15,2.11,2.11,0,0,1-1.08-1.93,2.27,2.27,0,0,1,1.14-2.25,1.83,1.83,0,0,1,.75-.16,1.25,1.25,0,0,1,.92.34L39,11.6h1.4v4.3H39.08l0-.25A1.65,1.65,0,0,1,38,16m.35-3.09c-.07,0-.64,0-.64.87,0,0-.08.86.67.86h0c.07,0,.62,0,.62-.87,0,0,.09-.84-.65-.86h0"/><path d="M57.66,15.91H55.78V9.52h2.06a3.2,3.2,0,0,1,1.57.41c1.31.73,1.28,2.72,1.28,2.72,0,2.26-1.29,2.82-1.29,2.82a4.16,4.16,0,0,1-1.74.44M57.42,11V14.5h.43a1.1,1.1,0,0,0,.73-.33,1.91,1.91,0,0,0,.47-1.45s0-1.17-.55-1.51a1,1,0,0,0-.66-.25Z"/><path d="M47.49,15.94a2.47,2.47,0,0,1-1.65-.56A2.56,2.56,0,0,1,45.17,13a2.12,2.12,0,0,1,1.52-1.58,2.21,2.21,0,0,1,.51,0,1.89,1.89,0,0,1,1.74,1,2.9,2.9,0,0,1,.3,1.24l-2.3.83a1,1,0,0,0,.78.31,3,3,0,0,0,.8-.14l.38-.18v1.15a3.15,3.15,0,0,1-1.41.33m-.34-3.35a.62.62,0,0,0-.6.63.63.63,0,0,0,0,.19l1.14-.4a.6.6,0,0,0-.57-.42"/><path d="M71.58,17.59h-.14V17s0-.16,0-.26h0l-.28.86H71l-.28-.85h0c0,.09,0,.22,0,.25v.6H70.6v-1h.2l.29.86h0l.29-.86h.2Z"/><path d="M98,31.85h-.52l-.81,1.29-.82-1.29h-.51l1.1,1.74v1.47h.46V33.59Zm-5.53,1.26v-.82h.64a.52.52,0,0,1,.39.11.45.45,0,0,1,.12.3.43.43,0,0,1-.12.29.51.51,0,0,1-.39.12Zm.37.44,1.14,1.51h.56l-1.16-1.53a.79.79,0,0,0,.38-.17A.88.88,0,0,0,94,32.7a.84.84,0,0,0-.32-.66.92.92,0,0,0-.62-.19H92v3.21h.46V33.55Zm-3.69-.94.49,1.19h-1Zm1,2.45h.48l-1.33-3.21h-.32l-1.33,3.21h.48l.33-.83h1.35Zm-4.2,0h.33V31.85h-.46v2.36l-1.93-2.36h-.32v3.21H84V32.7Zm-4.6,0h.46V31.85h-.46Zm-3.26,0a1.79,1.79,0,0,0,1.11-.3,1.64,1.64,0,0,0,.64-1.31,1.61,1.61,0,0,0-.65-1.3,1.76,1.76,0,0,0-1.1-.3h-1v3.21Zm1.29-1.61a1.2,1.2,0,0,1-.39.9,1.28,1.28,0,0,1-.92.27h-.48V32.29H78a1.28,1.28,0,0,1,.92.27,1.19,1.19,0,0,1,.39.89m-5.66-.34v-.82h.64a.51.51,0,0,1,.38.11.41.41,0,0,1,.12.3.38.38,0,0,1-.12.29.5.5,0,0,1-.38.12Zm.36.44,1.14,1.51h.56l-1.15-1.53a.79.79,0,0,0,.37-.17.84.84,0,0,0,.32-.66A.82.82,0,0,0,75,32a.9.9,0,0,0-.62-.19H73.22v3.21h.46V33.55ZM69,33.45a1.15,1.15,0,1,1,1.14,1.22A1.15,1.15,0,0,1,69,33.45m-.46,0a1.61,1.61,0,1,0,1.6-1.65,1.59,1.59,0,0,0-1.6,1.65M66,32.61l.5,1.19h-1Zm1,2.45h.47l-1.33-3.21h-.32l-1.33,3.21h.48l.33-.83h1.36Zm-5.6-2v-.82H62a.53.53,0,0,1,.39.11.45.45,0,0,1,.12.3.43.43,0,0,1-.12.29.53.53,0,0,1-.39.12Zm.37.44,1.14,1.51h.55l-1.15-1.53a.83.83,0,0,0,.38-.17A.87.87,0,0,0,63,32.7a.84.84,0,0,0-.31-.66.93.93,0,0,0-.63-.19H60.91v3.21h.46V33.55Zm-4.45-1.26h.87v2.77h.46V32.29h.87v-.44h-2.2Zm-3.42,2.77.9-1.37.9,1.37h.54L55.07,33.3l1-1.45h-.56l-.7,1.07-.69-1.07h-.57l1,1.45-1.14,1.76Zm-3.15-2v-.82h1.37v-.44H50.26v3.21h1.88v-.44H50.72V33.55h1.05v-.44Zm-5.56,0v-.82h1.38v-.44H44.7v3.21h1.88v-.44H45.16V33.55h1.05v-.44Zm-3.71,2a1.76,1.76,0,0,0,1.1-.3,1.61,1.61,0,0,0,.64-1.31,1.63,1.63,0,0,0-.64-1.3,1.76,1.76,0,0,0-1.1-.3h-1v3.21Zm1.28-1.61a1.2,1.2,0,0,1-.39.9,1.28,1.28,0,0,1-.92.27h-.48V32.29h.48a1.28,1.28,0,0,1,.92.27,1.19,1.19,0,0,1,.39.89m-5.11-.84.5,1.19h-1Zm1,2.45h.48l-1.33-3.21h-.32l-1.33,3.21h.48l.33-.83h1.35ZM34.3,32.9v2.16h.46V31.85h-.33l-1.23,2-1.24-2h-.32v3.21h.46V32.9L33,34.37h.32Zm-6.06-1h-.52l-.81,1.29-.82-1.29h-.51l1.1,1.74v1.47h.46V33.59Zm-4.79.76.49,1.19H23Zm1,2.45h.48l-1.33-3.21h-.32L22,35.06h.47l.34-.83h1.35Zm-5.3,0a1.76,1.76,0,0,0,1.1-.3,1.61,1.61,0,0,0,.64-1.31,1.63,1.63,0,0,0-.64-1.3,1.76,1.76,0,0,0-1.1-.3h-1v3.21Zm1.28-1.61a1.16,1.16,0,0,1-.39.9,1.25,1.25,0,0,1-.91.27h-.48V32.29h.48a1.25,1.25,0,0,1,.91.27,1.16,1.16,0,0,1,.39.89m-3.64-1.6h-.51l-.82,1.29-.82-1.29h-.51l1.1,1.74v1.47h.46V33.59Zm-5.52,1.26v-.82h.64a.51.51,0,0,1,.38.11.41.41,0,0,1,.12.3.38.38,0,0,1-.12.29.5.5,0,0,1-.38.12Zm.36.44,1.14,1.51h.56l-1.15-1.53a.79.79,0,0,0,.37-.17.84.84,0,0,0,.32-.66.82.82,0,0,0-.32-.66.9.9,0,0,0-.62-.19H10.82v3.21h.46V33.55Zm-3.78-.44v-.82H9.24v-.44H7.4v3.21H9.28v-.44H7.86V33.55H8.92v-.44ZM6,31.85H5.53l-1,2.42-.94-2.42H3.16l1.26,3.21h.33ZM.57,33.11v-.82H2v-.44H.12v3.21H2v-.44H.57V33.55H1.63v-.44Z"/></svg>