<svg id="Capa_1" data-name="Capa 1" xmlns="http://www.w3.org/2000/svg" viewBox="0 0 67.17 42.8"><defs><style>.cls-1{fill-rule:evenodd;}</style></defs><path class="cls-1" d="M36.87,3.56c0,.14.11.19.22.22a1.87,1.87,0,0,0,.55.18.28.28,0,0,0,.29-.31,1.23,1.23,0,0,1,.33-.08c0-.14-.1-.13-.2-.15h0c-.07,0-.3,0-.12-.16s.48.1.48.05-.26-.2-.36-.24a1.63,1.63,0,0,0-.76,0,1,1,0,0,0-.16.12c-.08,0-.15.14-.2.21S36.69,3.52,36.87,3.56Zm1.86-1a.62.62,0,0,1,0,.5c-.11,0-.17.18-.06.23a.2.2,0,0,0,.17.22c0,.14,0,.26.15.36s.06,0,.09,0a1.6,1.6,0,0,0,0,.21,1.47,1.47,0,0,1,0,.21c0,.14-.13.22-.14.35a1.7,1.7,0,0,1,0,.4c-.06.13-.17.26,0,.39s.27,0,.33-.11a.64.64,0,0,0,.13-.26.73.73,0,0,1,0-.29.5.5,0,0,0,0-.12s.07,0,.08-.08l.08,0v0a.37.37,0,0,1,.4.14A.55.55,0,0,1,40,5c0,.1-.1.12-.16.21s0,.15-.06.19-.15.11-.22.21-.15.37.05.4.13-.06.18-.14.18-.12.28-.17a1.12,1.12,0,0,1,.13-.24.9.9,0,0,0,.08-.23,5.89,5.89,0,0,1,.24-.58,1.88,1.88,0,0,0,.17-1.25c0-.1-.09-.11-.14-.19A2.67,2.67,0,0,1,40.44,3c-.08-.15-.22-.26-.31-.4s-.29-.65-.63-.77a1.85,1.85,0,0,0-.66-.09,1.34,1.34,0,0,0-.4,0c-.18.05-.14.26-.07.4S38.64,2.36,38.73,2.53Zm-2.17,4c-.07,0-.38,0-.34.1s.12.07.14.16.21.08.25.07.22-.2.19-.29S36.65,6.47,36.56,6.48ZM41.6,0H25.33a1,1,0,0,0-1,1v16a1,1,0,0,0,1,1H41.6a1,1,0,0,0,1-1V1A1,1,0,0,0,41.6,0ZM29.83,1.16a.32.32,0,0,1,0,.33,8.26,8.26,0,0,1-.8.7,1.66,1.66,0,0,1-.88,0c-.29-.09-.62-1-.64-1ZM25.45,5.68h0c0-.06.09-.08.12-.12a.74.74,0,0,0,.19-.41,1,1,0,0,0-.11-.39,1.24,1.24,0,0,1-.08-.48c0-.18,0-.31,0-.48a1.51,1.51,0,0,0-.06-.44c0-.09.07-.17.05-.25s-.11-.11-.14-.17h0V1.77a.61.61,0,0,1,.61-.61h.76l0,0a2.68,2.68,0,0,1,.5,1.23c.06.33-.27.41-.44.56a1.68,1.68,0,0,0-.51.73,1.61,1.61,0,0,0,0,.54.22.22,0,0,1,.25-.15,6.71,6.71,0,0,0-.07.76c.05.33,1.72-.65,1.83-.73.39-.28,1.1-.71,1.26-1.19a12.46,12.46,0,0,1,1-1.7.15.15,0,0,0,.06-.09H31a1.77,1.77,0,0,0,0,.34c0,.42-.14.77-.16,1.19A4.44,4.44,0,0,0,31,4.51c.22.52.83.79.95,1.34a1.58,1.58,0,0,1,0,.89c-.06.27,0,.57-.07.85s-.4.53-.57.85S31.1,9,31,9.29a7.48,7.48,0,0,1-.52,1.11l-.28.41-.45.75c-.13.25-.41.69-.73.69s-.3-.3-.37-.49a1.83,1.83,0,0,0-.9-1,3.64,3.64,0,0,0-2.29-.11Zm2.29,11.26h-.46c.23-.23.45-.72.12-.87s-.31.06-.42.23a1.58,1.58,0,0,1-.18.3c-.24.23-.61.17-.89.32a.6.6,0,0,1-.46-.59V11.27c.25,0,.54-.11.73-.12a3.1,3.1,0,0,1,.85.15,1.16,1.16,0,0,1,.65.37,2.2,2.2,0,0,1,.72,1.15,9.65,9.65,0,0,1,0,1.52A10.6,10.6,0,0,1,28.22,16C28.16,16.33,27.82,16.59,27.74,16.94Zm4.9,0H28.25a5.25,5.25,0,0,0,.34-.56,2.55,2.55,0,0,0,.34-.68c.05-.25,0-.53.05-.78.1-.7.4-.69,1-.9A2.14,2.14,0,0,0,31,12.55a2.82,2.82,0,0,1,.45-1,1.1,1.1,0,0,1,.38-.33c.16-.09.46-.44.1-.44a1.09,1.09,0,0,0-.49.19,1.25,1.25,0,0,0-.36.4,4.08,4.08,0,0,1-1,1.4c-.16.11-.57.32-.57,0a1.41,1.41,0,0,1,.36-.72c.13-.19.37-.37.5-.54s.21-.44.36-.66.31-.46.47-.68a7.42,7.42,0,0,0,.5-1c.07-.15.16-.29.24-.44a2.79,2.79,0,0,0,.4-1.23A2.32,2.32,0,0,1,32.4,7c.13-.34.36-.44.62-.15a13.49,13.49,0,0,1,1.71,2.45c.13.24.2.49.3.7s.31.46.44.7a1.18,1.18,0,0,1,.11.7c0,.18,0,.44-.18.54a.65.65,0,0,1-.53,0,2.15,2.15,0,0,0-.37-.19.7.7,0,0,0-.43,0,2.53,2.53,0,0,0-.23.12,8,8,0,0,0-.77.88,2.46,2.46,0,0,1-.17.27.57.57,0,0,0,0,.29s.07.06.09.09.19.11.26.11.23-.14.3-.24.21-.25.31-.39.09-.25.34-.32a1.11,1.11,0,0,1,.48,0c.05.29-.08.41-.19.64s-.9,1.42-1.1,1.76A4,4,0,0,0,32.64,16.94Zm8.84-.61a.61.61,0,0,1-.61.61h-.22a9.24,9.24,0,0,1,.2-1.59,10,10,0,0,1,.63-1.7Zm0-4.06a14.25,14.25,0,0,0-1,2.3A6.77,6.77,0,0,0,40,16.94h-.92a7.62,7.62,0,0,1,.2-.79c0-.14.43-1.29.56-1.56l.23-.48c.21-.44,1.42-2.68,1.42-2.8Zm0-2-.44.59a27.76,27.76,0,0,0-1.59,2.7,18.4,18.4,0,0,0-.88,2.78,4.09,4.09,0,0,0-.09.58H33.54c.08-.28.06-.61.13-.86a32.15,32.15,0,0,1,2.77-4.81,2,2,0,0,1,.55-.73,1.18,1.18,0,0,0,.22-.17.64.64,0,0,1,.58-.14c.21.07.29.33.45.47a1.14,1.14,0,0,1,.14.16,3.9,3.9,0,0,0,.34.46c.09.11.16.25.26.35s.46.43.45.06a1.6,1.6,0,0,0-.36-.82,7.41,7.41,0,0,0-.75-.91c-.3-.35-.73-.88-1.3-.64-.34.15-.72,1.35-1.18.92-.11-.1-.09-.39-.1-.53s0-.25,0-.37,0-.27,0-.35.12,0,.18,0h.23c.18,0,1.07-.17,1.16-.42s-.37-.22-.54-.17c-.76.24-1.08-.1-1.59-.62a5,5,0,0,0-.78-.87c-.33-.21-.72-.26-1-.46a5.45,5.45,0,0,1-.61-.54,1.72,1.72,0,0,1-.36-.47A10.91,10.91,0,0,1,31.62,4a3.52,3.52,0,0,1-.33-1.52,2.69,2.69,0,0,1,.22-1c0-.08.07-.2.09-.32h4.47s0,.11-.06.13a.17.17,0,0,1-.13.07c-.07,0-.2,0-.2.1a2.33,2.33,0,0,0-.29.09,2.17,2.17,0,0,1-.36,0c-.22,0-.4-.08-.62-.06s-.3.2-.47.39a2.78,2.78,0,0,0-.45.46,1,1,0,0,0-.41.75,2.65,2.65,0,0,0-.1.55,1.55,1.55,0,0,0,.07.23c0,.1,0,.23,0,.33a1.19,1.19,0,0,0,.16.23,2.15,2.15,0,0,0,.1.27,1.64,1.64,0,0,0,.16.26c.07.08.16.1.21.18s0,.36.06.51.14.13.18.23a1.72,1.72,0,0,0,0,.24h0c0,.08.27,0,.33,0a.29.29,0,0,0,.2-.2.34.34,0,0,0,0-.31c-.14-.18-.32-.1-.38-.37a1.91,1.91,0,0,1,0-1.06.81.81,0,0,1,.48-.36.42.42,0,0,1,.25,0c.07,0,.06.1.1.15s.18,0,.26,0,.06.06.11.09.11,0,.16,0a.24.24,0,0,0,.25-.13s0-.11,0-.13.13,0,.14-.07a.3.3,0,0,0,0-.16.38.38,0,0,0-.14-.17,1,1,0,0,0-.62-.14c-.13.05-.08.15-.23.16a1.09,1.09,0,0,1-.36-.06.34.34,0,0,1-.17-.31.81.81,0,0,1,0-.41,1.14,1.14,0,0,1,.18-.3l.14-.13c.05,0,.06-.1.09-.15s.09-.06.16-.07S35,2.07,35,2c.29-.37.89-.05,1.24-.26a.5.5,0,0,0,.18-.23.92.92,0,0,0,.07-.36h.59c0,.07,0,.14,0,.2s-.29.11-.25.16.05,0,.06,0l.14,0,.32,0c.13,0,.27,0,.4,0s.17,0,.19-.07-.18-.14-.24-.16l-.24-.09c-.05,0-.06-.05-.09-.09v0h3.51a.61.61,0,0,1,.61.61v4a3.26,3.26,0,0,1-.75.76,7,7,0,0,1-1.5.51,4,4,0,0,0-.87.88,1.19,1.19,0,0,0-.09.15c0,.05-.08.07-.11.12l-.07.11c-.11.12-.33.39-.25.56s.23.13.33.09a4.43,4.43,0,0,0,.46-.29c.13-.08.24-.2.38-.3a.59.59,0,0,1,.71-.11,1.44,1.44,0,0,1,.57.55c.2.35-.21.6-.4.82s-.29.46-.19.65.43,0,.57-.1c.47-.35.53-1,1.21-1.05C41.46,9.53,41.48,9.91,41.48,10.29Zm0-3.44V8.58c0,.11-.77-.25-.82-.28s-.41-.28-.42-.48a.6.6,0,0,1,.36-.52,1.21,1.21,0,0,0,.29-.19,1.35,1.35,0,0,1,.51-.25Zm-15.32,7.5a1.07,1.07,0,0,0-.05.91c.25.43.6-.15.73-.6a.91.91,0,0,0,0-.38C26.77,13.83,26.31,14.06,26.16,14.35Zm3.62-7.08a.25.25,0,0,0,.24.05.84.84,0,0,0,.2-.08c.05,0,0-.08.07-.11A1.77,1.77,0,0,1,30.51,7c.06,0,.14-.11.16-.18s0-.1,0-.14.08-.05.12-.1.12-.13.11-.18-.13-.15-.17-.21-.16-.09-.29,0a.48.48,0,0,1-.18.06l-.24,0c-.1,0-.09,0-.15.09l-.13.11c-.07.08-.25.34-.22.45A1.15,1.15,0,0,0,29.78,7.27Zm8.13-1.1a1.16,1.16,0,0,0-.22-.57.3.3,0,0,0-.08-.08,2,2,0,0,0-1-.13l-.45,0h-.49a.72.72,0,0,0-.47.26c-.15.13-.25.13-.27.36s0,.47.06.53.23-.14.27-.21a1.47,1.47,0,0,1,.34-.32c.37,0,.74,0,1.13,0a1.64,1.64,0,0,1,.54,0l.1.08c.14.05.21,0,.29.18s0,.3.14.3S37.92,6.23,37.91,6.17Z"/><path d="M21.18,26.29a13.71,13.71,0,0,0-.13-2.94c-.19-.64-.88-.89-1.83-.17a5.08,5.08,0,0,0-.52.52,11.1,11.1,0,0,0-2.59,4.12,1,1,0,0,0,0,.18.6.6,0,0,1-.71.21C15.13,28,15,28,15.1,27.07a18.52,18.52,0,0,0,.05-2c.07-1.37-.17-1.78-.57-1.75s-.31.07-.53.43A4.24,4.24,0,0,0,13.6,25c-.24,1.28.14,3-.89,2.85-.55-.07-.46-.8-.47-1.41,0-.39,0-.72,0-1.2s.15-1.41.16-1.93c0-.35-.52-.74-.87-.76a.54.54,0,0,0-.22,0,.61.61,0,0,0-.45.58c0,1-.06,2.15,0,3.12a7.42,7.42,0,0,0,.46,3.16c.16.28.17.57.74.64s1-.55,1.63-1.1a2.13,2.13,0,0,0,2.79.61.88.88,0,0,0,.38-.29,1.29,1.29,0,0,0,.75.24,1.57,1.57,0,0,0,1.11-.51c.31-.28.64-.84.65-.73.22,2.35,2.1,1.29,2.17.26C21.54,28,21.18,27.41,21.18,26.29Zm-1.42-.37c-.49.82-1.39,2.6-2,2.1-.4-.34.33-1.86.64-2.31s1-1.28,1.37-1.1C20,24.71,20.24,25.1,19.76,25.92Z"/><path d="M55.92,26.15A2.78,2.78,0,0,0,56.61,24c0-1.12-1.24-1.77-2.8-1.07a6.35,6.35,0,0,0-2.28,2.28,4.2,4.2,0,0,0-.38,2.39c.3,1.48,1.1,2.51,4.25,2.25,1.23-.19,1-1.7-.66-1.77-.92,0-1,0-1.44-.07l.85-.48A8.68,8.68,0,0,0,55.92,26.15Zm-3.18.59c-.19-.09.07-1,.51-1.44,1.06-1.06,1.62-1.44,1.82-1.28s0,.73-.72,1.38C53.88,25.82,52.92,26.83,52.74,26.74Z"/><path d="M43.74,38.57a2.76,2.76,0,0,0,.7-2.11c0-1.13-1.25-1.78-2.8-1.08a6.51,6.51,0,0,0-2.28,2.29A4.21,4.21,0,0,0,39,40.05c.31,1.48,1.1,2.52,4.26,2.26,1.23-.19.85-1.56-.08-1.64s-1.54-.15-2-.2c.28-.15.57-.31.85-.48A8.48,8.48,0,0,0,43.74,38.57Zm-3.18.59c-.19-.09.08-1,.51-1.44,1.07-1.07,1.62-1.44,1.83-1.28s0,.73-.72,1.38C41.7,38.23,40.75,39.24,40.56,39.16Z"/><path d="M38,30.13a1.55,1.55,0,0,0,1.11-.51c.31-.28.65-.84.66-.73.21,2.35,2.09,1.29,2.16.26,0-.62-.31-1.19-.31-2.31a13.71,13.71,0,0,0-.13-2.94c-.19-.64-.89-.89-1.83-.17a4.92,4.92,0,0,0-.53.51,11.07,11.07,0,0,0-2.58,4.13A1.65,1.65,0,0,0,38,30.13ZM40.13,25c.32-.09.23.66.11,1.14a6.64,6.64,0,0,1-1,1.76,1.41,1.41,0,0,1-.87.61c-.29,0-.31-.87.24-1.88A3.38,3.38,0,0,1,40.13,25Z"/><path d="M11.82,20.85a.73.73,0,0,0-.31-1.33,36.18,36.18,0,0,0-7.36,2.34.78.78,0,0,0,.45,1.5L8,22.43V26c0,1.49-.25,3.22-1.22,3.74-1.91.86-3.95-.24-5-1.62C1.36,27.59.12,27.45,0,28c0,0-.21.42.46,1.25A8,8,0,0,0,4,31.46,4.94,4.94,0,0,0,7.71,31l.1-.08a5.38,5.38,0,0,0,1.61-3.49,20.41,20.41,0,0,0,.25-5.68S11.24,21.14,11.82,20.85Z"/><path d="M26.13,23.28c-1-.05-1.62,1.08-1.79,1.11s-.14-.82-.14-.82a.78.78,0,0,0-.73-.7,1,1,0,0,0-.92,1s-.1,4.41-.09,5,.13,1,.82,1c.88,0,.73-.43.8-1.57a5,5,0,0,1,1-3c.37-.45,1-.11,1,.78L26,28.54c0,.77.17,1.71,1,1.88.42.08,1-.41,1-1.38a33.1,33.1,0,0,1-.44-4.53C27.5,23.9,26.73,23.31,26.13,23.28Z"/><path d="M50.86,29.83a17.62,17.62,0,0,1-.64-4.4c0-.64.24-2.24.32-3.92.05-1-.46-1.15-.82-1.17a.6.6,0,0,0-.69.48c-.46,2.82.85,3.07-1.32,4.16a6.76,6.76,0,0,0-1,.6c-.42.3-.94.85-1.35,1.22s-.81.87-.9.81,0-6.46,0-6.46c0-.36-.39-.53-.74-.53s-.84.36-.84.71l-.07,6.94c0,.18.06.71.3.75.07,0,.2.16.07.9a1.11,1.11,0,0,0,.29,1,1.48,1.48,0,0,0,1,.55c1.14,0,2.71-1.57,3.07-1.9.52-.49,1-1.44,1.33-1.46a11.7,11.7,0,0,0,.48,2.17.6.6,0,0,0,.78.39C50.51,30.53,51,30.16,50.86,29.83Zm-4-1.42c-.06.05-.86.84-1.13,1.05-.91.73-1.18.11-.82-.46s1.67-1.84,1.81-2c.55-.52,1.1-1.07,1.4-.94C48.76,26.41,47.41,27.9,46.86,28.41Z"/><path d="M36.74,20.93s-.51,1.15-1.06,2.76c-.84,2.46-1.7,5.64-1.87,5.64s-.48-1-.48-1l-2.08-7c-.4-1-1.86-.93-1.78.69.07,1.26.86,2.68,1.59,4.75S32.8,31,32.8,31a1,1,0,0,0,1.87,0s.65-1.91,1.46-4.26S38,21.78,38,21.78C38.4,20.44,37.06,19.91,36.74,20.93Z"/><path d="M66.23,26.8c-.85,0-5.77,2.36-6,2.16-.06-.07,4.41-3.41,4.41-3.41a1.54,1.54,0,0,0,.6-1c0-.48-.33-1-1.26-.89a34.62,34.62,0,0,0-5.5,1.54c-.85.34-1.05.6-1.05.89s.09,1,.79.95,3.27-1.35,3.7-1.27-3.71,3.05-5.08,4.08a1,1,0,0,0,.85,1.79c1.41-.47,3.09-1.3,4.88-1.93s4-1.34,4-1.34a.88.88,0,0,0,.6-.86C67.19,27,66.89,26.81,66.23,26.8Z"/><path d="M32.19,40.15c-.65,0-1,.49-1.48.59a6.08,6.08,0,0,1-3-.06,3,3,0,0,1-1.83-1.76,4.72,4.72,0,0,1-.16-2.87,5.75,5.75,0,0,1,1.16-2.58,5.31,5.31,0,0,1,2.86-1.19c.59,0,.69.2,1.18.19s.61-.28.64-.49-.48-1.16-2-1.16a5.75,5.75,0,0,0-4.2,1.76,7.24,7.24,0,0,0-1.59,4.69c0,1.13.64,3.56,2.19,4.35s2.92,1.78,5.64.59C33.35,41.46,32.84,40.16,32.19,40.15Z"/><path d="M37.75,30.8a2.36,2.36,0,0,0-1.54.56c-.74.63-1,1.66-1,3.45,0,0,.2,1.58,0,1.72s-.92.37-1,.26-.06-.33-.06-.67A13.71,13.71,0,0,0,34,33.18c-.19-.64-.88-.89-1.83-.17a6.32,6.32,0,0,0-.53.52,11.08,11.08,0,0,0-2.58,4.12c-.08.41.31,1.75,1.46,1.76a1.57,1.57,0,0,0,1.11-.51c.3-.28.49-.68.59-.67.27,0,.14,1.38,1.17,1.4.64,0,1-.77,1-1a.63.63,0,0,1,.64-.31c.1.06.06,2.15.19,3s.56,1.44,1,1.44a1.22,1.22,0,0,0,1-1.19,25.79,25.79,0,0,1-.47-3.73,14.69,14.69,0,0,1,1.79-.56,1.26,1.26,0,0,0,.83-1.08.76.76,0,0,0-.7-.73c-.57,0-1.28.65-1.86.51-.14,0-.09-1.14-.09-1.14,0-1.31.1-2.38,1-2.59.53-.12,1,.63,1.48.63s.65-.51.59-.85C39.68,31.23,38.36,30.79,37.75,30.8Zm-5,4.64a6.58,6.58,0,0,1-1,1.76c-.2.27-.57.62-.87.62s-.32-.87.23-1.89a3.49,3.49,0,0,1,1.53-1.63C33,34.22,32.89,35,32.76,35.44Z"/><path d="M43.43,32.05c-.28-.3-.82,0-1.13.28l-.89.85a.61.61,0,0,0,0,.94c.28.3.78.09,1.09-.19l.91-.91A.64.64,0,0,0,43.43,32.05Z"/><path d="M45.14,40.72a.62.62,0,0,1,.32.09.59.59,0,0,1,.24.23.68.68,0,0,1,0,.64.63.63,0,0,1-.56.32.68.68,0,0,1-.31-.08.69.69,0,0,1-.24-.24.61.61,0,0,1-.08-.32.72.72,0,0,1,.08-.32.69.69,0,0,1,.55-.32Zm0,.13a.58.58,0,0,0-.26.06.58.58,0,0,0-.19.19.63.63,0,0,0-.07.26.59.59,0,0,0,.07.26.58.58,0,0,0,.19.19.5.5,0,0,0,.51,0,.58.58,0,0,0,.19-.19.59.59,0,0,0,.07-.26.63.63,0,0,0-.07-.26.48.48,0,0,0-.44-.25Zm-.29.85V41h.35l.11,0,.06.07a.16.16,0,0,1,0,.1.16.16,0,0,1,0,.12.21.21,0,0,1-.14.07l.05,0,0,0a.45.45,0,0,0,0,.09l.08.13h-.17l-.06-.11a.46.46,0,0,0-.1-.14l-.09,0h0v.27Zm.13-.38h.21l0,0a.17.17,0,0,0,0-.05.14.14,0,0,0,0-.06l0,0H45Z"/></svg>