<svg id="Capa_1" data-name="Capa 1" xmlns="http://www.w3.org/2000/svg" viewBox="0 0 125.23 124.43"><path d="M3.62,109.52H8.91v.4H7.34v7.53a6.52,6.52,0,0,1-.29,2.17A3,3,0,0,1,5.86,121a3.43,3.43,0,0,1-1.93.6,2.84,2.84,0,0,1-1.72-.53,1.47,1.47,0,0,1-.73-1.18.9.9,0,0,1,.27-.67A.88.88,0,0,1,2.4,119a.81.81,0,0,1,.6.23.79.79,0,0,1,.24.59.88.88,0,0,1-.13.47.59.59,0,0,0-.21.37c0,.15.11.28.34.4a1.53,1.53,0,0,0,.74.18,1.35,1.35,0,0,0,1.07-.45,3.74,3.74,0,0,0,.4-2.19v-8.66H3.62Z"/><path d="M9.35,117.06a3.23,3.23,0,0,1,.94-2.35,3.17,3.17,0,0,1,2.36-1,3.21,3.21,0,0,1,2.32.93,3.12,3.12,0,0,1,.95,2.32,3.3,3.3,0,0,1-1,2.42,3.18,3.18,0,0,1-2.33,1,3.11,3.11,0,0,1-2.29-1A3.22,3.22,0,0,1,9.35,117.06Zm4.78,0a11.28,11.28,0,0,0-.1-1.94,1.32,1.32,0,0,0-.45-.75,1.51,1.51,0,0,0-.95-.27,1.48,1.48,0,0,0-.94.28,1.19,1.19,0,0,0-.46.75,13,13,0,0,0-.09,1.94,11.15,11.15,0,0,0,.11,2,1.24,1.24,0,0,0,.47.75,1.47,1.47,0,0,0,.91.27,1.55,1.55,0,0,0,.93-.27A1.21,1.21,0,0,0,14,119,11.43,11.43,0,0,0,14.13,117.06Z"/><path d="M19.29,114.35l2.23,4.35,1.95-4.35H22.08v-.41H24.9v.41H23.84l-3.21,7.27a11.31,11.31,0,0,1-1.17,2.18,1.46,1.46,0,0,1-1.18.63.82.82,0,0,1-.67-.28,1,1,0,0,1-.23-.62.69.69,0,0,1,.2-.51.69.69,0,0,1,1.09.16c.14.24.26.35.36.35s.3-.13.46-.39a11.68,11.68,0,0,0,.75-1.52l.52-1.17-3.15-6.1h-.95v-.41H20.5v.41Z"/><path d="M31.14,116.59h-4a7.32,7.32,0,0,0,.26,2.91,1.23,1.23,0,0,0,1.14.54,2.33,2.33,0,0,0,2.29-2h.34a2.91,2.91,0,0,1-1,1.76,2.67,2.67,0,0,1-1.64.56,3.07,3.07,0,0,1-2.23-1,3.47,3.47,0,0,1,0-4.75,2.92,2.92,0,0,1,2.16-1,2.63,2.63,0,0,1,1.87.76A2.89,2.89,0,0,1,31.14,116.59Zm-4-.36h2.32c0-.37.06-.66.06-.86,0-.85-.38-1.27-1.15-1.27a1.29,1.29,0,0,0-.9.3,1.11,1.11,0,0,0-.33.84Z"/><path d="M33.28,119.8v-5.45H32v-.41H33.3a9.58,9.58,0,0,0,1.53-.1v1.5h0q.55-1.5,1.65-1.5a1,1,0,0,1,.77.29,1,1,0,0,1,.29.7.83.83,0,0,1-.24.62.8.8,0,0,1-.61.23A.6.6,0,0,1,36,115l0-.34c0-.13-.06-.19-.17-.19s-.4.24-.67.71a4.55,4.55,0,0,0-.4,2.17v2.45h1.32v.4H32v-.4Z"/><path d="M40.9,113.82v6h1v.4h-3.7v-.4h1.13v-5.45H38.24v-.41h1.13A9.13,9.13,0,0,0,40.9,113.82Zm-1.82-1.08-.21-.2,1.6-1.92a7.73,7.73,0,0,1,.67-.72.72.72,0,0,1,.49-.19.65.65,0,0,1,.46.19.59.59,0,0,1,.2.41.73.73,0,0,1-.26.57,6.66,6.66,0,0,1-1,.66Z"/><path d="M47.05,116.62v-.81a3.37,3.37,0,0,0-.16-1.31c-.11-.2-.4-.31-.88-.31-.86,0-1.29.17-1.29.5a.59.59,0,0,0,.1.31.7.7,0,0,1,.11.41.59.59,0,0,1-.21.49.75.75,0,0,1-.49.17.7.7,0,0,1-.54-.21.76.76,0,0,1-.19-.52,1.26,1.26,0,0,1,.74-1.07,4.16,4.16,0,0,1,2.08-.43,3.78,3.78,0,0,1,1.56.24,1.11,1.11,0,0,1,.61.62,3.45,3.45,0,0,1,.12,1v2.93a2.16,2.16,0,0,0,.09.81.29.29,0,0,0,.28.16.73.73,0,0,0,.56-.39h.19a1.26,1.26,0,0,1-1.36,1.16c-.73,0-1.18-.42-1.32-1.27a2.67,2.67,0,0,1-2.18,1.27,1.91,1.91,0,0,1-1.33-.45,1.46,1.46,0,0,1-.49-1.1Q43.05,116.81,47.05,116.62Zm0,1.23V117a3.61,3.61,0,0,0-1.94.44,1.35,1.35,0,0,0-.47,1.12,1.13,1.13,0,0,0,.28.83.86.86,0,0,0,.65.3,1.3,1.3,0,0,0,.85-.32,1.63,1.63,0,0,0,.5-.63A2.33,2.33,0,0,0,47.05,117.85Z"/><path d="M60.43,114.3l1.86,3a2.34,2.34,0,0,0,.25.42A7.29,7.29,0,0,0,63.76,114H62.2v-.41h3.16V114H64.13a7.11,7.11,0,0,1-1.35,4l1.29,1.8h1.18v.4H62.06c-.23-.33-.45-.61-.64-.84a4.81,4.81,0,0,1-3.07,1.09,3.63,3.63,0,0,1-2.61-.88,2.83,2.83,0,0,1-.93-2.12,3.09,3.09,0,0,1,.83-2.11,5.06,5.06,0,0,1,2.37-1.4,5.44,5.44,0,0,1-.92-2.38,1.92,1.92,0,0,1,.76-1.51,2.72,2.72,0,0,1,1.87-.65,3.36,3.36,0,0,1,1.9.52,1.59,1.59,0,0,1,.8,1.37,1.67,1.67,0,0,1-.53,1.22,5.47,5.47,0,0,1-1.9,1Zm-2.22,0c-1.13.43-1.7,1-1.7,1.78a4.71,4.71,0,0,0,.86,2.42,2.39,2.39,0,0,0,2,1.36,3.11,3.11,0,0,0,1.88-.81C60,117.33,59,115.75,58.21,114.28Zm1.58-1.07a1.82,1.82,0,0,0,1-.74,2.36,2.36,0,0,0,.24-1.16c0-1-.42-1.51-1.28-1.51a1.24,1.24,0,0,0-.8.26.81.81,0,0,0-.32.66A6,6,0,0,0,59.79,113.21Z"/><path d="M74.17,115.31v4.49H75.9v.4H70.58v-.4h1.7v-9.88h-1.7v-.4h5.51a4.12,4.12,0,0,1,2.8.82,2.64,2.64,0,0,1,1,2,2.69,2.69,0,0,1-1,2.09,4.78,4.78,0,0,1-3.17.84Zm0-5.39v5h1a5.56,5.56,0,0,0,1.34-.14,1.58,1.58,0,0,0,.92-.72,3.29,3.29,0,0,0,.39-1.8,2.94,2.94,0,0,0-.34-1.58,1.41,1.41,0,0,0-.8-.62,4.66,4.66,0,0,0-1.15-.12Z"/><path d="M82,119.8v-9.88H80.81v-.4H81.9a7.69,7.69,0,0,0,1.61-.12v10.4h1.12v.4H80.81v-.4Z"/><path d="M89.74,116.62v-.81a3.31,3.31,0,0,0-.17-1.31c-.1-.2-.4-.31-.88-.31-.86,0-1.29.17-1.29.5a.61.61,0,0,0,.11.31.78.78,0,0,1,.11.41.57.57,0,0,1-.22.49.71.71,0,0,1-.48.17.67.67,0,0,1-.54-.21.77.77,0,0,1-.2-.52,1.26,1.26,0,0,1,.75-1.07,4.14,4.14,0,0,1,2.07-.43,3.8,3.8,0,0,1,1.57.24,1.11,1.11,0,0,1,.61.62,3.88,3.88,0,0,1,.11,1v2.93a2.16,2.16,0,0,0,.09.81.31.31,0,0,0,.29.16c.19,0,.37-.13.55-.39h.2a1.26,1.26,0,0,1-1.36,1.16c-.74,0-1.18-.42-1.32-1.27a2.67,2.67,0,0,1-2.19,1.27,1.89,1.89,0,0,1-1.32-.45,1.43,1.43,0,0,1-.49-1.1Q85.74,116.81,89.74,116.62Zm0,1.23V117a3.66,3.66,0,0,0-1.95.44,1.38,1.38,0,0,0-.47,1.12,1.13,1.13,0,0,0,.29.83.85.85,0,0,0,.65.3,1.28,1.28,0,0,0,.84-.32,1.67,1.67,0,0,0,.51-.63A2.55,2.55,0,0,0,89.74,117.85Z"/><path d="M96.11,112.12v1.82H98v.41H96.11v3.94a3.9,3.9,0,0,0,.12,1.19c.08.21.28.32.62.32a1.23,1.23,0,0,0,.73-.26,1.51,1.51,0,0,0,.54-.79h.34a2,2,0,0,1-2.22,1.55,2,2,0,0,1-1.15-.28,1.19,1.19,0,0,1-.45-.7,6.58,6.58,0,0,1-.08-1.13v-3.84H93.14v-.41h1.42v-1.68A8.85,8.85,0,0,0,96.11,112.12Z"/><path d="M105.3,116.59h-4a7.32,7.32,0,0,0,.26,2.91,1.23,1.23,0,0,0,1.14.54,2.33,2.33,0,0,0,2.29-2h.34a2.91,2.91,0,0,1-1,1.76,2.67,2.67,0,0,1-1.64.56,3.07,3.07,0,0,1-2.23-1,3.47,3.47,0,0,1,0-4.75,2.92,2.92,0,0,1,2.16-1,2.63,2.63,0,0,1,1.87.76A2.89,2.89,0,0,1,105.3,116.59Zm-4-.36h2.32c0-.37.06-.66.06-.86,0-.85-.38-1.27-1.15-1.27a1.27,1.27,0,0,0-.9.3,1.11,1.11,0,0,0-.33.84Z"/><path d="M107.44,119.8v-5.45h-1.29v-.41h1.3a9.49,9.49,0,0,0,1.53-.1v1.5h0q.56-1.5,1.65-1.5a1,1,0,0,1,.76.29.94.94,0,0,1,.3.7.83.83,0,0,1-.24.62.81.81,0,0,1-.61.23.6.6,0,0,1-.68-.68l0-.34c0-.13-.06-.19-.17-.19s-.4.24-.67.71a4.53,4.53,0,0,0-.41,2.17v2.45h1.33v.4h-4.16v-.4Z"/><path d="M115.06,113.82v6h1v.4h-3.7v-.4h1.13v-5.45H112.4v-.41h1.13A9.31,9.31,0,0,0,115.06,113.82Zm-1.82-1.08-.21-.2,1.6-1.92a6.55,6.55,0,0,1,.67-.72.7.7,0,0,1,.49-.19.61.61,0,0,1,.45.19.55.55,0,0,1,.2.41.7.7,0,0,1-.26.57,6.42,6.42,0,0,1-1,.66Z"/><path d="M121.21,116.62v-.81a3.58,3.58,0,0,0-.16-1.31c-.11-.2-.41-.31-.88-.31-.86,0-1.3.17-1.3.5a.61.61,0,0,0,.11.31.78.78,0,0,1,.11.41.57.57,0,0,1-.22.49.71.71,0,0,1-.48.17.67.67,0,0,1-.54-.21.77.77,0,0,1-.2-.52,1.26,1.26,0,0,1,.75-1.07,4.16,4.16,0,0,1,2.08-.43,3.78,3.78,0,0,1,1.56.24,1.11,1.11,0,0,1,.61.62,3.5,3.5,0,0,1,.11,1v2.93a1.9,1.9,0,0,0,.1.81.29.29,0,0,0,.28.16.73.73,0,0,0,.56-.39h.19a1.26,1.26,0,0,1-1.36,1.16c-.74,0-1.18-.42-1.32-1.27A2.67,2.67,0,0,1,119,120.4a1.9,1.9,0,0,1-1.33-.45,1.43,1.43,0,0,1-.49-1.1Q117.21,116.81,121.21,116.62Zm0,1.23V117a3.61,3.61,0,0,0-1.94.44,1.36,1.36,0,0,0-.48,1.12,1.13,1.13,0,0,0,.29.83.86.86,0,0,0,.65.3,1.32,1.32,0,0,0,.85-.32,1.63,1.63,0,0,0,.5-.63A2.33,2.33,0,0,0,121.21,117.85Z"/><path d="M49.16,84.46a5,5,0,0,1-2.8.7H44.71v4.06h1.56v.36H41.41v-.36h1.44v-9H41.41v-.37h4.87a5.5,5.5,0,0,1,2.89.64,2.24,2.24,0,0,1,1,2A2.26,2.26,0,0,1,49.16,84.46Zm-1.4-3.71a1.42,1.42,0,0,0-1.26-.55H44.71v4.59h1.73a1.43,1.43,0,0,0,1.29-.58,3.14,3.14,0,0,0,.41-1.78A3,3,0,0,0,47.76,80.75Z"/><path d="M59.57,89.58h-8.3v-.36h1.45v-9H51.27v-.37h8l.1,2.63H59a3,3,0,0,0-.93-1.83,3.16,3.16,0,0,0-1.82-.43H54.57v4.19H55a1.65,1.65,0,0,0,1.46-.53,2.22,2.22,0,0,0,.36-1.26h.41v4.08h-.41a2.47,2.47,0,0,0-.35-1.35A1.62,1.62,0,0,0,55,84.75h-.4v4.47h2a2.4,2.4,0,0,0,2-.69,4.3,4.3,0,0,0,.77-2.09h.43Z"/><path d="M70.37,89.76a2.47,2.47,0,0,1-1.06-.21,1.86,1.86,0,0,1-1.07-1.43l0-.62a12.27,12.27,0,0,0-.14-1.24,2.48,2.48,0,0,0-.3-.93,1.66,1.66,0,0,0-1.54-.77h-.75v4.66h1.44v.36H62.17v-.36h1.44v-9H62.17v-.37h5.14a4.29,4.29,0,0,1,2.4.53,1.82,1.82,0,0,1,.82,1.69,1.86,1.86,0,0,1-.76,1.55,5,5,0,0,1-2.32.83,3.14,3.14,0,0,1,2.31,1.33,3.94,3.94,0,0,1,.36,1A7.76,7.76,0,0,1,70.24,88v.72a.71.71,0,0,0,.36.47,1,1,0,0,0,.46.07,5.4,5.4,0,0,0,.62,0v.33A5.61,5.61,0,0,1,70.37,89.76Zm-2.19-9.08a1.54,1.54,0,0,0-1.28-.48H65.47v4h1.24a1.74,1.74,0,0,0,1.38-.49,2.18,2.18,0,0,0,.44-1.5A2.61,2.61,0,0,0,68.18,80.68Z"/><path d="M81,80.2v6.2a3.43,3.43,0,0,1-.84,2.6,5.12,5.12,0,0,1-5.51,0,3.86,3.86,0,0,1-.85-2.8v-6H72.36v-.37H77.1v.37H75.66v6.65a2.6,2.6,0,0,0,.57,1.87,2.31,2.31,0,0,0,1.78.61,2.46,2.46,0,0,0,1.88-.68,2.81,2.81,0,0,0,.66-2V80.2H79.11v-.37h3.34v.37Z"/><polygon points="12.3 50.45 12.3 48.76 0 48.76 0 50.45 3.49 50.45 3.49 71.42 0 71.42 0 73.12 12.3 73.12 12.3 71.42 8.81 71.42 8.81 50.45 12.3 50.45"/><path d="M33,64.37l0,.4a8,8,0,0,1-1.53,4.94,5.2,5.2,0,0,1-4.37,1.72H22.91v-21h3.67v-1.7H14.13v1.7h3.49v21H14.13v1.69H34.45l.43-8.75Z"/><path d="M84.71,71.5a12.55,12.55,0,0,1-1.43.1,2,2,0,0,1-1-.13,1.22,1.22,0,0,1-.62-.82l0-1.68a18.81,18.81,0,0,0-.31-3,10,10,0,0,0-.9-2.65,6.58,6.58,0,0,0-4.1-3,10.8,10.8,0,0,0,4-1.74,4.91,4.91,0,0,0,2-4.06,4.83,4.83,0,0,0-2.16-4.43,11,11,0,0,0-6-1.34H61.36v1.7h3.49v21H61.36v1.69H73.64V71.43h-3.5V61h1.43a3.57,3.57,0,0,1,3.35,1.67,5.92,5.92,0,0,1,.69,2.08c.14.83.24,1.79.32,3L76,69.27A5,5,0,0,0,78.85,73a6.5,6.5,0,0,0,2.74.53,14.13,14.13,0,0,0,3.26-.43l.31-.08V71.45Zm-14.57-21h3a3.35,3.35,0,0,1,2.78,1,5.87,5.87,0,0,1,.77,3.45,5,5,0,0,1-.95,3.36,4,4,0,0,1-3.06,1H70.14Z"/><polygon points="99.33 50.45 99.33 48.76 87.03 48.76 87.03 50.45 90.52 50.45 90.52 71.42 87.03 71.42 87.03 73.12 99.33 73.12 99.33 71.42 95.85 71.42 95.85 50.45 99.33 50.45"/><path d="M56.88,71.43l-8-23.2H42.72v1.62h3.72L38.61,71.43H35.67v1.69H44V71.43H40.53l2.81-7.88a9.33,9.33,0,0,1,6.38,2.25l1.61,5.63h-3.5v1.69h12V71.43ZM49,63.11a10.85,10.85,0,0,0-5-1.21l2.6-7.27Z"/><path d="M122.33,71.43l-8-23.2h-5.85v1.62h3.45l-7.83,21.58h-2.95v1.69h8.29V71.43H106l2.81-7.88a9.41,9.41,0,0,1,6.39,2.25l1.6,5.63h-3.5v1.69h12V71.43ZM112,54.63l2.43,8.48a10.81,10.81,0,0,0-5-1.21Z"/><path d="M61.75,0C52.56,0,45.11,9.21,45.11,20.57s7.45,20.58,16.64,20.58,16.64-9.21,16.64-20.58S70.94,0,61.75,0Zm0,38.6c-7.37,0-14-7-14-18s6.45-18,14-18,13.91,7,13.91,18S69,38.6,61.8,38.6Z"/><path d="M65.27,28,64.39,27a4.89,4.89,0,0,1-1.67.81,7.19,7.19,0,0,1-2,.27,6.31,6.31,0,0,1-4.63-2,6.35,6.35,0,0,1-2-4.65,6.5,6.5,0,0,1,2-4.77,6.65,6.65,0,0,1,4.83-2,5.67,5.67,0,0,1,1.88.29,5.45,5.45,0,0,1,1.39.71l.83-.81h.49V18.6h-.61a4,4,0,0,0-1.63-2.71,4.68,4.68,0,0,0-2.44-.71,3.11,3.11,0,0,0-2.69,1.15,5.44,5.44,0,0,0-.9,3.33v3.5a5.16,5.16,0,0,0,.92,3.33A3.36,3.36,0,0,0,61,27.64a4.24,4.24,0,0,0,2.39-.75A5,5,0,0,0,65.12,24h.62V28Z"/><path d="M57.65,8.62v.94h2.51V14.1a7.13,7.13,0,0,1,1.71,0,6,6,0,0,1,1.54.43v-5h2.51V8.62Z"/><path d="M62.19,26.66A3.25,3.25,0,0,0,63.41,26V16.76a3.34,3.34,0,0,0-1.88-.86,3.76,3.76,0,0,0-1.37,0V26.81A4.71,4.71,0,0,0,62.19,26.66Z"/><path d="M63.41,32.77V28.35a8.16,8.16,0,0,1-1.85.42,7.13,7.13,0,0,1-1.4,0v4H57.65v.94h8.27v-.94Z"/><path d="M70.36,22.37a7.65,7.65,0,0,0-4-1.48A7.18,7.18,0,0,0,70,19.37a3.67,3.67,0,0,0,1.3-2.86,3.62,3.62,0,0,0-1.6-3.25,8.24,8.24,0,0,0-4.54-1H64.08v.67H65a2.58,2.58,0,0,1,2.18.9,4.51,4.51,0,0,1,.66,2.73,5.33,5.33,0,0,1-.74,3,2.55,2.55,0,0,1-2.26,1.06h-.77v.68h.77a3.14,3.14,0,0,1,2.57,1,5,5,0,0,1,.83,3.14,6.11,6.11,0,0,1-.63,3.05,2,2,0,0,1-1.83,1.11H64.08v.68h1.6A7.33,7.33,0,0,0,70.23,29a4.22,4.22,0,0,0,1.65-3.56A3.88,3.88,0,0,0,70.36,22.37Z"/></svg>