<?xml version="1.0" encoding="utf-8"?>
<!-- Generator: Adobe Illustrator 24.1.0, SVG Export Plug-In . SVG Version: 6.00 Build 0)  -->
<svg version="1.1" id="Isolation_Mode" xmlns="http://www.w3.org/2000/svg" xmlns:xlink="http://www.w3.org/1999/xlink" x="0px"
	 y="0px" viewBox="0 0 463.17 1080" style="enable-background:new 0 0 463.17 1080;" xml:space="preserve">
<style type="text/css">
	.st0{fill:#2A2829;}
	.st1{fill:#C4483C;}
</style>
<g id="Ilustración_2_1_">
	<g>
		<g>
			<path class="st0" d="M330.38,365.97h15.27c2.47,0,4.47-2,4.47-4.48V227.42c0-2.47,2-4.48,4.47-4.48h91.1c2.47,0,4.48-2,4.48-4.47
				v-15.27c0-2.47-2-4.48-4.48-4.48h-91.1c-2.47,0-4.47-2-4.47-4.47v-3.28c0-2.47,2-4.48,4.47-4.48h91.1c2.47,0,4.48-2.01,4.48-4.48
				v-15.27c0-2.47-2-4.48-4.48-4.48h-50.41c-2.47,0-4.47-2-4.47-4.47v-10.83c0-2.47-2.01-4.48-4.48-4.48h-15.27
				c-2.47,0-4.47,2.01-4.47,4.48v10.83c0,2.47-2,4.47-4.48,4.47h-48.21c-2.47,0-4.48-2-4.48-4.47v-10.83c0-2.47-2-4.48-4.47-4.48
				h-15.27c-2.47,0-4.48,2.01-4.48,4.48v10.83c0,2.47-2,4.47-4.48,4.47h-50.4c-2.47,0-4.47,2.01-4.47,4.48v15.27
				c0,2.47,2.01,4.48,4.47,4.48h91.09c2.47,0,4.47,2,4.47,4.48v3.28c0,2.47-2,4.47-4.47,4.47h-91.09c-2.47,0-4.47,2.01-4.47,4.48
				v15.27c0,2.47,2.01,4.47,4.47,4.47h91.09c2.47,0,4.47,2.01,4.47,4.48V361.5C325.9,363.97,327.91,365.97,330.38,365.97"/>
			<path class="st0" d="M412.3,638.54c4.95,10.5,13.09,21.27,26.4,31.58c2.02,1.57,4.94,1.19,6.43-0.89l8.91-12.41
				c1.39-1.93,1.02-4.63-0.85-6.1c-25.14-19.63-24.52-39.14-23.94-58.01c0.04-1.22,0.08-2.42,0.11-3.61c0.06-2.52-1.95-4.6-4.48-4.6
				h-15.27c-2.42,0-4.41,1.92-4.47,4.34c-0.03,1.02-0.06,2.05-0.09,3.11c-0.14,4.57-0.3,9.65-0.06,15.09
				c0.11,2.54-1.92,4.66-4.46,4.66H279.49c-3.84,0-5.89-4.5-3.38-7.41l125.22-144.59c0.79-0.92,1.94-1.46,3.16-1.53
				c15.82-0.85,28.79-4.49,41.19-19.99c1.61-2.02,1.21-5-0.9-6.49l-12.46-8.83c-1.93-1.37-4.57-0.96-6.08,0.87
				c-7.89,9.6-15.06,10.44-34.51,10.5l-0.21-0.18l-0.16,0.18c-0.77,0-1.51,0.01-2.31,0.01H249.62c-2.47,0-4.47,2-4.47,4.47v15.27
				c0,2.47,2,4.48,4.47,4.48h110.96c3.84,0,5.89,4.5,3.38,7.41L234.04,615.86c-1.81,2.08-2.84,4.72-2.94,7.46
				c-0.11,2.5-1.67,23.5-26.21,25.62c-2.33,0.2-4.14,2.11-4.14,4.44v15.32c0,2.59,2.21,4.64,4.79,4.48
				c28.11-1.76,41.57-18.95,46.88-34.35c0.61-1.78,2.31-2.94,4.2-2.94h151.62C410,635.9,411.56,636.95,412.3,638.54"/>
			<path class="st0" d="M421.73,830.24c0.05-3.46,0-6.97,0-10.53v-75.98c0-2.47-2-4.48-4.48-4.48h-15.26c-2.47,0-4.48,2-4.48,4.48
				v75.98c0,3.43,0.05,6.81,0,10.15c-0.51,32.79,2.18,68.44,50.26,102.19c2.05,1.44,4.9,0.86,6.28-1.23l8.38-12.72
				c1.35-2.05,0.77-4.77-1.23-6.17C427.36,888.28,421.24,861.15,421.73,830.24"/>
			<path class="st0" d="M381.82,861.14l-15.32,1.04c-2.47,0.16-4.36,2.31-4.16,4.78c0.42,5.24,1.62,14.52,5.28,25.16
				c0.94,2.74-0.87,5.66-3.76,5.93c-10.57,1.01-23.27,1.82-37,1.87l-2.71-0.01c-12.97-0.07-25.22-0.12-36.47-5.05
				c-7.64-3.34-12.76-12.99-12.76-19.9V745.67c0-2.47-2-4.48-4.47-4.48h-15.27c-2.47,0-4.48,2.01-4.48,4.48v129.29
				c0,14.97,9.36,34.24,27.24,42.09c15.84,6.95,31.91,7.02,46.08,7.08l2.66,0.02c0.81,0,1.61,0.01,2.4,0.01
				c20.83,0,39.03-1.77,51.58-3.45c1.52-0.2,2.99,0.39,3.99,1.55c2.47,2.87,5.2,5.67,8.25,8.34c1.85,1.64,4.67,1.53,6.33-0.3
				l10.28-11.32c1.65-1.81,1.53-4.63-0.28-6.27c-17.53-15.93-21.68-38.25-22.67-47.54C386.32,862.76,384.23,860.98,381.82,861.14"/>
			<path class="st1" d="M91.96,830.9c1.21-1.77,1.81-3.99,1.81-6.64c0-2.98-0.79-5.38-2.39-7.21c-1.59-1.83-3.83-2.99-6.73-3.47
				c-1.45-0.2-5.8-0.3-13.04-0.3H57.69v22.45H70.9c8.57,0,13.92-0.36,16.06-1.08C89.09,833.92,90.76,832.67,91.96,830.9"/>
			<path class="st1" d="M75.67,964.54c-7.36,0-13.3,2.52-17.8,7.57c-4.51,5.05-6.76,12.66-6.76,22.84c0,10.02,2.31,17.61,6.94,22.79
				c4.63,5.17,10.5,7.75,17.62,7.75c7.12,0,12.97-2.56,17.53-7.69c4.57-5.13,6.85-12.82,6.85-23.08c0-10.14-2.22-17.7-6.67-22.69
				C88.94,967.04,83.03,964.54,75.67,964.54"/>
			<path class="st1" d="M146.51,0H7.99C3.58,0,0,3.59,0,8v1064.01c0,4.41,3.58,7.99,7.99,7.99h138.51c4.41,0,8-3.58,8-7.99V8
				C154.51,3.59,150.92,0,146.51,0 M32.67,40.38H59.4l16.06,60.36l15.88-60.36h26.8v88.48h-16.6V59.22l-17.56,69.65h-17.2
				l-17.5-69.65v69.65h-16.6V40.38z M106.87,1028.67c-7.77,8.07-18.14,12.1-31.14,12.1c-13.16,0-23.62-4.01-31.39-12.04
				c-7.77-8.03-11.65-19.08-11.65-33.17c0-9.02,1.35-16.57,4.04-22.69c2.01-4.5,4.76-8.55,8.24-12.13
				c3.48-3.58,7.29-6.24,11.43-7.96c5.51-2.34,11.87-3.5,19.08-3.5c13.03,0,23.47,4.04,31.29,12.13
				c7.83,8.09,11.74,19.34,11.74,33.74C118.52,1009.43,114.64,1020.6,106.87,1028.67 M90.88,552.23c-1.23-1.47-3.37-2.74-6.42-3.83
				c-2.09-0.73-6.86-2.01-14.3-3.86c-9.58-2.37-16.3-5.29-20.16-8.75c-5.43-4.87-8.15-10.81-8.15-17.81c0-4.5,1.28-8.72,3.83-12.64
				c2.56-3.92,6.24-6.91,11.04-8.96c4.81-2.05,10.61-3.08,17.41-3.08c11.1,0,19.46,2.43,25.08,7.3c5.61,4.87,8.56,11.36,8.84,19.5
				l-17.86,0.79c-0.77-4.55-2.41-7.82-4.92-9.81c-2.51-1.99-6.29-2.99-11.32-2.99c-5.19,0-9.25,1.07-12.2,3.2
				c-1.89,1.37-2.83,3.2-2.83,5.5c0,2.09,0.88,3.88,2.66,5.37c2.25,1.89,7.72,3.86,16.41,5.92c8.69,2.05,15.12,4.17,19.28,6.36
				c4.17,2.19,7.42,5.19,9.78,9c2.35,3.8,3.53,8.5,3.53,14.09c0,5.07-1.41,9.82-4.22,14.24c-2.82,4.43-6.8,7.72-11.95,9.87
				c-5.16,2.15-11.57,3.23-19.25,3.23c-11.19,0-19.78-2.59-25.77-7.76c-6-5.16-9.57-12.7-10.74-22.6l17.38-1.69
				c1.04,5.83,3.17,10.12,6.37,12.86c3.2,2.74,7.52,4.1,12.94,4.1c5.76,0,10.09-1.22,13.01-3.65c2.91-2.43,4.37-5.28,4.37-8.54
				C92.72,555.48,92.11,553.7,90.88,552.23 M105.45,376.91v14.91H61.03v24.07h49.43v14.91h-67.3v-88.48h65.6v14.97H61.03v19.61
				H105.45z M40.3,662.3v-14.96h70.31v14.96H84.43v73.51H66.56V662.3H40.3z M98,886.79l-12.92-19.25c-4.59-6.88-7.72-11.22-9.42-13
				c-1.69-1.79-3.48-3.02-5.37-3.68c-1.89-0.66-4.89-1-8.99-1h-3.62v36.94H39.82V798.3h37.6c9.46,0,16.33,0.8,20.61,2.38
				c4.29,1.59,7.72,4.41,10.3,8.49c2.57,4.06,3.86,8.71,3.86,13.94c0,6.64-1.95,12.12-5.85,16.45c-3.9,4.32-9.74,7.05-17.5,8.18
				c3.86,2.25,7.05,4.73,9.57,7.43c2.51,2.7,5.9,7.48,10.17,14.36l10.81,17.26H98z M102.41,279.84l-7.73-20.1H59.31l-7.3,20.1H33.06
				l34.46-88.48h18.89l35.43,88.48H102.41z"/>
			<polygon class="st1" points="64.81,244.83 88.95,244.83 76.76,212 			"/>
		</g>
	</g>
</g>
</svg>
