<svg id="Capa_1" data-name="Capa 1" xmlns="http://www.w3.org/2000/svg" viewBox="0 0 87.46 82.92"><defs><style>.cls-1{fill-rule:evenodd;}</style></defs><polygon class="cls-1" points="55.46 0.91 56.81 26.6 30.65 26.99 30.16 0 50.47 0.9 50.53 19.73 35.88 20.25 35.88 7.01 44.76 7.31 44.68 11.01 39.66 11.01 39.66 16.35 47.07 16.08 46.75 4.34 33.67 4.34 33.67 22.75 53.05 23.11 52.56 0.89 55.46 0.91"/><path d="M.88,43.62H3.66c0,.07,0,.16,0,.28,0,.28,0,.48,0,.58A1.94,1.94,0,0,0,5,46.4a17.57,17.57,0,0,0,5.36.54h6.08c3.15,0,5.2-.19,6.16-.59a2.21,2.21,0,0,0,1.44-2.25,1.93,1.93,0,0,0-1-1.9A10.4,10.4,0,0,0,19,41.68H9.15c-3.1,0-5.27-.3-6.53-.91a3.48,3.48,0,0,1,.27-6.3q2.15-.91,7.86-.91H16a58.49,58.49,0,0,1,6,.21,8.37,8.37,0,0,1,2.71.71A2.77,2.77,0,0,1,26,35.62a3.62,3.62,0,0,1,.39,1.77v.42H23.58v-.22a2,2,0,0,0-1.1-2,13.45,13.45,0,0,0-4.66-.5H9.89A14.83,14.83,0,0,0,5,35.65a1.91,1.91,0,0,0-1.26,1.92,2,2,0,0,0,1.23,2,15.52,15.52,0,0,0,5.1.53h8.35c1.82,0,3.19,0,4.11.13a8.73,8.73,0,0,1,2.21.46,3.27,3.27,0,0,1,1.71,1.24A4.42,4.42,0,0,1,27,44.2a3.43,3.43,0,0,1-2.08,3.4c-1.39.64-3.89,1-7.51,1H9.48a17.88,17.88,0,0,1-6.67-.89,3,3,0,0,1-2-3c0-.18,0-.5.05-.94a.71.71,0,0,1,0-.16Zm41.24,5a48.06,48.06,0,0,1-5.51-.23,9.08,9.08,0,0,1-2.9-.8,4,4,0,0,1-1.81-1.65,5.65,5.65,0,0,1-.55-2.7v-4a6.65,6.65,0,0,1,.54-2.92,3.9,3.9,0,0,1,1.78-1.69,9.15,9.15,0,0,1,2.93-.79,45.75,45.75,0,0,1,5.49-.24h7.76a45.86,45.86,0,0,1,5.49.24,9,9,0,0,1,2.92.79A3.87,3.87,0,0,1,60,36.25,5.88,5.88,0,0,1,60.59,39v4.09A5.85,5.85,0,0,1,60,45.88a3.87,3.87,0,0,1-1.77,1.66,8.94,8.94,0,0,1-2.88.8,48.22,48.22,0,0,1-5.53.23Zm9.1-13.4H40.71a18,18,0,0,0-3.46.25,4.21,4.21,0,0,0-1.91.81,2.37,2.37,0,0,0-.7,1,6.42,6.42,0,0,0-.2,1.89V43a6.29,6.29,0,0,0,.2,1.88,2.31,2.31,0,0,0,.7,1,4.33,4.33,0,0,0,1.91.82,19,19,0,0,0,3.46.24H51.22a19.09,19.09,0,0,0,3.47-.24,4.38,4.38,0,0,0,1.91-.82,2.23,2.23,0,0,0,.67-.94,5.39,5.39,0,0,0,.2-1.7v-4.3a5.39,5.39,0,0,0-.2-1.7,2.36,2.36,0,0,0-.67-.94,4.26,4.26,0,0,0-1.91-.81,18.06,18.06,0,0,0-3.47-.25ZM65.76,48.39V33.74h2.89v13H86.71v1.61Z"/><path d="M3.84,58.25h6.34L7,53.63,3.84,58.25ZM.74,60.87l5.45-8H7.75l5.47,8H12L10.75,59.1H3.27l-1.2,1.77Zm16.69,0v-8H18.6V60h7.31v.89Zm14.17,0H30.43v-8H37a6.81,6.81,0,0,1,3,.42,1.57,1.57,0,0,1,.72,1.5v1a1.56,1.56,0,0,1-.72,1.49,7,7,0,0,1-3,.41H31.6v3.17Zm0-4.08h5.7A3.59,3.59,0,0,0,39,56.53a1.19,1.19,0,0,0,.42-1.09v-.38c0-.56-.14-.92-.42-1.09a3.59,3.59,0,0,0-1.68-.26H31.6v3.08Zm14.52,1.46h6.34l-3.2-4.62-3.14,4.62ZM43,60.87l5.46-8H50l5.47,8H54.26L53,59.1H45.55l-1.2,1.77ZM63.6,61a12.9,12.9,0,0,1-2.11-.13,2.66,2.66,0,0,1-1.08-.44,1.81,1.81,0,0,1-.68-.9A4.28,4.28,0,0,1,59.51,58V55.83a4.92,4.92,0,0,1,.22-1.6,1.8,1.8,0,0,1,.68-.93,2.7,2.7,0,0,1,1.1-.44,13.17,13.17,0,0,1,2.08-.12h3a6.81,6.81,0,0,1,3.11.48A1.91,1.91,0,0,1,70.47,55a1.86,1.86,0,0,1,0,.26.91.91,0,0,1,0,.17H69.38v-.12A1.56,1.56,0,0,0,68.9,54a2.89,2.89,0,0,0-1.71-.38H63.12a4.5,4.5,0,0,0-1.3.14,1.29,1.29,0,0,0-1,1,5,5,0,0,0-.07,1V57.9a4.85,4.85,0,0,0,.07,1,1.36,1.36,0,0,0,.26.54,1.45,1.45,0,0,0,.72.44,4.88,4.88,0,0,0,1.3.14h4.06A3.14,3.14,0,0,0,69,59.67a1.55,1.55,0,0,0,.49-1.33v-.22h1.07a1.56,1.56,0,0,0,0,.2c0,.09,0,.16,0,.2a3.3,3.3,0,0,1-.18,1.2,1.62,1.62,0,0,1-.58.74,2.43,2.43,0,0,1-1.06.39,14.22,14.22,0,0,1-2.21.12Zm13.74-2.72h6.34l-3.19-4.62-3.15,4.62Zm-3.1,2.62,5.45-8h1.56l5.47,8H85.48L84.25,59.1H76.77l-1.2,1.77Z"/><path d="M6.67,82.3a1.56,1.56,0,0,0,1-.24A1.49,1.49,0,0,0,8,81v-.28H5.2v-.59H8.62V81a3.66,3.66,0,0,1-.1,1.07,1,1,0,0,1-.33.49,1.23,1.23,0,0,1-.61.27,7.5,7.5,0,0,1-1.26.07H4.41a6.84,6.84,0,0,1-1.2-.08,1.54,1.54,0,0,1-.63-.3,1.34,1.34,0,0,1-.39-.6,3.34,3.34,0,0,1-.12-1V79.49a3.85,3.85,0,0,1,.12-1.07,1.35,1.35,0,0,1,.39-.62,1.42,1.42,0,0,1,.63-.29,5.77,5.77,0,0,1,1.19-.09H6.32a3.32,3.32,0,0,1,1.78.33,1.36,1.36,0,0,1,.47,1.19v.17s0,.08,0,.11H8v-.08a1.11,1.11,0,0,0-.28-.87,1.43,1.43,0,0,0-1-.25H4.13a2.09,2.09,0,0,0-.74.09.83.83,0,0,0-.41.3.86.86,0,0,0-.15.35,3.81,3.81,0,0,0,0,.69v1.42a3.81,3.81,0,0,0,0,.69.93.93,0,0,0,.15.35.79.79,0,0,0,.41.3,2.39,2.39,0,0,0,.74.09Zm7.18-4.23H10.47v2.06h3.38a1.74,1.74,0,0,0,1-.18.86.86,0,0,0,.23-.72V79c0-.37-.07-.61-.23-.73a1.74,1.74,0,0,0-1-.18Zm-3.38,4.79H9.8V77.49h3.83a3.52,3.52,0,0,1,1.7.27,1.11,1.11,0,0,1,.42,1v.64a1.06,1.06,0,0,1-.21.73,1.34,1.34,0,0,1-.74.34,1,1,0,0,1,.67.31,1.16,1.16,0,0,1,.22.74v1.33H15v-1.2a.89.89,0,0,0-.23-.72,2,2,0,0,0-1.07-.19H10.47v2.11Zm8.7.06A6.61,6.61,0,0,1,18,82.84a1.55,1.55,0,0,1-.62-.29A1.32,1.32,0,0,1,17,82a3.22,3.22,0,0,1-.12-1V77.49h.69V81a3.09,3.09,0,0,0,0,.62,1,1,0,0,0,.14.33.79.79,0,0,0,.41.3,2.25,2.25,0,0,0,.72.09h2.21a2.37,2.37,0,0,0,.73-.09.81.81,0,0,0,.4-.3.71.71,0,0,0,.14-.33,3.09,3.09,0,0,0,0-.62V77.49h.69v3.44a3.46,3.46,0,0,1-.12,1,1.32,1.32,0,0,1-.37.62,1.51,1.51,0,0,1-.61.29,6.66,6.66,0,0,1-1.18.08ZM25,82.86h-.66V77.49H28.1a3.5,3.5,0,0,1,1.69.27,1.14,1.14,0,0,1,.41,1v.7a1.13,1.13,0,0,1-.41,1,3.48,3.48,0,0,1-1.69.27H25v2.12Zm0-2.73h3.26a1.76,1.76,0,0,0,1-.17c.16-.12.23-.36.23-.73V79c0-.37-.07-.62-.23-.73a1.74,1.74,0,0,0-1-.18H25v2.06Zm8.55,2.79a7.62,7.62,0,0,1-1.27-.08,1.66,1.66,0,0,1-.67-.29,1.32,1.32,0,0,1-.42-.61,3.3,3.3,0,0,1-.13-1V79.49a3.46,3.46,0,0,1,.13-1.07,1.24,1.24,0,0,1,.41-.62,1.57,1.57,0,0,1,.68-.29,6.5,6.5,0,0,1,1.26-.09h1.8a6.5,6.5,0,0,1,1.26.09,1.57,1.57,0,0,1,.68.29,1.27,1.27,0,0,1,.41.61,3.2,3.2,0,0,1,.13,1v1.49a3.2,3.2,0,0,1-.13,1,1.27,1.27,0,0,1-.41.61,1.66,1.66,0,0,1-.67.29,7.54,7.54,0,0,1-1.27.08Zm2.1-4.9H33.26a2.4,2.4,0,0,0-.8.09.88.88,0,0,0-.44.29,1.19,1.19,0,0,0-.17.36,3.81,3.81,0,0,0,0,.69v1.41a3.67,3.67,0,0,0,0,.69,1,1,0,0,0,.17.36.83.83,0,0,0,.44.3,2.7,2.7,0,0,0,.8.09h2.42a2.7,2.7,0,0,0,.8-.09.9.9,0,0,0,.45-.3.88.88,0,0,0,.15-.34,3.06,3.06,0,0,0,.05-.62V79.37a3,3,0,0,0-.05-.62.93.93,0,0,0-.15-.35,1,1,0,0,0-.45-.29,2.4,2.4,0,0,0-.8-.09Zm7.52,4.84h-.65V77.49h1l3.22,4.66L50,77.49h1v5.37H50.3V78.13L47,82.86h-.5l-3.3-4.73v4.73Zm9.75,0h-.67V77.49H53v5.37Zm3.58.06a6.68,6.68,0,0,1-1.2-.08,1.55,1.55,0,0,1-.62-.29,1.26,1.26,0,0,1-.39-.6,3.41,3.41,0,0,1-.12-1V79.49a3.85,3.85,0,0,1,.12-1.07,1.27,1.27,0,0,1,.39-.62,1.42,1.42,0,0,1,.63-.29,5.71,5.71,0,0,1,1.19-.09h1.69a3.3,3.3,0,0,1,1.77.33,1.35,1.35,0,0,1,.46,1.19v.17a.37.37,0,0,1,0,.11h-.61v-.08a1.15,1.15,0,0,0-.27-.87,1.46,1.46,0,0,0-1-.25H56.26a2.09,2.09,0,0,0-.74.09.79.79,0,0,0-.41.29,1,1,0,0,0-.15.36,3.51,3.51,0,0,0-.05.69v1.42a3.59,3.59,0,0,0,.05.69.93.93,0,0,0,.15.35.75.75,0,0,0,.41.3,2.35,2.35,0,0,0,.74.09h2.32a1.62,1.62,0,0,0,1-.24,1.14,1.14,0,0,0,.28-.89V81h.62v.27a2.52,2.52,0,0,1-.1.8,1,1,0,0,1-.33.49,1.2,1.2,0,0,1-.6.27,7.58,7.58,0,0,1-1.26.07Zm5.78-.06h-.67V77.49h.67V79.8h4.86V77.49h.67v5.37h-.67V80.39H62.31v2.47Zm6.85,0V77.49h5.28v.6H69.81v1.68h4.44v.6H69.81v1.89h4.63v.6Zm6.27,0V77.49h.66v4.78h4.18v.59Zm5.66,0V77.49h.67v4.78h4.17v.59Z"/><rect y="71.01" width="87.46" height="1.02"/></svg>