<svg id="Capa_1" data-name="Capa 1" xmlns="http://www.w3.org/2000/svg" viewBox="0 0 141.73 109.37"><path d="M41.41,109.24h-1L39,105.41a1.56,1.56,0,0,1-.31,0H37.9v3.81H37v-9h1.71c1.76,0,2.64.78,2.64,2.58a2.44,2.44,0,0,1-1.38,2.43Zm-2.68-4.61c1.2,0,1.64-.51,1.64-1.83s-.43-1.76-1.7-1.76H37.9v3.59Z"/><path d="M44.24,100.2h3.69v.85H45.19v3h2v.83h-2v3.54h2.9v.84H44.24Z"/><path d="M49.78,107l.88-.2c.27,1.12.71,1.75,1.6,1.75a1.15,1.15,0,0,0,1.25-1.27c0-1.85-3.41-2.74-3.41-5.15a1.92,1.92,0,0,1,2-2c1.26,0,1.86.87,2.2,2.18l-.87.23c-.27-1-.63-1.54-1.36-1.54A1,1,0,0,0,51,102c0,2,3.41,2.75,3.41,5.17a2.07,2.07,0,0,1-2.2,2.16C50.82,109.37,50.14,108.47,49.78,107Z"/><path d="M57.91,101.05H56.12v-.85h4.55v.85H58.88v8.19h-1Z"/><path d="M62.63,109.24h-.85l2.1-9.08h.92l2.1,9.08H66l-.58-2.65H63.22ZM64.81,104c-.18-.89-.34-1.56-.49-2.59h0c-.14,1.05-.3,1.69-.49,2.58l-.4,1.86h1.82Z"/><path d="M69.09,106.38V100.2H70v6c0,1.4.27,2.28,1.35,2.28s1.33-.85,1.33-2.25V100.2h.91v6.15c0,1.8-.53,3-2.25,3S69.09,108.14,69.09,106.38Z"/><path d="M81,109.24H80l-1.42-3.83a1.46,1.46,0,0,1-.3,0h-.82v3.81h-.94v-9h1.71c1.76,0,2.64.78,2.64,2.58a2.45,2.45,0,0,1-1.39,2.43Zm-2.67-4.61c1.19,0,1.64-.51,1.64-1.83s-.43-1.76-1.7-1.76h-.77v3.59Z"/><path d="M83.69,109.24h-.86l2.1-9.08h.92l2.1,9.08H87l-.57-2.65H84.27ZM85.86,104c-.18-.89-.34-1.56-.49-2.59h0c-.15,1.05-.31,1.69-.49,2.58l-.41,1.86h1.83Z"/><path d="M90.3,100.2h1.08l2.05,5.23c.27.71.5,1.3.66,1.78h0v-7h.81v9h-.83l-2.32-5.84c-.22-.53-.55-1.42-.64-1.69h0v7.53h-.8Z"/><path d="M99,101.05H97.22v-.85h4.55v.85H100v8.19H99Z"/><path d="M69.57,22.8c-2.72-6.57-10.44-5.11-9.7-8.11C60.8,10.91,68.83,15.14,69.57,22.8Z"/><path d="M69.7,22.8c2.73-6.57,10.45-5.11,9.71-8.11C78.48,10.91,70.45,15.14,69.7,22.8Z"/><path d="M69.38,19.85a9.4,9.4,0,0,0-1.44-3.74c-3-5.33-8.65-5.91-8.07-8.26C60.75,4.26,69.59,8.33,69.38,19.85Z"/><path d="M69.9,19.85a9.36,9.36,0,0,1,1.45-3.74c3-5.33,8.64-5.91,8.07-8.26C78.53,4.26,69.7,8.33,69.9,19.85Z"/><path d="M43.3,82.2,42,72.18H35.07l-1.57,10H28.42L36,35.88h5.61L48.83,82.2ZM38.66,46.87,35.75,67.52h5.53Z"/><path d="M68.28,82.2,59.83,58.76l-2.4-7.44V82.2H52.35V35.88h4.86l7.7,23.79,2.24,7.5V35.88h5.09V82.2Z"/><path d="M109.92,82.89c-5.83,0-9.57-4-9.57-9.67V44.85c0-5.56,3.74-9.67,9.57-9.67s9.58,4.11,9.58,9.67V73.22C119.5,78.86,115.76,82.89,109.92,82.89Zm4.27-38.73A4,4,0,0,0,109.92,40a3.89,3.89,0,0,0-4.18,4.18V73.92a3.85,3.85,0,0,0,4.18,4.17,3.92,3.92,0,0,0,4.27-4.17Z"/><path d="M132.23,82.89c-5.83,0-9.5-3.76-9.5-9.11V68.5H128v5.07c0,3.06,1.57,5.08,4.19,5.08,3,0,4.34-1.81,4.34-4.73,0-4.45-1.8-8.21-5.69-12.87-3.51-4.17-7.63-10.36-7.63-15.78,0-5.77,3.07-10.09,9.43-10.09,5.38,0,8.9,3.76,8.9,9.19v5.49h-5.09V44.78c0-3.2-1.27-5.07-4-5.07s-4,1.52-4,4.24c0,4.94,1.87,8.07,6.28,13.49,4.34,5.21,7,10.08,7,15.37C141.73,80.18,136.8,82.89,132.23,82.89Z"/><polygon points="18.56 35.88 12.39 59.97 6.54 35.88 0 35.88 0 82.2 4.79 82.2 4.79 47.15 6.17 53.38 10.53 70.45 11.7 70.45 13.4 70.45 14.56 70.45 18.88 53.38 20.31 47.15 20.31 82.2 25.09 82.2 25.09 35.88 18.56 35.88"/><path d="M93.9,82.2l-1.42-2.78c-1.12,2.29-3.58,3.47-6.65,3.47-4.78,0-8.67-3.4-8.67-9.51V44.75a9.13,9.13,0,0,1,9.57-9.52c5.83,0,9,3.89,9,9.52V51H90.84V43.91A3.76,3.76,0,0,0,86.73,40a3.87,3.87,0,0,0-4.19,4V74.14c0,2.36,1.28,4.24,4.19,4.24A4,4,0,0,0,91,74.14V63.58H87V59.2h9.19v23Z"/><path d="M71.82,3.6c0-2.43-1.33-3.27-2.11-3.28h-.29c-.76,0-2.09,1-2.09,3.29a7.8,7.8,0,0,0,.26,1.73c.67,2.65,1.83,8.11,2.07,9.88l0,.22,0-.21c.21-1.79,1.26-7.32,1.88-9.93A8.76,8.76,0,0,0,71.82,3.6Z"/></svg>