<svg id="Layer_1" data-name="Layer 1" xmlns="http://www.w3.org/2000/svg" viewBox="0 0 240.61 170.13"><defs><style>.cls-1{fill:#fff;}</style></defs><rect width="240.61" height="170.13"/><path class="cls-1" d="M163.85,79.68a3.17,3.17,0,0,0-2.94,1.61V74.48H159V90.57h1.87V82.94a2.69,2.69,0,0,1,2.56-2.72c1.53,0,2.27,1.17,2.27,3v7.37h1.88V83.44A3.64,3.64,0,0,0,163.85,79.68Z"/><rect class="cls-1" x="121.73" y="74.48" width="1.87" height="16.09"/><path class="cls-1" d="M104.46,79.68a3.2,3.2,0,0,0-2.94,1.61V80H99.65V90.58h1.87V82.94a2.69,2.69,0,0,1,2.56-2.72c1.53,0,2.28,1.17,2.28,3v7.37h1.87V83.45A3.64,3.64,0,0,0,104.46,79.68Z"/><path class="cls-1" d="M177.1,87.4c0,1.81-.83,3-2.4,3s-2.43-1.17-2.43-3V80h-1.88l0,6.55c0,2.58,1.49,4.35,4.25,4.35A4,4,0,0,0,179,86.57V80H177.1Z"/><path class="cls-1" d="M94.72,87.4c0,1.81-.83,3-2.4,3s-2.44-1.17-2.44-3V80H88l0,6.55c0,2.58,1.49,4.35,4.25,4.35a4,4,0,0,0,4.31-4.35V80H94.72Z"/><path class="cls-1" d="M129.85,79.84a3.29,3.29,0,0,0-3.37,2.24l.57.24a2.69,2.69,0,0,1,2.81-1.91,2,2,0,0,1,2.3,2.09c0,1.46-.87,1.7-2.52,2.19-2,.61-3.53,1-3.53,3.27,0,1.54,1.08,2.82,3.31,2.82A3.26,3.26,0,0,0,132,89.44v1.11h1.84V84A4,4,0,0,0,129.85,79.84Zm2.15,8a2.51,2.51,0,0,1-2.46,2.37c-1.24,0-1.58-1.12-1.58-2.37,0-1.57.45-2.2,1.93-2.62a5.82,5.82,0,0,0,2.11-.85Z"/><path class="cls-1" d="M114.7,79.66a3.76,3.76,0,0,0-4.07,4.09,3.83,3.83,0,0,0,2.1,3.65,1.83,1.83,0,0,0-1.39,1.89c0,1.73,1.77,2,3.58,2.17,2,.15,3,.2,3,1.72,0,1.28-1.46,2.07-3.12,2.07a4.38,4.38,0,0,1-2.9-.94l-.41.44a4.93,4.93,0,0,0,3.31,1.09c2.28,0,4.48-1.36,4.48-3.37,0-2.57-2.23-2.74-4.38-2.84-1.46-.06-2.81-.06-2.81-.81,0-1,1.22-1,2.64-1a3.77,3.77,0,0,0,4.12-4.08,4.07,4.07,0,0,0-1.32-3.21h2.09V80h-3A4.8,4.8,0,0,0,114.7,79.66Zm2.21,4.62c0,2.31-.75,3-2.21,3s-2.21-.69-2.21-3v-.93c0-2.44.75-3.15,2.21-3.15s2.21.71,2.21,3.15Z"/><path class="cls-1" d="M81.65,84.11c-1.45-.2-2.7-.51-2.7-1.74s1.27-1.94,2.68-1.94a3.19,3.19,0,0,1,2.25.73,1.08,1.08,0,0,0-.75,1,1.07,1.07,0,0,0,1.05,1,1.08,1.08,0,0,0,1.07-1c0-1-1.29-2.32-3.6-2.32a3.26,3.26,0,0,0-3.53,3.25c0,2.24,1.78,2.73,3.58,3,1.51.22,2.88.75,2.88,2.26,0,1.27-1.28,2-2.8,2a3.51,3.51,0,0,1-2.61-1.06l-.44.43a4.22,4.22,0,0,0,3,1.21c2.12,0,4-1.36,4-3.36C85.76,85.87,85.15,84.59,81.65,84.11Z"/><path class="cls-1" d="M139.56,84.11c-1.46-.2-2.71-.51-2.71-1.74s1.28-1.94,2.69-1.94a3.15,3.15,0,0,1,2.24.73,1.09,1.09,0,0,0-.74,1,1.07,1.07,0,0,0,1.05,1,1.08,1.08,0,0,0,1.07-1c0-1-1.3-2.32-3.6-2.32A3.27,3.27,0,0,0,136,83.12c0,2.24,1.78,2.73,3.58,3,1.52.22,2.89.63,2.89,2.14,0,1.28-1.29,2.13-2.8,2.13a3.51,3.51,0,0,1-2.61-1.06l-.45.43A4.24,4.24,0,0,0,139.69,91c2.12,0,4-1.36,4-3.36C143.66,85.87,143.05,84.59,139.56,84.11Z"/><path class="cls-1" d="M149,84.11c-1.45-.2-2.71-.51-2.71-1.74s1.28-1.94,2.69-1.94a3.15,3.15,0,0,1,2.24.73,1.09,1.09,0,0,0-.74,1,1.07,1.07,0,0,0,1,1,1.08,1.08,0,0,0,1.07-1c0-1-1.29-2.32-3.6-2.32a3.26,3.26,0,0,0-3.53,3.25c0,2.24,1.77,2.73,3.57,3,1.52.22,2.89.75,2.89,2.26,0,1.27-1.29,2-2.8,2a3.51,3.51,0,0,1-2.61-1.06l-.44.43A4.2,4.2,0,0,0,149.08,91c2.12,0,4-1.36,4-3.36C153.05,85.87,152.45,84.59,149,84.11Z"/><path class="cls-1" d="M186.83,90.08a2.28,2.28,0,0,1-.7.11c-1.53,0-1.93-1.06-1.93-2.88V80.54h2.49V80H184.2V76h-1.87v4h-1.21v.52h1.21v6.13c0,2.74,1.25,4.11,3.36,4.11a4.09,4.09,0,0,0,1.25-.18Z"/><path class="cls-1" d="M60,73.22A11.85,11.85,0,1,0,71.88,85.06,11.85,11.85,0,0,0,60,73.22Z"/></svg>