<svg xmlns="http://www.w3.org/2000/svg" viewBox="0 0 69.19 33"><defs><style>.cls-1{isolation:isolate;}.cls-2{fill:#fff;}.cls-3{fill:#ff8300;}.cls-4{fill:#b31983;}.cls-5{mix-blend-mode:multiply;}.cls-6{fill:#ea0029;}.cls-7{fill:#ffb71b;}</style></defs><g class="cls-1"><g id="Capa_1" data-name="Capa 1"><path class="cls-2" d="M55.62,10.36V6H49.86V0h-6V6H40.69v4.33h3.15V25.52c0,3,1.85,4.19,4.25,4.6a17.38,17.38,0,0,0,2.66.18l1.43,0c.28,0,.54,0,.82,0a6,6,0,0,0,.83-.09V25.52a3.47,3.47,0,0,1-.7.08l-.73,0c-1.27,0-1.94-.2-2.27-.83a3.83,3.83,0,0,1-.27-1.7V10.36Z"/><polygon class="cls-2" points="27.64 7.74 27.64 0 0 0 0 7.74 9.46 7.74 9.46 32.96 18.18 32.96 13.9 32.96 18.18 32.96 18.18 21.73 18.18 7.74 27.64 7.74"/><path class="cls-2" d="M27.93,24.22H22l3-8.29h.06ZM36.13,33l-2.8-7.44L29,13.94l-1.34-3.58H22.52L18.18,21.73,13.9,33H19l1.78-5h8.49L31,33Z"/><path class="cls-2" d="M61,24.22H55.14l3-8.29h.06ZM69.23,33l-8.49-22.6H55.62L48.93,27.91l-.84,2.21L47,33h5l1-2.67.83-2.36h8.5L64,33Z"/><path class="cls-3" d="M55.62,10.36V6H49.86V0h-6V6H40.69v4.33h3.15V25.52c0,3,1.85,4.19,4.25,4.6a16.2,16.2,0,0,0,2.66.18l1.43,0c.28,0,.54,0,.82,0a6,6,0,0,0,.83-.09V25.52a3.47,3.47,0,0,1-.7.08l-.73,0c-1.27,0-1.94-.2-2.27-.83a3.83,3.83,0,0,1-.27-1.7V10.36Z"/><polygon class="cls-4" points="27.64 7.74 27.64 0 0 0 0 7.74 9.46 7.74 9.46 32.96 18.18 32.96 13.9 32.96 18.18 32.96 18.18 21.73 18.18 7.74 27.64 7.74"/><path class="cls-4" d="M43.84,25.52V16.26c0-2.89-.71-5-3-5.9h-.13v0a8,8,0,0,0-2.63-.38,5.64,5.64,0,0,0-4.84,2.62h-.09V10.36H29V25.52h4.35V17.86c0-3.21,1-4.52,3.37-4.52,2,0,2.79,1.29,2.79,3.88v8.3Z"/><g class="cls-5"><path class="cls-6" d="M27.93,24.22H22l3-8.29h.06ZM36.13,33l-2.8-7.44L29,13.94l-1.34-3.58H22.52L18.18,21.73,13.9,33H19l1.78-5h8.49L31,33Z"/></g><g class="cls-5"><path class="cls-7" d="M61,24.23l-5.88,0,3-8.28h.06ZM69.19,33,60.78,10.36H55.65L48.91,27.87l-.85,2.21L47,32.93H52L53,30.28l.84-2.37h0l8.48,0L64,33Z"/></g></g></g></svg>