<svg id="Capa_1" data-name="Capa 1" xmlns="http://www.w3.org/2000/svg" viewBox="0 0 103.24 40.57"><defs><style>.cls-1{fill-rule:evenodd;}</style></defs><path class="cls-1" d="M49.25,12.75l8.37-5.43L49.19,11a2.31,2.31,0,0,1-1.51-.72L44.55,7.73l2.84,4.4A1.56,1.56,0,0,0,49.25,12.75Z"/><path class="cls-1" d="M39.71,23.93c-1.79-2.07-1.85-5.24-1-9,.5,7.32,4.87,9.64,11.21,7.61C55.1,20.92,59.62,15.46,61.81,10S62.38,2.3,60.3,0a5.65,5.65,0,0,1,4.22,5.58c0,9.55-5.22,16.29-13.64,20.07C47.15,27.08,42.92,27.62,39.71,23.93Z"/><path class="cls-1" d="M0,29.11a.24.24,0,0,1,0-.27.3.3,0,0,1,.26-.12H2.09a.57.57,0,0,1,.33.11.67.67,0,0,1,.22.26l.58,1.59a0,0,0,0,0,0,0,0,0,0,0,0,0,0l1.31,3.4,1.84-5.05a.67.67,0,0,1,.22-.26.56.56,0,0,1,.32-.11H8.57a.3.3,0,0,1,.26.12.26.26,0,0,1,0,.27L5.53,38,5.07,39a2.62,2.62,0,0,1-.57.78,2.5,2.5,0,0,1-.92.53,4.36,4.36,0,0,1-1.47.18H1.5a.48.48,0,0,1-.29-.1.37.37,0,0,1-.11-.27V38.75a.37.37,0,0,1,.11-.27.43.43,0,0,1,.29-.1h.35a2.15,2.15,0,0,0,.55-.06,1.15,1.15,0,0,0,.37-.17A.75.75,0,0,0,3,37.9a1.91,1.91,0,0,0,.16-.32l.09-.43-3.2-8Z"/><path class="cls-1" d="M9.37,33.05a5.86,5.86,0,0,1,.27-1.85,3.18,3.18,0,0,1,.85-1.35A3.75,3.75,0,0,1,12,29a7.64,7.64,0,0,1,2.24-.28,7.55,7.55,0,0,1,2.22.28,3.73,3.73,0,0,1,1.51.83,3.18,3.18,0,0,1,.85,1.35,6.47,6.47,0,0,1,0,3.7A3.06,3.06,0,0,1,18,36.25a3.74,3.74,0,0,1-1.51.84,7.9,7.9,0,0,1-2.22.28A8,8,0,0,1,12,37.09a3.77,3.77,0,0,1-1.5-.84,3.06,3.06,0,0,1-.85-1.35,5.86,5.86,0,0,1-.27-1.85Zm7.12.06a4.13,4.13,0,0,0-.1-1A1.67,1.67,0,0,0,16,31.4a1.59,1.59,0,0,0-.69-.48,2.91,2.91,0,0,0-1.1-.18,2.93,2.93,0,0,0-1.11.18,1.59,1.59,0,0,0-.69.48,1.66,1.66,0,0,0-.36.74,4.71,4.71,0,0,0,0,1.93,1.73,1.73,0,0,0,.36.76,1.79,1.79,0,0,0,.69.49,2.93,2.93,0,0,0,1.11.18,2.91,2.91,0,0,0,1.1-.18,1.79,1.79,0,0,0,.69-.49,1.75,1.75,0,0,0,.37-.76A4.1,4.1,0,0,0,16.49,33.11Z"/><path class="cls-1" d="M27.28,28.74a.39.39,0,0,1,.29.11.34.34,0,0,1,.12.26v4.07a8.66,8.66,0,0,1-.18,1.89,2.7,2.7,0,0,1-.62,1.28,2.6,2.6,0,0,1-1.24.74,7.38,7.38,0,0,1-2,.23,7.54,7.54,0,0,1-2-.23,2.68,2.68,0,0,1-1.25-.74,2.8,2.8,0,0,1-.63-1.28,8.5,8.5,0,0,1-.18-1.88V29.11a.34.34,0,0,1,.12-.26.38.38,0,0,1,.29-.11h1.55a.39.39,0,0,1,.29.11.32.32,0,0,1,.13.26V30.6l0,0v2.62c0,.3,0,.57,0,.82a1.38,1.38,0,0,0,.19.64,1.11,1.11,0,0,0,.52.42,2.79,2.79,0,0,0,1,.14,2.73,2.73,0,0,0,1-.14,1.08,1.08,0,0,0,.51-.42,1.46,1.46,0,0,0,.2-.65c0-.25,0-.52,0-.82V29.11a.34.34,0,0,1,.12-.26.38.38,0,0,1,.29-.11h1.5Z"/><path class="cls-1" d="M33.3,28.74a.47.47,0,0,1,.27.08.32.32,0,0,1,.14.29v1.58a.34.34,0,0,1-.12.26.38.38,0,0,1-.29.11h-.55a4.09,4.09,0,0,0-1,.18,1.57,1.57,0,0,0-.62.39,1.26,1.26,0,0,0-.3.6,3.49,3.49,0,0,0-.08.83v4a.34.34,0,0,1-.12.27.41.41,0,0,1-.29.1H28.59a.39.39,0,0,1-.29-.1.34.34,0,0,1-.12-.27V29.11a.34.34,0,0,1,.12-.26.36.36,0,0,1,.29-.11h1.73a.4.4,0,0,1,.3.11.34.34,0,0,1,.12.26v.54a1.26,1.26,0,0,1,.44-.45,3.26,3.26,0,0,1,.66-.27,4.23,4.23,0,0,1,.74-.13c.25,0,.48,0,.7-.05h0Z"/><path class="cls-1" d="M84.13,29.19a.32.32,0,0,1,.12-.26.44.44,0,0,1,.3-.11h1.72l.29,0q.12,0,.12.18v.18a5.6,5.6,0,0,1,1.11-.3,8.53,8.53,0,0,1,1.4-.1,7.83,7.83,0,0,1,2.2.27,3.62,3.62,0,0,1,1.46.82,3,3,0,0,1,.82,1.33,6.1,6.1,0,0,1,.26,1.84,6,6,0,0,1-.26,1.83,3.32,3.32,0,0,1-.84,1.34,3.52,3.52,0,0,1-1.49.82,7.4,7.4,0,0,1-2.2.28,8.15,8.15,0,0,1-1.37-.1A5.33,5.33,0,0,1,86.69,37v3.27h0a.38.38,0,0,1-.4.34H84.55a.41.41,0,0,1-.29-.1.38.38,0,0,1-.13-.24v0h0v-11Zm5,1.53a3,3,0,0,0-1.08.16,1.73,1.73,0,0,0-.69.45,1.65,1.65,0,0,0-.37.72,3.9,3.9,0,0,0-.1,1,4.07,4.07,0,0,0,.1,1,1.69,1.69,0,0,0,.37.73,1.59,1.59,0,0,0,.69.48,2.8,2.8,0,0,0,1.08.18,2.91,2.91,0,0,0,1.1-.18,1.62,1.62,0,0,0,.68-.48,1.79,1.79,0,0,0,.36-.73,4.07,4.07,0,0,0,.1-1,3.9,3.9,0,0,0-.1-1,1.57,1.57,0,0,0-1-1.17A3.16,3.16,0,0,0,89.14,30.72Z"/><path class="cls-1" d="M99.17,28.74a6.83,6.83,0,0,1,1.69.18,3.37,3.37,0,0,1,1.16.52,2.48,2.48,0,0,1,.71.81,3.77,3.77,0,0,1,.37,1,6.71,6.71,0,0,1,.13,1.22c0,.43,0,.88,0,1.34H96.87a2.38,2.38,0,0,0,.2.67,1.31,1.31,0,0,0,.4.53,1.81,1.81,0,0,0,.68.34,3.73,3.73,0,0,0,1,.12,7,7,0,0,0,.88,0,3.28,3.28,0,0,0,.63-.14,2.78,2.78,0,0,0,.49-.22c.15-.09.31-.19.48-.31a.43.43,0,0,1,.29-.09.28.28,0,0,1,.24.14l.72.93a1.51,1.51,0,0,1,.2.29c0,.06,0,.15-.21.26l-.05,0a7.61,7.61,0,0,1-.81.49,4.16,4.16,0,0,1-.79.3,5,5,0,0,1-.92.17c-.32,0-.71,0-1.15,0A7,7,0,0,1,96.77,37a3.57,3.57,0,0,1-1.45-.93,3.31,3.31,0,0,1-.71-1.38,7.3,7.3,0,0,1,0-3.31A3.18,3.18,0,0,1,95.33,30a3.48,3.48,0,0,1,1.45-.94,6.67,6.67,0,0,1,2.39-.35Zm1.76,3.47a4.17,4.17,0,0,0-.1-.66,1.23,1.23,0,0,0-.27-.52,1.36,1.36,0,0,0-.54-.34,3,3,0,0,0-.94-.12,3.48,3.48,0,0,0-1,.12,1.88,1.88,0,0,0-.65.32,1.35,1.35,0,0,0-.39.52,3.06,3.06,0,0,0-.18.68Z"/><path class="cls-1" d="M48.72,28.7a.3.3,0,0,1,.26.12.22.22,0,0,1,0,.26l-2.73,7.81a.64.64,0,0,1-.27.34.83.83,0,0,1-.31.08H44a1,1,0,0,1-.35-.08.56.56,0,0,1-.29-.34L41.53,32.2l-1.71,4.69a.64.64,0,0,1-.27.34.75.75,0,0,1-.31.08h-1.7a.93.93,0,0,1-.35-.08.56.56,0,0,1-.29-.34L34,29.11h0v0a.26.26,0,0,1,0-.26.31.31,0,0,1,.26-.12H36a.62.62,0,0,1,.33.11.54.54,0,0,1,.22.26l.58,1.51a.13.13,0,0,1,0,.06l1.2,3.59,1.83-5.16a.6.6,0,0,1,.22-.26.62.62,0,0,1,.34-.11h1.6a.56.56,0,0,1,.32.11.54.54,0,0,1,.22.26l.59,1.51s0,0,0,0v0l1.31,3.59,1.72-5.16a.54.54,0,0,1,.22-.26.56.56,0,0,1,.32-.11h1.64Z"/><path class="cls-1" d="M58,37a.88.88,0,0,1,0,.26.2.2,0,0,1-.18.09v0H57.1a1.74,1.74,0,0,1-1-.24,1.84,1.84,0,0,1-.58-.71,1.15,1.15,0,0,1-.37.53,1.71,1.71,0,0,1-.61.27,4,4,0,0,1-.84.1c-.32,0-.68,0-1.08,0a4.85,4.85,0,0,1-1.56-.2,2.24,2.24,0,0,1-.94-.54,1.84,1.84,0,0,1-.47-.81,3.63,3.63,0,0,1-.13-1,2.88,2.88,0,0,1,.32-1.43,2.06,2.06,0,0,1,1-.88A4.93,4.93,0,0,1,52.44,32a20.36,20.36,0,0,1,2.38-.12h.33a1.88,1.88,0,0,0-.06-.49.62.62,0,0,0-.22-.35,1.3,1.3,0,0,0-.5-.21,4.07,4.07,0,0,0-.86-.07,4.16,4.16,0,0,0-1,.1,6.68,6.68,0,0,0-.82.25,2.76,2.76,0,0,0-.39.18l-.35.19-.25.15s0,0-.06.05h0l0,0h0a.21.21,0,0,1-.17,0,.3.3,0,0,1-.16-.16l-.64-1.19a.45.45,0,0,1-.1-.25.28.28,0,0,1,.13-.21l.11-.07a5.6,5.6,0,0,1,1.25-.66,7.62,7.62,0,0,1,1.37-.34,8,8,0,0,1,1.34-.11,6.86,6.86,0,0,1,1.81.19,2.31,2.31,0,0,1,1.09.57,2,2,0,0,1,.54,1,7.08,7.08,0,0,1,.14,1.5V35a.63.63,0,0,0,0,.23.2.2,0,0,0,.13.09.88.88,0,0,0,.26,0h0a.27.27,0,0,1,.16.08.37.37,0,0,1,0,.22V37Zm-2.83-3.53H55c-.73,0-1.31,0-1.73,0a4.42,4.42,0,0,0-1,.18.71.71,0,0,0-.44.35,1.23,1.23,0,0,0-.1.55,1.06,1.06,0,0,0,.3.77,1.54,1.54,0,0,0,1.09.3,2.21,2.21,0,0,0,1.58-.49,1.87,1.87,0,0,0,.49-1.4Z"/><path class="cls-1" d="M63.75,35.35a.43.43,0,0,1,.29.1.37.37,0,0,1,.11.27V37a.29.29,0,0,1-.1.23.42.42,0,0,1-.25.12l0,0H62.38a4.89,4.89,0,0,1-1.29-.19,2,2,0,0,1-.82-.5,1.79,1.79,0,0,1-.43-.82,4.39,4.39,0,0,1-.13-1.17V30h-1a.37.37,0,0,1-.27-.12.44.44,0,0,1-.11-.29v-1.2a.44.44,0,0,1,.11-.29.34.34,0,0,1,.26-.11h1.15v-2.1a.35.35,0,0,1,.11-.26.44.44,0,0,1,.29-.11h1.44a.4.4,0,0,1,.29.11.32.32,0,0,1,.12.26v2.1h1.65a.34.34,0,0,1,.26.12.44.44,0,0,1,.11.29v1.19a.44.44,0,0,1-.11.29.34.34,0,0,1-.26.12H62.07v4.39c0,.15,0,.28,0,.39a.67.67,0,0,0,.1.3.61.61,0,0,0,.24.21,1.17,1.17,0,0,0,.44.11Z"/><path class="cls-1" d="M70.25,30.84a4.48,4.48,0,0,0-1.18.16,2.94,2.94,0,0,0-.94.46,2.11,2.11,0,0,0-.62.71,2,2,0,0,0,0,1.85,2.11,2.11,0,0,0,.62.71,3.18,3.18,0,0,0,.94.47,4.1,4.1,0,0,0,1.18.16h0c.24,0,.36.15.36.37V37a.39.39,0,0,1-.36.41h-.08a8.3,8.3,0,0,1-2.2-.3,4.87,4.87,0,0,1-1.69-.84,3.69,3.69,0,0,1-1.07-1.35A4.16,4.16,0,0,1,64.83,33a4.23,4.23,0,0,1,.38-1.82,3.79,3.79,0,0,1,1.09-1.33A5,5,0,0,1,68,29a8.23,8.23,0,0,1,2.24-.28.37.37,0,0,1,.25.09.29.29,0,0,1,.11.22v1.38a.5.5,0,0,1-.08.29A.32.32,0,0,1,70.25,30.84Z"/><path class="cls-1" d="M79.88,35.41V37a.35.35,0,0,1-.12.26.46.46,0,0,1-.3.11H77.88a.44.44,0,0,1-.29-.11.38.38,0,0,1-.11-.26V32.8a2.43,2.43,0,0,0-.11-.73,1.35,1.35,0,0,0-.34-.58,1.67,1.67,0,0,0-.62-.38,2.88,2.88,0,0,0-.94-.13,1.93,1.93,0,0,0-1,.22,1.69,1.69,0,0,0-.58.54,2,2,0,0,0-.28.67c0,.24-.08.44-.1.62v2.32s0,0,0,0V37a.33.33,0,0,1-.13.26.49.49,0,0,1-.31.11H71.52a.44.44,0,0,1-.3-.11A.35.35,0,0,1,71.1,37V25.78a.35.35,0,0,1,.12-.26.39.39,0,0,1,.28-.11h1.59a.56.56,0,0,1,.3.07.33.33,0,0,1,.12.3v1.63s0,0,0,0v1.85a1.68,1.68,0,0,1,.93-.44,10,10,0,0,1,1.9-.14A4.7,4.7,0,0,1,78,29a2.73,2.73,0,0,1,1.09.74,2.81,2.81,0,0,1,.6,1.15,5.7,5.7,0,0,1,.19,1.48V35.4Z"/><path class="cls-1" d="M80.49,35.12a.35.35,0,0,1,.13-.26.39.39,0,0,1,.29-.11h1.92c.33,0,.5.12.5.37V37a.37.37,0,0,1-.1.25.36.36,0,0,1-.27.1h-2a.43.43,0,0,1-.29-.1.33.33,0,0,1-.13-.25Z"/></svg>