<?xml version="1.0" encoding="utf-8"?>
<!-- Generator: Adobe Illustrator 21.1.0, SVG Export Plug-In . SVG Version: 6.00 Build 0)  -->
<svg version="1.1" id="Capa_1" xmlns="http://www.w3.org/2000/svg" xmlns:xlink="http://www.w3.org/1999/xlink" x="0px" y="0px"
	 width="56.4px" height="89.6px" viewBox="0 0 56.4 89.6" enable-background="new 0 0 56.4 89.6" xml:space="preserve">
<linearGradient id="SVGID_2_" gradientUnits="userSpaceOnUse" x1="19.3638" y1="43.317" x2="19.3638" y2="67.0734">
	<stop  offset="0" style="stop-color:#B73141"/>
	<stop  offset="3.621650e-02" style="stop-color:#AB3044"/>
	<stop  offset="0.1595" style="stop-color:#892C4C"/>
	<stop  offset="0.2908" style="stop-color:#6C2953"/>
	<stop  offset="0.4305" style="stop-color:#562758"/>
	<stop  offset="0.5827" style="stop-color:#46255C"/>
	<stop  offset="0.7566" style="stop-color:#3D245E"/>
	<stop  offset="1" style="stop-color:#3A245F"/>
</linearGradient>
<path fill="url(#SVGID_2_)" d="M35.7,47.5c-0.4,0-0.8,0-1.3,0c-0.5,0-0.9,0-1.4,0c-1.8,0.1-3.6,0.4-5.3,0.8
	c-0.4,0.1-0.9,0.2-1.3,0.3c-0.2-1.6-2.2-5.3-3.9-5.3c-0.3,0-0.6,0.1-0.8,0.3c-1.7,1.5,1.3,4.3,3.2,5.4c-1.6,0.5-3.2,1.2-4.8,1.9
	c0-1.3-1.8-4.5-3.3-4.5c-0.2,0-0.5,0.1-0.7,0.3c-1.6,1.4,1.5,4.1,3.1,4.7c-0.5,0.2-1,0.5-1.4,0.7c-1.2,0.7-2.4,1.4-3.5,2.1
	c-0.1-1.4-1.6-4.7-3.1-4.7c-0.2,0-0.5,0.1-0.7,0.3c-1.5,1.3,1.7,4.3,3.1,4.8c-1.4,1-2.8,2-4.1,3.2c-0.1-0.4-0.3-0.8-0.5-1.2
	c-0.6-1-1.5-2-2.2-2c-0.2,0-0.4,0.1-0.5,0.2C4.8,56,7.3,58,8.7,58.5c-0.9,0.8-1.8,1.6-2.6,2.5c-0.1-0.2-0.2-0.4-0.3-0.7
	c-0.4-0.8-1-1.6-1.5-1.6c-0.1,0-0.2,0-0.3,0.1c-1.1,0.7,0.2,1.9,1.4,2.8c-0.6,0.6-1.2,1.2-1.7,1.9c-0.1-0.2-0.2-0.5-0.3-0.9
	c-0.3-0.6-0.7-1.1-1.1-1.1c-0.1,0-0.2,0-0.3,0.1c-0.8,0.6,1,1.7,1.5,2.1c-0.4,0.4-0.7,0.8-1.1,1.3c-0.7,0.4-2.7,1.4-1.9,2.1
	c0.4,0.4,1.1-0.3,1.6-1c0.3-0.5,0.5-0.9,0.5-1.1c0.4-0.4,0.8-0.7,1.1-1.1c0.2,0.7,0.6,2.7,1.4,2.2c0.8-0.5-0.8-2-1.3-2.3
	c0.6-0.6,1.3-1.2,1.9-1.8c0,0,0.1,0,0.1,0c0,0.1,0,0.1,0,0.2c0.2,1.6,0.7,3.5,1.9,2.8c0.9-0.6-1-3.1-1.7-3.2c0,0,0-0.1,0-0.1
	c1-0.9,2.1-1.8,3.1-2.7c-0.5,1.3,0.2,5,2,4.3c1.6-0.6-0.7-4.5-1.7-4.6c1.4-1.1,2.8-2.1,4.3-3.1c0,0.5,0.1,1.2,0.3,1.8
	c0.5,1.6,1.4,3.2,2.6,2.7c2-0.8-0.5-4.1-1.9-5.2c1.1-0.7,2.2-1.4,3.3-2c0.5-0.3,0.9-0.5,1.4-0.7c-0.4,1.5,0.6,6,2.7,5.2
	c1.9-0.8-0.7-4.9-2-5.5c1.9-0.9,3.8-1.7,5.8-2.4c-0.7,1.3,0.6,7.5,3.1,6.5c2.4-1-1-6-2.5-6.7c0.4-0.1,0.7-0.2,1.1-0.3
	c1.7-0.5,3.4-0.8,5.2-1c1.7-0.2,3.5-0.3,5.3-0.1C37.4,47.6,36.6,47.5,35.7,47.5z"/>
<g>
	<defs>
		<path id="SVGID_27_" d="M31.4,66.7c-2.4,0.2-4.5,4.4-4.1,8.4c0.3,3.8,5.5,12.9,6.1,13.9h0.1c0.4-1,4.2-10,3.8-13.8
			C36.9,71.2,33.4,66.7,31.4,66.7C31.4,66.7,31.4,66.7,31.4,66.7"/>
	</defs>
	<linearGradient id="SVGID_3_" gradientUnits="userSpaceOnUse" x1="32.2471" y1="66.6565" x2="32.2471" y2="89">
		<stop  offset="0" style="stop-color:#F7E831"/>
		<stop  offset="0.1656" style="stop-color:#F0B72E"/>
		<stop  offset="0.5107" style="stop-color:#E15429"/>
		<stop  offset="0.6657" style="stop-color:#DB2D27"/>
	</linearGradient>
	<use xlink:href="#SVGID_27_"  overflow="visible" fill="url(#SVGID_3_)"/>
	<clipPath id="SVGID_4_">
		<use xlink:href="#SVGID_27_"  overflow="visible"/>
	</clipPath>
</g>
<linearGradient id="SVGID_5_" gradientUnits="userSpaceOnUse" x1="50.4115" y1="37.1353" x2="50.4115" y2="56.0916">
	<stop  offset="0" style="stop-color:#F7E831"/>
	<stop  offset="5.123741e-02" style="stop-color:#F8E527"/>
	<stop  offset="0.2638" style="stop-color:#FCD800"/>
	<stop  offset="0.4721" style="stop-color:#F4A215"/>
	<stop  offset="0.6571" style="stop-color:#ED7825"/>
	<stop  offset="0.7518" style="stop-color:#EB682B"/>
</linearGradient>
<path fill="url(#SVGID_5_)" d="M46.8,42.2c-1.6,3.4-1.5,13.9-1.5,13.9s7.9-5.9,9.4-9.3c1.6-3.4,0.8-8.8-0.8-9.5
	c-0.3-0.1-0.6-0.2-1-0.2C50.9,37.1,48.1,39.3,46.8,42.2"/>
<g>
	<path fill="#E4352A" d="M29.4,30.3c-2.4,0.2-4.8,0.4-7.2,0.6c2.4-0.4,4.8-0.6,7.2-0.8c2.1-0.2,4.3-0.4,6.4-0.5c0,0,0-0.1,0-0.1
		c-0.2-2.4-4.5-4.6-8.7-4.2c-4.1,0.4-14.4,6.4-14.4,6.4s10.2,4.3,14.3,3.9c4-0.4,8.7-4,8.7-6C33.7,29.9,31.5,30.1,29.4,30.3z"/>
	<path fill="#BED153" d="M22.2,30.9c2.4-0.1,4.8-0.3,7.2-0.6c2.1-0.2,4.3-0.5,6.4-0.7c0.3,0,0.5-0.1,0.8-0.1c-0.3,0-0.5,0-0.8,0.1
		c-2.1,0.1-4.3,0.3-6.4,0.5C27,30.3,24.6,30.5,22.2,30.9z"/>
</g>
<g>
	<path fill="#EB682B" d="M42.1,9.6C40.7,6.5,33.6,0,33.6,0s-0.9,8.9,0.4,12c1.3,3,5.2,5.8,6.7,5.3c-1.5-3.4-3-6.8-4.3-10.2
		c1.6,3.4,3,6.8,4.3,10.2c0,0,0.1,0,0.1,0C42.7,16.6,43.4,12.7,42.1,9.6z"/>
	<path fill="#BED153" d="M40.8,17.4c0.1,0.2,0.2,0.4,0.3,0.6C41,17.8,40.9,17.6,40.8,17.4c-1.3-3.5-2.7-6.9-4.3-10.2
		C37.8,10.6,39.2,14,40.8,17.4z"/>
</g>
</svg>
