<?xml version="1.0" encoding="utf-8"?>
<!-- Generator: Adobe Illustrator 21.1.0, SVG Export Plug-In . SVG Version: 6.00 Build 0)  -->
<svg version="1.1" id="Capa_1" xmlns="http://www.w3.org/2000/svg" xmlns:xlink="http://www.w3.org/1999/xlink" x="0px" y="0px"
	 width="56.4px" height="89.6px" viewBox="0 0 56.4 89.6" enable-background="new 0 0 56.4 89.6" xml:space="preserve">
<linearGradient id="SVGID_2_" gradientUnits="userSpaceOnUse" x1="1014.9034" y1="43.8465" x2="1014.9034" y2="67.6029" gradientTransform="matrix(-1 0 0 1 1051.6094 0)">
	<stop  offset="0" style="stop-color:#B73141"/>
	<stop  offset="3.621650e-02" style="stop-color:#AB3044"/>
	<stop  offset="0.1595" style="stop-color:#892C4C"/>
	<stop  offset="0.2908" style="stop-color:#6C2953"/>
	<stop  offset="0.4305" style="stop-color:#562758"/>
	<stop  offset="0.5827" style="stop-color:#46255C"/>
	<stop  offset="0.7566" style="stop-color:#3D245E"/>
	<stop  offset="1" style="stop-color:#3A245F"/>
</linearGradient>
<path fill="url(#SVGID_2_)" d="M53.6,65.4c-0.4-0.4-0.7-0.9-1.1-1.3c0.6-0.4,2.3-1.4,1.5-2.1C54,62,53.9,62,53.8,62
	c-0.4,0-0.8,0.6-1.1,1.1c-0.2,0.3-0.3,0.6-0.3,0.9c-0.6-0.6-1.1-1.3-1.7-1.9c1.2-0.9,2.5-2.1,1.4-2.8c-0.1-0.1-0.2-0.1-0.3-0.1
	c-0.5,0-1.1,0.8-1.5,1.6c-0.1,0.2-0.2,0.5-0.3,0.7c-0.9-0.9-1.7-1.7-2.6-2.5c1.5-0.5,3.9-2.5,2.6-3.6c-0.2-0.1-0.3-0.2-0.5-0.2
	c-0.8,0-1.7,1-2.2,2c-0.3,0.4-0.5,0.9-0.5,1.2c-1.3-1.1-2.7-2.2-4.1-3.2c1.5-0.6,4.6-3.6,3.1-4.8c-0.2-0.2-0.5-0.3-0.7-0.3
	c-1.5,0-2.9,3.3-3.1,4.7c-1.1-0.8-2.3-1.5-3.5-2.1c-0.5-0.3-1-0.5-1.4-0.7c1.6-0.5,4.7-3.3,3.1-4.7C39.8,47,39.6,47,39.3,47
	c-1.5,0-3.3,3.2-3.3,4.5c-1.6-0.7-3.2-1.4-4.8-1.9c2-1,4.9-3.9,3.2-5.4c-0.3-0.2-0.5-0.3-0.8-0.3c-1.7,0-3.7,3.6-3.9,5.3
	c-0.4-0.1-0.9-0.2-1.3-0.3c-1.7-0.4-3.5-0.7-5.3-0.8c-0.5,0-0.9,0-1.4,0c-0.4,0-0.8,0-1.3,0c-0.9,0-1.8,0.1-2.6,0.3
	c1.8-0.2,3.5-0.1,5.3,0.1c1.7,0.2,3.5,0.6,5.2,1c0.4,0.1,0.7,0.2,1.1,0.3c-1.5,0.6-4.9,5.7-2.5,6.7c2.6,1,3.8-5.1,3.1-6.5
	c2,0.6,3.9,1.4,5.8,2.4c-1.3,0.6-3.9,4.8-2,5.5c2,0.8,3.1-3.7,2.7-5.2c0.5,0.2,1,0.5,1.4,0.7c1.1,0.6,2.2,1.3,3.3,2
	c-1.4,1.1-3.9,4.4-1.9,5.2c1.2,0.5,2.1-1.1,2.6-2.7c0.2-0.7,0.3-1.3,0.3-1.8c1.5,1,2.9,2,4.3,3.1c-0.9,0.1-3.2,3.9-1.7,4.6
	c1.8,0.7,2.5-3,2-4.3c1.1,0.9,2.1,1.8,3.1,2.7c0,0,0,0.1,0,0.1c-0.6,0.1-2.6,2.6-1.7,3.2c1.2,0.7,1.7-1.3,1.9-2.8c0-0.1,0-0.1,0-0.2
	c0,0,0.1,0,0.1,0c0.7,0.6,1.3,1.2,1.9,1.8c-0.5,0.2-2.1,1.8-1.3,2.3c0.9,0.5,1.3-1.5,1.4-2.2c0.4,0.4,0.8,0.7,1.1,1.1
	c0,0.1,0.2,0.6,0.5,1.1c0.5,0.7,1.2,1.4,1.6,1C56.3,66.8,54.3,65.8,53.6,65.4z"/>
<g>
	<defs>
		<path id="SVGID_32_" d="M24.7,67.2c2.4,0.2,4.5,4.4,4.1,8.4c-0.3,3.8-5.5,12.9-6.1,13.9h-0.1c-0.4-1-4.2-10-3.8-13.8
			C19.2,71.8,22.7,67.2,24.7,67.2C24.6,67.2,24.7,67.2,24.7,67.2"/>
	</defs>
	
		<linearGradient id="SVGID_3_" gradientUnits="userSpaceOnUse" x1="1027.7867" y1="67.186" x2="1027.7867" y2="89.5295" gradientTransform="matrix(-1 0 0 1 1051.6094 0)">
		<stop  offset="0" style="stop-color:#F7E831"/>
		<stop  offset="0.1656" style="stop-color:#F0B72E"/>
		<stop  offset="0.5107" style="stop-color:#E15429"/>
		<stop  offset="0.6657" style="stop-color:#DB2D27"/>
	</linearGradient>
	<use xlink:href="#SVGID_32_"  overflow="visible" fill="url(#SVGID_3_)"/>
	<clipPath id="SVGID_4_">
		<use xlink:href="#SVGID_32_"  overflow="visible"/>
	</clipPath>
</g>
<linearGradient id="SVGID_5_" gradientUnits="userSpaceOnUse" x1="1045.9512" y1="37.6648" x2="1045.9512" y2="56.6211" gradientTransform="matrix(-1 0 0 1 1051.6094 0)">
	<stop  offset="0" style="stop-color:#F7E831"/>
	<stop  offset="5.123741e-02" style="stop-color:#F8E527"/>
	<stop  offset="0.2638" style="stop-color:#FCD800"/>
	<stop  offset="0.4721" style="stop-color:#F4A215"/>
	<stop  offset="0.6571" style="stop-color:#ED7825"/>
	<stop  offset="0.7518" style="stop-color:#EB682B"/>
</linearGradient>
<path fill="url(#SVGID_5_)" d="M9.3,42.7c1.6,3.4,1.5,13.9,1.5,13.9s-7.9-5.9-9.4-9.3c-1.6-3.4-0.8-8.8,0.8-9.5
	c0.3-0.1,0.6-0.2,1-0.2C5.1,37.7,7.9,39.8,9.3,42.7"/>
<g>
	<path fill="#E4352A" d="M29,25.8c-4.2-0.4-8.5,1.7-8.7,4.2c0,0,0,0.1,0,0.1c2.1,0.1,4.3,0.3,6.4,0.5c2.4,0.3,4.8,0.5,7.2,0.8
		c-2.4-0.1-4.8-0.3-7.2-0.6c-2.1-0.2-4.3-0.5-6.4-0.7c0.1,2,4.7,5.6,8.7,6c4.2,0.4,14.3-3.9,14.3-3.9S33.1,26.2,29,25.8z"/>
	<path fill="#BED153" d="M33.9,31.4c-2.4-0.4-4.8-0.6-7.2-0.8c-2.1-0.2-4.3-0.4-6.4-0.5c-0.3,0-0.5,0-0.8-0.1c0.3,0,0.5,0.1,0.8,0.1
		c2.1,0.3,4.3,0.5,6.4,0.7C29.1,31.1,31.5,31.3,33.9,31.4z"/>
</g>
<g>
	<path fill="#EB682B" d="M22.4,0.5c0,0-7.1,6.5-8.4,9.6c-1.3,3.1-0.7,7,1.1,7.7c0,0,0.1,0,0.1,0c1.3-3.5,2.7-6.9,4.3-10.2
		c-1.3,3.5-2.7,6.9-4.3,10.2c1.5,0.4,5.4-2.3,6.7-5.3C23.3,9.4,22.4,0.5,22.4,0.5z"/>
	<path fill="#BED153" d="M15.3,17.9c-0.1,0.2-0.2,0.4-0.2,0.6C15.1,18.3,15.2,18.1,15.3,17.9c1.6-3.3,3-6.8,4.3-10.2
		C18,11,16.6,14.5,15.3,17.9z"/>
</g>
</svg>
