<svg id="Capa_1" data-name="Capa 1" xmlns="http://www.w3.org/2000/svg" viewBox="0 0 283.46 283.46"><path d="M239.21,189.58c-2.32-7.27-9.12-11.68-14.43-14.11-10.89-5-22.84-15.57-33.52-27.67l1.59-1a2.92,2.92,0,1,0-3-5l-2.39,1.46c-1.4-1.67-2.76-3.36-4.1-5.06l2.37-1.55a2.91,2.91,0,1,0-3.18-4.88l-2.74,1.78c-1.54-2.07-3-4.14-4.43-6.18l2-1.27a2.92,2.92,0,1,0-3.08-5l-2.2,1.37a138.08,138.08,0,0,1-9.29-16.47c-.32-.87-3.11-8.9,2.44-14.45a2.91,2.91,0,1,0-4.12-4.12c-6,6-5.48,13.59-4.59,17.76a103.16,103.16,0,0,1-17.4,3.36c-17.47,1.75-26.06-2.8-30.18-6.92-15-15-16-29.92-16-30.06A2.92,2.92,0,0,0,87.76,70L44.08,126.9a2.92,2.92,0,0,0,.73,4.23c.82.53,81.88,52.92,104.73,66.79,18.59,11.29,43.86,16.64,63.21,16.64a74.68,74.68,0,0,0,15.56-1.45,2.86,2.86,0,0,0,1.78-1.19l9.07-13.19s0,0,0,0a1.81,1.81,0,0,0,.2-.33l0-.06a2.26,2.26,0,0,0,.13-.33l0,0v-.07A14.83,14.83,0,0,0,239.21,189.58Zm-126-33.49c22.31,14.27,37.58,23.9,45.38,28.65,18.6,11.29,43.87,16.64,63.21,16.64,3.08,0,6-.14,8.73-.41L226,207.64c-9.08,1.74-21.57,1.44-34.52-.87-14.66-2.6-28.46-7.51-38.86-13.83-20.43-12.4-87.7-55.8-101.94-65l6.21-8.09c20.79,13.42,36.85,23.73,46.77,30.08a2.81,2.81,0,0,0,1.57.46,2.92,2.92,0,0,0,1.57-5.37c-4.39-2.81-10-6.4-16.67-10.7a38.55,38.55,0,0,0-4.2-43,2.92,2.92,0,1,0-4.49,3.72,32.77,32.77,0,0,1,3.77,36.08c-7.23-4.65-15.52-10-24.75-15.95l28-36.45c1.78,6.49,6.08,16.76,16.41,27.09,14.84,14.83,44.87,7.53,53.76,4.93a149.85,149.85,0,0,0,8.58,14.85l-9.91,6.15a2.92,2.92,0,0,0,1.54,5.4,3,3,0,0,0,1.54-.44l10.07-6.26c1.44,2.09,2.94,4.2,4.48,6.29L167,141.9a2.92,2.92,0,0,0,1.59,5.36,3,3,0,0,0,1.59-.47l8.23-5.35c1.31,1.67,2.63,3.33,4,5l-7.32,4.49a2.92,2.92,0,0,0,1.53,5.4,2.83,2.83,0,0,0,1.52-.43l8.09-5c15.95,18.28,28.39,26.34,36.14,29.88,10.56,4.82,11.85,11,11.8,13.83-9,1.57-21.12,1.21-33.67-1-14.65-2.61-28.45-7.52-38.86-13.84-7.76-4.72-23-14.33-45.27-28.57a2.91,2.91,0,1,0-3.14,4.91Z"/></svg>