<svg id="Capa_1" data-name="Capa 1" xmlns="http://www.w3.org/2000/svg" viewBox="0 0 283.46 283.46"><path d="M224.3,110.32h-2.81V92.21a2.65,2.65,0,0,0-5.3,0v18.11h-2.8a8,8,0,0,0-8,8V131c-63.13,0-60.18-.06-61.05.1V81.47a6.91,6.91,0,0,1,6.9-6.89h58a6.87,6.87,0,0,1,6.79,5.71,2.65,2.65,0,0,0,5.23-.9,12.18,12.18,0,0,0-12-10.12h-58a12.2,12.2,0,0,0-9.55,4.62,12.17,12.17,0,0,0-9.54-4.62h-58A12.22,12.22,0,0,0,62,81.47v28.85h-2.8a8,8,0,0,0-8,8v49.19a13.27,13.27,0,0,0,13.26,13.26h8.26v26a7.45,7.45,0,0,0,14.88.53l1.89-26.54h15.11a2.65,2.65,0,0,0,0-5.3H64.47a8,8,0,0,1-8-8V118.28a2.66,2.66,0,0,1,2.66-2.66H70.08a2.67,2.67,0,0,1,2.6,2.12,3.19,3.19,0,0,1,0,.54V131H68.46A6.46,6.46,0,0,0,62,137.44v15.31a6.47,6.47,0,0,0,6.46,6.47H215a6.47,6.47,0,0,0,6.46-6.47V137.44A6.46,6.46,0,0,0,215,131h-4.28v-12.7a2.42,2.42,0,0,1,.06-.54,2.67,2.67,0,0,1,2.6-2.12H224.3a2.66,2.66,0,0,1,2.65,2.66v49.19a8,8,0,0,1-8,8H117a2.65,2.65,0,0,0,0,5.3h77l1.88,26.54a7.45,7.45,0,0,0,14.88-.53v-26H219a13.26,13.26,0,0,0,13.26-13.26V118.28a8,8,0,0,0-7.95-8ZM84.18,180.73l-1.86,26.16a2.15,2.15,0,0,1-4.29-.15v-26Zm132-28a1.16,1.16,0,0,1-1.16,1.16H144.38V137.44a1.16,1.16,0,0,1,1.16-1.16H215a1.16,1.16,0,0,1,1.16,1.16ZM70.08,110.32H67.27V81.47a6.91,6.91,0,0,1,6.9-6.89h58a6.9,6.9,0,0,1,6.89,6.89v49.61c-.85-.16,3-.1-61.05-.1v-12.7A8,8,0,0,0,70.08,110.32ZM67.3,152.75V137.44a1.16,1.16,0,0,1,1.16-1.16h69.46a1.16,1.16,0,0,1,1.16,1.16v16.47H68.46a1.16,1.16,0,0,1-1.16-1.16Zm138.13,54a2.15,2.15,0,0,1-4.29.15l-1.86-26.16h6.15Z"/></svg>