<svg id="Capa_1" data-name="Capa 1" xmlns="http://www.w3.org/2000/svg" viewBox="0 0 283.46 283.46"><path d="M190.35,90.19C177.34,79,160.08,72.8,141.73,72.8S106.12,79,93.12,90.19,72.8,116.52,72.8,132.54c0,17.62,8.88,34.2,24.38,45.58q1.26,2.64,2.79,5.19l-5.22,2.61a2.29,2.29,0,0,0-1,3.08,2.36,2.36,0,0,0,1,1l6.45,3.22a6.92,6.92,0,0,1,3.09,3.08l3.22,6.45a2.29,2.29,0,0,0,3.08,1,2.24,2.24,0,0,0,1-1l1.76-3.51c8.68,7.37,18.64,11.39,28.35,11.39H173.9a2.31,2.31,0,0,0,1.79-.86l20.21-25.18a11.42,11.42,0,0,0,3.27-8v-11a54,54,0,0,0,11.49-33C210.66,116.52,203.45,101.48,190.35,90.19ZM77.4,132.54c0-30.4,28.86-55.14,64.33-55.14A73.47,73.47,0,0,1,164.61,81c-.59,4.37-3.91,11-8.62,17.21-5.19,6.79-10.92,11.35-14.26,11.35-13.93,0-26.56,4-35.55,11.19-9.81,7.87-15,19.09-15,32.46a54.73,54.73,0,0,0,2.48,16C83.24,159.15,77.4,146.17,77.4,132.54Zm106.22,11.82a9.48,9.48,0,0,0-2.83,6.72v22l-4.06,5.23a9.19,9.19,0,0,0-15-3,2.08,2.08,0,0,0-.27.32L140.54,206c-8.51-.33-17.26-4.16-24.92-10.9a6.82,6.82,0,0,1,2.31-1.89l6.45-3.22a2.32,2.32,0,0,0,1-3.09,2.36,2.36,0,0,0-1-1l-6.45-3.23a7,7,0,0,1-3.08-3.08l-3.23-6.45a2.29,2.29,0,0,0-3.08-1,2.24,2.24,0,0,0-1,1l-3.22,6.45a6.5,6.5,0,0,1-.6,1,55,55,0,0,1-7.91-27.36c0-11.92,4.59-21.91,13.27-28.88,8.18-6.56,19.79-10.18,32.68-10.18,11.38,0,21.59,2.73,29.54,7.91a34.9,34.9,0,0,1,15,20.44A9.27,9.27,0,0,0,183.62,144.36Zm-74.05,52.26-1.17-2.34a11.61,11.61,0,0,0-5.14-5.14L100.92,188l2.34-1.17a11.56,11.56,0,0,0,5.14-5.14l1.17-2.34,1.17,2.34a11.49,11.49,0,0,0,5.13,5.14l2.34,1.17-2.34,1.17a11.54,11.54,0,0,0-5.13,5.14Zm85-20a6.85,6.85,0,0,1-2,4.87l-.17.19L172.8,206.06H146.11l19-27.58a4.6,4.6,0,0,1,6.37,6.63,1.55,1.55,0,0,0-.24.27l-6.1,8.4a2.3,2.3,0,0,0,3.72,2.7l6-8.26a9.31,9.31,0,0,0,1.19-1.54l8.84-11.37h0a2.23,2.23,0,0,0,.49-1.4V151.08a4.84,4.84,0,0,1,1.45-3.44,4.48,4.48,0,0,1,3.23-1.31,4.61,4.61,0,0,1,4.51,4.59Zm-3.7-34.81a39.5,39.5,0,0,0-17.11-23.57,54.73,54.73,0,0,0-22.86-8.06,53.47,53.47,0,0,0,8.73-9.14c5.71-7.47,8.48-14,9.35-18.41,21.88,8.81,37.07,27.88,37.07,49.94a48.56,48.56,0,0,1-6.89,24.85v-6.47A9.24,9.24,0,0,0,190.88,141.78Z"/><path d="M125.65,153.22a2.3,2.3,0,0,0,2.3-2.3,6.9,6.9,0,0,0-13.79,0,2.3,2.3,0,0,0,4.6,0,2.3,2.3,0,0,1,4.59,0A2.3,2.3,0,0,0,125.65,153.22Z"/><path d="M162.41,144a6.9,6.9,0,0,0-6.89,6.89,2.3,2.3,0,1,0,4.59,0,2.3,2.3,0,0,1,4.6,0,2.3,2.3,0,1,0,4.59,0A6.89,6.89,0,0,0,162.41,144Z"/><path d="M158.74,167.2a2.3,2.3,0,0,0-3,1.18c0,.08-3.54,7.82-14,7.82s-13.82-7.48-14-7.83a2.3,2.3,0,0,0-4.21,1.85c.19.44,4.78,10.57,18.19,10.57s18-10.13,18.19-10.57A2.29,2.29,0,0,0,158.74,167.2Z"/><path d="M137.14,162.41h9.19a2.3,2.3,0,1,0,0-4.59h-6.9v-6.9a2.3,2.3,0,0,0-4.59,0v9.19A2.3,2.3,0,0,0,137.14,162.41Z"/></svg>