<svg id="Capa_1" data-name="Capa 1" xmlns="http://www.w3.org/2000/svg" viewBox="0 0 283.46 283.46"><path d="M208,69.71H75.48A11.39,11.39,0,0,0,64.1,81.09V181.15a11.38,11.38,0,0,0,11.38,11.37H124l-2.74,9.58a10.51,10.51,0,0,1-9.41,7.1H94.73a2.28,2.28,0,0,0,0,4.55h94a2.28,2.28,0,1,0,0-4.55H171.6a10.51,10.51,0,0,1-9.41-7.1l-2.74-9.58H208a11.38,11.38,0,0,0,11.37-11.37V81.09A11.38,11.38,0,0,0,208,69.71ZM75.48,74.26H208a6.83,6.83,0,0,1,6.82,6.83v79.59H68.65V81.09A6.83,6.83,0,0,1,75.48,74.26Zm82.34,129.09a13.73,13.73,0,0,0,3.49,5.85H122.16a13.94,13.94,0,0,0,3.49-5.85l3.09-10.83h26ZM208,188H75.48a6.84,6.84,0,0,1-6.83-6.83V165.23H214.81v15.92A6.84,6.84,0,0,1,208,188Z"/><path d="M75.48,156.14H208a2.27,2.27,0,0,0,2.27-2.28V81.09A2.27,2.27,0,0,0,208,78.81H75.48a2.28,2.28,0,0,0-2.28,2.28v31.83a2.28,2.28,0,1,0,4.55,0V83.36h128v68.23h-128V122a2.28,2.28,0,0,0-4.55,0v31.84A2.28,2.28,0,0,0,75.48,156.14Z"/><path d="M141.73,169.78a6.83,6.83,0,1,0,6.83,6.82A6.83,6.83,0,0,0,141.73,169.78Zm0,9.1A2.28,2.28,0,1,1,144,176.6,2.28,2.28,0,0,1,141.73,178.88Z"/></svg>