<svg id="Capa_1" data-name="Capa 1" xmlns="http://www.w3.org/2000/svg" viewBox="0 0 118.88 118.83"><defs><style>.cls-1{fill:#fff;}</style></defs><rect x="0.05" width="118.83" height="118.83"/><path class="cls-1" d="M64.8,53.06a1.56,1.56,0,0,1-1.59-1.57,1.58,1.58,0,1,1,3.16,0A1.56,1.56,0,0,1,64.8,53.06Zm-1.37,1.43h2.7V65.06H63.44Z"/><path class="cls-1" d="M46.45,54.51h2.69v5.91a4.65,4.65,0,0,1-4.94,4.92,4.65,4.65,0,0,1-4.94-4.92V54.51H42v5.71a2.27,2.27,0,1,0,4.5,0Z"/><path class="cls-1" d="M29.53,65.08H26.82V54.51h2.71v1.06a4.1,4.1,0,0,1,3.22-1.37c2.94,0,5.08,2.41,5.08,5.61s-2.28,5.58-5.08,5.58a4.07,4.07,0,0,1-3.22-1.46Zm2.78-2.23a3.06,3.06,0,0,0,0-6.11,3.07,3.07,0,0,0,0,6.11Z"/><path class="cls-1" d="M24.78,65.08H22.09V49.9h2.69Z"/><path class="cls-1" d="M18.93,65.35a1.76,1.76,0,1,1,1.74-1.75A1.73,1.73,0,0,1,18.93,65.35Z"/><path class="cls-1" d="M101.78,65.07H97c-4.59,0-7.88-2.94-7.88-7s3.33-7.11,8-7.11h4.7ZM97.1,53.53c-3,0-5.06,1.76-5.06,4.45s2,4.48,5,4.48H99V53.53Z"/><path class="cls-1" d="M73.38,57.37c0-.58-.55-1-1.48-1a3.19,3.19,0,0,0-2.6,1.17L67.77,56A5,5,0,0,1,72,54.21c2.69,0,4.06,1.55,4.06,3.16,0,3.79-5.68,2.86-5.68,4.76,0,.66.53,1.1,1.57,1.1A4,4,0,0,0,75,61.89l1.5,1.72a5.67,5.67,0,0,1-4.43,1.79c-2.87,0-4.39-1.52-4.39-3.31C67.69,58.14,73.38,59.22,73.38,57.37Z"/><path class="cls-1" d="M82.14,65.37a5.48,5.48,0,0,1-4.09-1.65l1.39-1.84A3.61,3.61,0,0,0,82,63a3,3,0,0,0,3-2.54H77.22a4.16,4.16,0,0,1-.07-.88,5.25,5.25,0,0,1,5.32-5.39,5.43,5.43,0,0,1,5.34,5.61A5.54,5.54,0,0,1,82.14,65.37Zm.28-8.89a2.5,2.5,0,0,0-2.51,2.27H85A2.64,2.64,0,0,0,82.42,56.48Z"/><path class="cls-1" d="M59.91,66.2l1.36,2.1a7,7,0,0,1-4.61,1.41c-2.58,0-5.47-1.19-5.47-5.36V54.51H53.9v1a4.24,4.24,0,0,1,3.23-1.28,5,5,0,0,1,4.92,5.3,5,5,0,0,1-4.92,5.36,4.21,4.21,0,0,1-3.23-1.39v.93a2.61,2.61,0,0,0,2.92,2.78A5.06,5.06,0,0,0,59.91,66.2Zm-3.29-3.82a2.83,2.83,0,1,0-2.72-2.82A2.72,2.72,0,0,0,56.62,62.38Z"/></svg>