<svg id="Capa_1" data-name="Capa 1" xmlns="http://www.w3.org/2000/svg" viewBox="0 0 83.25 62.65"><path d="M74.05.59H62.9v1h2.94V59.11c-.07,1.25-.54,1.69-2.34,1.76h-.6v1.05H75.47V60.87H74.15c-2.11-.08-2.89-.93-2.93-2.76V35h3.66c5.33,0,8.37-2.55,8.37-6V7.08c0-3.42-2.62-6.49-9.2-6.49M77.9,30.11a3.45,3.45,0,0,1-3.6,3.65H71.22V1.57H74A3.86,3.86,0,0,1,77.9,5.51Zm-27.63,28v0L43.17.58H38.41l-6.9,56.93c-.41,2-.62,3.3-3.86,3.35v1H36v-1c-2.38,0-3.45-1.37-3.21-2.84l2.79-23.09h6.53l2.93,23.86c0,1.44-.15,2-1.88,2.07h-.83v1H53.55v-1h-.29a2.84,2.84,0,0,1-3-2.8M35.75,33.85,38.69,9.16,42,33.85Z"/><path d="M15.06,1.38c0,1-.63.91-1.13.6a11.59,11.59,0,0,0-6-2C4.67,0,0,1.44,0,7.63V53.21c.06,7.92,4.26,9.39,8.39,9.44,3.21,0,4.76-1.52,6-2,.69-.27,1.45.36,1.45,1.53h1.33V35h2.69V33.82H8.57V35h3.28V58.09a3.43,3.43,0,0,1-3.41,3.54,3.37,3.37,0,0,1-3.26-3.54V5.83c0-1.42.29-4.74,2.71-4.72,2,0,3.38,1.84,4,4.6A81.79,81.79,0,0,1,13,18.58c0,1,.37,1.33,1.46,1.33h2.1V.55h-1.5Z"/></svg>