<svg id="Capa_1" data-name="Capa 1" xmlns="http://www.w3.org/2000/svg" viewBox="0 0 200.6 50.02"><path d="M0,8.41v.76s4.51-.54,4.51,3.33V45.18C4.51,49,0,48.5,0,48.5v.77H13.72V48.5S9.21,49,9.21,45.18v-36c8.75.16,12.86,5.55,12.86,11.27,0,4.08-1.83,9.57-10.75,9.57l0,.89c9.33,0,15.05-3.94,15.05-11.26C26.41,10,16.06,8.47,9.21,8.41H0Z"/><path d="M102.11,8.41v.76s4.51-.54,4.51,3.33V32.36c0,6.07-.51,15.76-13.14,15.76C82,48.12,82.35,32.36,82.35,32.36V12.5c0-3.87,4.51-3.33,4.51-3.33V8.41H73.14v.76s4.51-.54,4.51,3.33V32.36C77.65,38.5,78.91,50,94.76,50c15,0,15-15.5,15-17.66V12.5c0-3.87,4.51-3.33,4.51-3.33V8.41Z"/><path d="M48.94,49.27V48.5s-4.5.54-4.5-3.32v-36c8.75.16,12.85,5.55,12.85,11.27,0,4.08-1.82,9.57-10.75,9.57l.05.89c2.66,0,3.91-.27,6.84,3.75s10,14.58,15.65,14.58h5.34v-.72c-3.63,0-5.51-.68-10.68-7.27s-9-11.67-9-11.67h-.06c4.42-1.71,7-5.08,7-9.94,0-9.65-10.35-11.21-17.2-11.27H35.23v.76s4.5-.54,4.5,3.33V45.18c0,3.86-4.5,3.32-4.5,3.32v.77Z"/><path d="M200.6,49.27v-7h-1.19s.84,4.9-5.14,4.9h-12.5V28.64h8.58c4.16,0,3.57,2.87,3.57,2.87h.84V23.73h-.84s.51,2.49-2.83,2.83h-9.32V10.48h12.5c6,0,5.14,4.9,5.14,4.9h1.19v-7h-28v.76s4.5-.54,4.5,3.33V45.18c0,3.86-4.5,3.32-4.5,3.32v.77Z"/><path d="M152.66,8.41v.76s4.51-.54,4.51,3.33V38.11a9,9,0,0,0,1.18,4.8l-1.18-1.26h0L125.85,8.41h-3.58v.73c.91.4,1.66.28,1.66,2.5V45.18c0,3.86-4.51,3.32-4.51,3.32v.77h12.15V48.5s-4.5.54-4.5-3.32V20.08c0-3.07-.2-3.54-.85-5L127,16h0l31.32,33.33h2V12.5c0-3.87,4.5-3.33,4.5-3.33V8.41Z"/><circle cx="85.27" cy="2.25" r="2.25"/><circle cx="102.08" cy="2.25" r="2.25"/></svg>