<svg id="Layer_1" data-name="Layer 1" xmlns="http://www.w3.org/2000/svg" viewBox="0 0 76.54 130.54"><defs><style>.cls-1{fill:#fff;}.cls-2{fill:none;}</style></defs><path d="M0,65.29C0,100.94,30.73,130,68.79,130.54h7.75V0h-8C30.59.69,0,29.69,0,65.29"/><path class="cls-1" d="M51,66a0,0,0,0,0,0,0H48.74s0,0,0,0Z"/><rect class="cls-1" x="43.89" y="36.35" width="4.77" height="4.76"/><path class="cls-1" d="M65.74,18.61,45.31,22.5a1.61,1.61,0,0,0-1.42,1.59v4.47l21.85-4.07Z"/><polygon class="cls-1" points="43.89 30.15 65.74 34.32 65.74 26.1 43.89 30.15"/><path class="cls-1" d="M49.71,57.57a6,6,0,0,0-5.82,6.14v.69H65.75V57.59L55.66,62a6.44,6.44,0,0,0-5.95-4.41"/><path class="cls-1" d="M43.73,85.34c.61,3.27,3.47,5.51,7.26,5.51h7.66c3.78,0,6.64-2.24,7.25-5.51A1.89,1.89,0,0,0,66,85H43.68c0,.24,0,.34,0,.34"/><path class="cls-1" d="M43.73,83.08h0s0,.1,0,.35H66a1.93,1.93,0,0,0,0-.35c-.61-3.27-3.47-5.52-7.25-5.52H51c-3.79,0-6.65,2.25-7.26,5.52"/><path class="cls-1" d="M49.71,95.16a6,6,0,0,0-5.82,6.13V102H55.53v-.71a6,6,0,0,0-5.82-6.11"/><path class="cls-1" d="M43.89,104.88v4.19H65.74v-5.52H45.2a1.32,1.32,0,0,0-1.31,1.33"/><path class="cls-1" d="M43.89,67.29v4.19H65.74V66H45.2a1.3,1.3,0,0,0-1.31,1.31"/><path class="cls-1" d="M43.89,44v9.13h4.77V48.19H65.74V42.68H45.2A1.31,1.31,0,0,0,43.89,44"/><rect class="cls-2" x="-12.63" y="-6.43" width="101.48" height="143.52"/></svg>