<svg id="Layer_1" data-name="Layer 1" xmlns="http://www.w3.org/2000/svg" viewBox="0 0 460.79 72.4"><defs><style>.cls-1{fill:#231f20;}</style></defs><path class="cls-1" d="M136.46,72.4H7.2A7.63,7.63,0,0,1-.41,65.11v-29a23.28,23.28,0,0,0,12.36-4c11.52-8.25,21.1-24.3,33.37-29.52A29.49,29.49,0,0,1,64.71.92L75.25,11.43a34.85,34.85,0,0,0-13.67-2.6c-9.15,0-26.82,7.55-26.82,27.29,0,15.9,10.93,27.06,28.9,27.06h63.55Z"/><path class="cls-1" d="M121.54,57.56H62.29c-6.71,0-15.69-3.21-18.41-9.46,0,0,26.64-27.18,27.93-28.47,3.19-3.17,8.88-3.17,11.64,0Zm-58.88-21c-.67.66-.31,1.42.57,1.39h7.29l5.13-4.33c1.08-1.06,2.12-.86,2.12.27v8.65C77.74,44,79,44,79.69,43L85,38h7c.55,0,.94-.73.19-1.45L79.59,24.12a2.89,2.89,0,0,0-3.71,0c-.32.29-13.22,12.48-13.22,12.48"/><path class="cls-1" d="M302.89,33.87c-6.95-2.69-10.82-2.82-10.83-6.38,0-2,2.46-3.5,5.66-3.5,3.69,0,6.64,1.34,8.18,3.31l6.32-4.8c-2.58-3.62-7.56-7-14.75-7-7.62,0-14.74,4.43-14.74,12.12,0,6.27,4.73,10.19,10.88,12.39,6,2.22,10.75,3.14,10.75,6.9,0,2-1.65,4.23-6.39,4.23-5,0-8.72-2.27-10.75-5.64l-6.88,4.72c2.65,5.17,8.36,9.46,17.57,9.46,10.88,0,15.92-5.53,15.92-13.09C313.83,40.45,310.63,36.82,302.89,33.87Z"/><rect class="cls-1" x="227.02" y="16.03" width="9.51" height="43.05"/><rect class="cls-1" x="317.87" y="16" width="9.51" height="43.05"/><polygon class="cls-1" points="342.91 16 333.4 16 333.41 59.04 358.73 59.03 358.72 50.39 342.92 50.39 342.91 16"/><polygon class="cls-1" points="371.87 44.42 362.11 15.99 351.98 16 367.33 59.03 376.42 59.03 391.18 15.98 381.05 15.99 371.87 44.42"/><polygon class="cls-1" points="394.9 59.02 421.24 59.01 421.24 50.37 404.4 50.37 404.4 42.97 418.07 42.96 418.07 34.77 404.4 34.78 404.4 24.63 421.31 24.62 421.3 15.97 394.89 15.98 394.9 59.02"/><path class="cls-1" d="M449.67,43.58c5.32-2.12,8.27-7.79,8.26-13.42A14.34,14.34,0,0,0,443.29,16h-17V59h9.45V24.62h7.36a5.36,5.36,0,0,1,5.37,5.67c0,3.65-2.47,6-6.18,6h-2.06v8L450,59h10.75Z"/><path class="cls-1" d="M211.81,39.68c0,7.54-3.51,10.45-8.76,10.45s-8.83-2.9-8.83-10.44V16h-9.5V41.67c0,12.16,8.27,18.09,18.35,18.08s18.27-5.93,18.26-18.09V16h-9.5Z"/><path class="cls-1" d="M181,37.58c0-12.43-10.16-22.21-22.89-22.21s-22.88,9.79-22.87,22.22,10.21,22.2,22.88,22.2a23.68,23.68,0,0,0,5.88-.73l-6.13-7.9a13.26,13.26,0,0,1-13.16-13.57,13.41,13.41,0,1,1,26.82,0,13.89,13.89,0,0,1-1.83,6.91l-6.5-8.12-7.11,5.89,13.53,16.83h11.79l-5.73-7.16A21.71,21.71,0,0,0,181,37.58Z"/><polygon class="cls-1" points="280.93 16.02 269.19 16.02 252.04 36.41 252.03 16.02 251.53 16.02 242.52 16.03 242.53 59.07 251.55 59.06 252.04 59.06 252.04 50.29 257.7 43.57 270.16 59.06 270.87 59.06 281.94 59.06 281.99 59.06 263.87 36.34 280.93 16.02"/></svg>