<?xml version="1.0" encoding="utf-8"?>
<!-- Generator: Adobe Illustrator 24.2.1, SVG Export Plug-In . SVG Version: 6.00 Build 0)  -->
<svg version="1.1" id="Capa_1" xmlns="http://www.w3.org/2000/svg" xmlns:xlink="http://www.w3.org/1999/xlink" x="0px" y="0px"
	 viewBox="0 0 450.09 419.59" style="enable-background:new 0 0 450.09 419.59;" xml:space="preserve">
<style type="text/css">
	.st0{fill:#FFFFFF;}
</style>
<rect width="450.09" height="419.59"/>
<g>
	<g>
		<g>
			<path class="st0" d="M89.47,309.28c2.52,0.78,4.33,1.59,5.43,2.42l-1.18,2.02c-1.1-0.83-2.72-1.58-4.85-2.25
				c-2.14-0.67-4.23-0.98-6.27-0.94c-2.58,0.07-4.7,0.73-6.38,1.98c-1.59,1.14-2.43,2.72-2.52,4.74c-0.05,1.19,0.21,2.23,0.77,3.14
				s1.32,1.6,2.28,2.07c1.55,0.74,4.08,1.42,7.61,2.03c3.53,0.62,6.06,1.25,7.61,1.9c2.06,0.85,3.59,2.19,4.59,4.02
				c1,1.83,1.25,3.8,0.76,5.93c-0.7,3-2.35,5.16-4.97,6.48c-2.22,1.1-4.86,1.67-7.93,1.71c-2.62,0.02-5.23-0.36-7.83-1.14
				c-2.6-0.79-4.69-1.8-6.28-3.06l1.14-2.18c1.25,1.12,3.03,2.06,5.34,2.82c2.42,0.81,4.99,1.19,7.73,1.14
				c3.18-0.04,5.54-0.56,7.09-1.55c0.83-0.51,1.55-1.21,2.15-2.08c0.6-0.87,0.99-1.8,1.14-2.79c0.25-1.5,0.04-2.88-0.62-4.15
				c-0.66-1.27-1.72-2.2-3.17-2.81c-1.46-0.61-3.97-1.25-7.53-1.93c-3.56-0.68-6.19-1.41-7.9-2.17c-1.52-0.67-2.67-1.66-3.43-2.96
				c-0.76-1.3-1.09-2.79-0.97-4.47c0.16-2.76,1.2-4.91,3.12-6.45c1.93-1.55,4.58-2.38,7.96-2.52
				C84.59,308.15,86.95,308.5,89.47,309.28z"/>
			<path class="st0" d="M169.78,308.68v2.18h-12.5v33.23h-2.45v-33.23h-12.46v-2.18H169.78z"/>
			<path class="st0" d="M241.55,313.11c1.6,1.54,2.87,3.46,3.8,5.74c0.93,2.28,1.39,4.79,1.39,7.52c0,2.73-0.47,5.24-1.39,7.53
				c-0.93,2.28-2.2,4.2-3.8,5.74c-1.6,1.55-3.48,2.75-5.63,3.59c-2.15,0.85-4.44,1.28-6.85,1.28c-2.42,0-4.7-0.43-6.85-1.28
				c-2.15-0.85-4.03-2.05-5.63-3.59s-2.87-3.46-3.8-5.74c-0.93-2.28-1.39-4.79-1.39-7.53c0-2.73,0.46-5.24,1.39-7.52
				c0.93-2.28,2.2-4.2,3.8-5.74c1.6-1.55,3.48-2.74,5.63-3.59c2.15-0.85,4.43-1.28,6.85-1.28c2.42,0,4.7,0.43,6.85,1.28
				C238.07,310.37,239.95,311.57,241.55,313.11z M229.07,310.69c-4.46,0-8.07,1.36-10.85,4.07c-2.89,2.82-4.33,6.7-4.33,11.62
				c0,4.93,1.44,8.8,4.33,11.63c2.78,2.71,6.39,4.07,10.85,4.07c4.46,0,8.07-1.36,10.85-4.07c2.91-2.84,4.37-6.72,4.37-11.63
				c0-4.9-1.46-8.78-4.37-11.62C237.14,312.05,233.53,310.69,229.07,310.69z"/>
			<path class="st0" d="M304.32,308.68c3.49,0,6.25,0.9,8.26,2.69c2.02,1.79,3.02,4.18,3.02,7.16c0,2.37-0.71,4.41-2.13,6.1
				c-1.42,1.69-3.33,2.83-5.73,3.41c0.9,1.81,2.23,4.5,4,8.06c1.77,3.56,3.09,6.23,3.96,7.99h-2.72c-0.2-0.43-1.28-2.61-3.23-6.57
				c-1.95-3.95-3.44-6.99-4.47-9.12c-0.2,0.02-0.53,0.04-0.97,0.04h-9.71v15.65h-2.55v-35.41H304.32z M294.61,326.11h9.47
				c2.71,0,4.9-0.69,6.57-2.06c1.67-1.38,2.5-3.22,2.5-5.53c0-2.31-0.83-4.14-2.5-5.49c-1.67-1.36-3.86-2.03-6.57-2.03h-9.47V326.11
				z"/>
			<path class="st0" d="M383.06,308.68v2.18h-19.59v14.24h17.44v2.08h-17.44v14.58h19.59v2.32h-22.04v-35.41H383.06z"/>
		</g>
	</g>
	<g>
		<path class="st0" d="M84.87,93.67c3.56-17.61,32-13.88,44.52-5.93c10.16,7.45,22.35-7.28,10.83-16.59
			c-23.36-17.94-72.96-12.02-76.86,20.82c-5.25,48.08,65.18,33.01,67.38,58.07c-2.54,24.04-38.26,16.93-52.14,7.45
			c-5.76-4.74-10.66-3.22-15.07,1.19c-3.05,4.57-3.22,12.02,2.37,16.59c23.36,19.3,85.66,18.28,86.85-24.72
			C153.94,105.52,80.3,121.43,84.87,93.67z"/>
		<path class="st0" d="M240.84,77.75v61.28c0,35.38-57.73,33.35-57.73,0v-34.35c0-15.91-22.18-15.24-22.18,0v34.35
			c0,63.32,102.08,63.32,102.08,0V77.75C263.02,61.5,240.84,62.69,240.84,77.75z"/>
		<path class="st0" d="M365.17,65.06c-5.76,0-10.66,6.09-10.66,11.68v65.68l-56.04-70.08c-4.57-4.4-5.93-5.93-12.02-5.93
			c-8.8,0-10.16,5.93-10.16,12.02v93.62c0,7.45,5.42,11.68,11.51,11.68c6.09,0,10.67-4.23,10.67-11.68V106.7l56.04,71.1
			c4.91,4.57,7.79,5.93,13.71,5.93c4.4-1.35,8.97-4.23,8.97-11.68V76.74C377.19,71.15,371.26,65.06,365.17,65.06z"/>
		<path class="st0" d="M136.4,198.03H70.52c-12.12,0-12.12,17.83,0,17.83H94.9v70.34c0,12.4,18.39,12.12,18.39,0v-70.34h23.12
			C148.8,215.86,148.8,198.03,136.4,198.03z"/>
		<path class="st0" d="M155.68,206.81v79.54c0,11.84,18.39,11.56,18.39,0v-79.54C174.07,194.96,155.68,195.38,155.68,206.81z"/>
		<path class="st0" d="M268.87,200.68l-31.76,42.9l-30.64-41.37c-2.37-2.65-4.74-5.01-8.78-5.01c-2.23,0-8.36,2.37-8.36,9.61v78.42
			c0,6.13,3.9,9.61,8.36,9.61c5.01,0,10.03-3.48,10.03-9.61v-51.54l20.76,29.25c4.6,6.13,10.86,6.13,15.88,0l23.12-29.25v51.54
			c0,6.13,3.9,9.61,8.91,9.61c4.46,0,8.36-3.48,8.36-9.61v-78.42C284.75,197.19,273.47,194.96,268.87,200.68z"/>
		<path class="st0" d="M385.12,236.85c-0.11-0.77-0.23-1.54-0.38-2.31c-1.49-7.99-4.84-15.46-10.22-21.65
			c-1.54-1.77-3.25-3.4-5.08-4.86c-2.34-1.86-4.93-3.41-7.56-4.82c-6.18-3.32-12.56-4.78-19.93-4.78c-0.37,0-0.72,0.02-1.09,0.03
			c-0.26,0-0.5-0.03-0.76-0.03c-7.27,0-13.57,1.43-19.67,4.64c-16.14,7.86-24.52,24.78-24.52,43.63c0,25.96,14.3,48.14,46.04,48.14
			c10.89,0,21.9-1.75,31.08-10.49c4.59-4.7,3.54-9.68,1.44-12.64c-2.36-3.22-8-4.84-12.07-1.61c-6.03,5.51-12.98,8.61-20.46,8.61
			c-17.31,0-26.79-11.12-29.24-24.71c13.35-0.02,39.98-0.2,48.21-0.18c4.65,0.01,13.13-0.04,17.66-1.1
			C385.48,251.11,385.92,242.59,385.12,236.85z M312.81,239.09c1.13-5.62,3.53-10.75,7.28-14.77c0.59-0.36,1.15-0.77,1.64-1.28
			c0.71-0.77,1.43-1.45,2.16-2.08c4.43-3.18,10.14-5.11,17.13-5.28c8.43-0.19,16.83,3.86,22.21,10.43
			c4.72,5.77,5.62,12.98,5.8,12.98C369.03,239.09,327.85,239.09,312.81,239.09z"/>
	</g>
	<path class="st0" d="M412.53,377.6c0.21-0.6,0.33-1.25,0.33-1.92v-336c0-3.17-2.57-5.73-5.73-5.73H42.96
		c-3.17,0-5.73,2.57-5.73,5.73v336c0,3.17,2.57,5.73,5.73,5.73h366.35l1.71-1.54c0.13-0.12,0.26-0.25,0.38-0.38 M50.33,46.92h349.44
		v321.53H50.33V46.92z"/>
	<g>
		<path class="st0" d="M238.5,335.56c-0.1,0-0.19,0-0.28,0c-1.49,0-2.36,0-3.85,0c-0.2,0-0.3-0.05-0.39-0.24
			c-0.74-1.53-1.49-3.05-2.25-4.57c-0.18-0.36-0.41-0.71-0.65-1.04c-0.44-0.61-1.66-0.98-2.4-1.05c-0.65-0.06-1.31-0.01-1.99-0.01
			c0,2.28,0,4.57,0,6.88c-1.59,0-2.49,0-4.07,0c0-6.11,0.15-12.21,0.15-18.32c0.06-0.01-0.04-0.02,0-0.02c2.58,0,4.5,0,7.08,0.02
			c1.16,0.01,2.3,0.16,3.41,0.56c1.69,0.6,2.66,1.78,2.87,3.57c0.12,1.03,0.09,2.04-0.31,3.01c-0.53,1.31-1.57,2.05-2.85,2.53
			c-0.06,0.02-0.12,0.04-0.18,0.06c-0.02,0.01-0.03,0.02,0,0c0.38,0.21,0.81,0.4,1.18,0.67c0.81,0.6,1.33,1.44,1.78,2.33
			c0.92,1.82,1.82,3.66,2.73,5.49C238.48,335.46,238.49,335.5,238.5,335.56z M226.7,320.1c0,1.64,0,3.59,0,5.21
			c1.04-0.05,3.52-0.06,4.53-0.17c0.84-0.09,1.42-0.99,1.59-1.85c0.07-0.35,0.1-0.73,0.08-1.09c-0.08-1-0.44-1.76-1.64-1.92
			C230.24,320.14,227.75,320.15,226.7,320.1z"/>
	</g>
</g>
</svg>
