<?xml version="1.0" encoding="utf-8"?>
<!-- Generator: Adobe Illustrator 24.2.1, SVG Export Plug-In . SVG Version: 6.00 Build 0)  -->
<svg version="1.1" id="Capa_1" xmlns="http://www.w3.org/2000/svg" xmlns:xlink="http://www.w3.org/1999/xlink" x="0px" y="0px"
	 viewBox="0 0 912.88 274.14" style="enable-background:new 0 0 912.88 274.14;" xml:space="preserve">
<style type="text/css">
	.st0{clip-path:url(#SVGID_2_);}
</style>
<polygon points="153.91,0 146.58,0 95.36,95.83 113.62,130.48 150.14,62.32 261.78,274.14 298.43,274.14 "/>
<polygon points="0,274.14 36.66,274.14 86.91,180.35 68.66,145.75 "/>
<polygon points="184.74,143.85 148.31,211.8 36.66,0 0,0 144.51,274.14 151.86,274.14 203,178.49 "/>
<polygon points="298.43,0.69 261.43,0.69 210.53,95.63 228.99,130.61 "/>
<polygon points="350.16,29.1 368.87,29.1 425.81,161.91 483.7,29.1 502.41,29.1 427.63,200.97 423.9,200.97 "/>
<g>
	<defs>
		<rect id="SVGID_1_" x="-43.56" y="-40.98" width="1000" height="356.09"/>
	</defs>
	<clipPath id="SVGID_2_">
		<use xlink:href="#SVGID_1_"  style="overflow:visible;"/>
	</clipPath>
	<path class="st0" d="M534.23,21.51c3.74,0,6.92,1.34,9.54,3.98c2.65,2.63,3.98,5.84,3.98,9.58c0,3.67-1.34,6.81-3.98,9.46
		c-2.62,2.65-5.8,3.96-9.54,3.96c-3.63,0-6.78-1.31-9.4-3.96c-2.66-2.65-3.97-5.79-3.97-9.46c0-3.74,1.31-6.95,3.97-9.58
		C527.45,22.85,530.6,21.51,534.23,21.51 M526.12,73.86h16.36v127.11h-16.36V73.86z"/>
	<path class="st0" d="M703.13,73.87v127.11h-16.1v-21.84c-6.86,8.33-14.57,14.6-23.08,18.81c-8.53,4.21-17.86,6.32-28.01,6.32
		c-17.98,0-33.34-6.54-46.09-19.58c-12.71-13.05-19.08-28.9-19.08-47.6c0-18.31,6.43-33.99,19.28-46.99
		c12.83-13.01,28.32-19.51,46.37-19.51c10.44,0,19.9,2.22,28.34,6.66c8.47,4.43,15.89,11.11,22.28,19.98V73.87H703.13z
		 M637.77,86.37c-9.11,0-17.51,2.25-25.23,6.72c-7.69,4.46-13.82,10.75-18.37,18.85c-4.55,8.08-6.81,16.64-6.81,25.65
		c0,8.97,2.27,17.54,6.85,25.7c4.59,8.16,10.77,14.53,18.52,19.08c7.74,4.54,16.03,6.82,24.92,6.82c8.94,0,17.43-2.26,25.44-6.77
		c8.02-4.5,14.2-10.61,18.5-18.31c4.32-7.72,6.45-16.37,6.45-26.03c0-14.72-4.82-27.03-14.51-36.91
		C663.85,91.31,651.94,86.37,637.77,86.37"/>
	<rect x="737.5" y="24.77" class="st0" width="16.36" height="176.2"/>
	<path class="st0" d="M894.87,158.78l13.79,7.28c-4.52,8.86-9.73,16.03-15.68,21.5c-5.91,5.45-12.59,9.59-19.98,12.43
		c-7.42,2.84-15.79,4.27-25.15,4.27c-20.73,0-36.94-6.81-48.65-20.38c-11.7-13.61-17.55-28.97-17.55-46.11
		c0-16.12,4.96-30.5,14.85-43.11c12.58-16.03,29.35-24.07,50.42-24.07c21.66,0,38.99,8.25,51.92,24.65
		c9.2,11.6,13.87,26.1,14.04,43.46H798.47c0.33,14.78,5.05,26.87,14.17,36.32c9.11,9.46,20.38,14.16,33.81,14.16
		c6.45,0,12.74-1.12,18.87-3.37c6.13-2.24,11.32-5.24,15.62-8.96C885.23,173.12,889.88,167.11,894.87,158.78 M894.87,124.55
		c-2.17-8.7-5.34-15.68-9.52-20.91c-4.18-5.2-9.7-9.4-16.56-12.62c-6.86-3.17-14.07-4.79-21.66-4.79
		c-12.46,0-23.19,4.04-32.15,12.05c-6.57,5.84-11.52,14.6-14.86,26.27H894.87z"/>
	<path class="st0" d="M390.85,234.02l-2.94,2.27c-1.65-2.1-3.57-3.69-5.85-4.78c-2.29-1.1-4.76-1.65-7.47-1.65
		c-2.99,0-5.76,0.73-8.28,2.15c-2.53,1.42-4.5,3.34-5.87,5.74c-1.41,2.42-2.11,5.12-2.11,8.14c0,4.54,1.55,8.33,4.67,11.37
		c3.13,3.05,7.06,4.57,11.82,4.57c5.22,0,9.57-2.04,13.1-6.13l2.94,2.24c-1.87,2.36-4.19,4.17-6.98,5.48
		c-2.77,1.29-5.87,1.93-9.28,1.93c-6.54,0-11.7-2.17-15.46-6.5c-3.16-3.68-4.73-8.11-4.73-13.3c0-5.45,1.89-10.03,5.74-13.77
		c3.81-3.74,8.61-5.6,14.36-5.6c3.49,0,6.63,0.68,9.45,2.08C386.77,229.63,389.06,231.56,390.85,234.02"/>
	<path class="st0" d="M425.22,236.85v27.55h-3.51v-4.72c-1.48,1.8-3.13,3.17-4.99,4.06c-1.85,0.93-3.88,1.38-6.07,1.38
		c-3.92,0-7.23-1.42-10.02-4.23c-2.75-2.86-4.12-6.28-4.12-10.34c0-3.97,1.39-7.38,4.17-10.19c2.79-2.84,6.15-4.24,10.08-4.24
		c2.27,0,4.31,0.49,6.14,1.44c1.84,0.97,3.45,2.41,4.82,4.34v-5.05H425.22z M411.04,239.54c-1.98,0-3.81,0.49-5.47,1.46
		c-1.66,0.98-2.98,2.34-3.99,4.1c-0.97,1.75-1.48,3.6-1.48,5.56c0,1.94,0.51,3.8,1.48,5.59c1.01,1.78,2.34,3.15,4.05,4.13
		c1.66,1,3.46,1.49,5.39,1.49c1.92,0,3.81-0.49,5.5-1.46c1.77-1,3.09-2.34,4.01-3.99c0.96-1.68,1.44-3.57,1.44-5.65
		c0-3.18-1.05-5.86-3.17-8C416.67,240.62,414.11,239.54,411.04,239.54"/>
	<rect x="432.66" y="226.19" class="st0" width="3.55" height="38.22"/>
	<polygon class="st0" points="441.35,236.85 461.6,236.85 445.98,261.27 461.09,261.27 461.09,264.4 439.88,264.4 455.47,239.95 
		441.35,239.95 	"/>
	<path class="st0" d="M493.12,236.85v27.55h-3.48v-4.72c-1.48,1.8-3.17,3.17-5.03,4.06c-1.84,0.93-3.88,1.38-6.07,1.38
		c-3.91,0-7.24-1.42-10-4.23c-2.75-2.86-4.15-6.28-4.15-10.34c0-3.97,1.4-7.38,4.19-10.19c2.8-2.84,6.16-4.24,10.07-4.24
		c2.24,0,4.29,0.49,6.13,1.44c1.84,0.97,3.46,2.41,4.85,4.34v-5.05H493.12z M478.95,239.54c-1.97,0-3.81,0.49-5.48,1.46
		c-1.66,0.98-3.01,2.34-3.99,4.1c-0.99,1.75-1.48,3.6-1.48,5.56c0,1.94,0.49,3.8,1.49,5.59c0.99,1.78,2.34,3.15,4.01,4.13
		c1.69,1,3.48,1.49,5.41,1.49c1.94,0,3.77-0.49,5.53-1.46c1.72-1,3.08-2.34,4.01-3.99c0.95-1.68,1.4-3.57,1.4-5.65
		c0-3.18-1.04-5.86-3.15-8C484.59,240.62,482.01,239.54,478.95,239.54"/>
	<path class="st0" d="M528.63,226.19v38.22h-3.51v-4.72c-1.47,1.8-3.12,3.17-4.99,4.06c-1.87,0.93-3.87,1.38-6.07,1.38
		c-3.9,0-7.22-1.42-9.99-4.23c-2.77-2.86-4.14-6.28-4.14-10.34c0-3.97,1.4-7.38,4.19-10.19c2.76-2.84,6.09-4.24,10.02-4.24
		c2.29,0,4.34,0.49,6.16,1.44c1.84,0.97,3.46,2.41,4.81,4.34v-15.72H528.63z M514.44,239.54c-1.96,0-3.77,0.49-5.46,1.46
		c-1.68,0.98-2.99,2.34-3.99,4.1c-0.98,1.75-1.46,3.6-1.46,5.56c0,1.94,0.48,3.8,1.46,5.59c1.02,1.78,2.33,3.15,4.03,4.13
		c1.67,1,3.46,1.49,5.41,1.49c1.94,0,3.75-0.49,5.5-1.46c1.75-1,3.09-2.34,4.02-3.99c0.93-1.68,1.42-3.57,1.42-5.65
		c0-3.18-1.07-5.86-3.18-8C520.13,240.62,517.53,239.54,514.44,239.54"/>
	<path class="st0" d="M549.71,236.12c4.27,0,7.77,1.54,10.59,4.6c2.51,2.81,3.79,6.15,3.79,9.98c0,3.85-1.33,7.23-4.01,10.09
		c-2.69,2.89-6.14,4.33-10.37,4.33c-4.23,0-7.67-1.44-10.35-4.33c-2.7-2.86-4.04-6.24-4.04-10.09c0-3.84,1.29-7.13,3.81-9.95
		C541.94,237.68,545.46,236.12,549.71,236.12 M549.71,239.6c-2.94,0-5.48,1.08-7.6,3.27c-2.13,2.18-3.2,4.82-3.2,7.9
		c0,1.99,0.5,3.84,1.47,5.59c0.96,1.71,2.27,3.05,3.93,3.98c1.63,0.94,3.45,1.42,5.41,1.42c1.97,0,3.79-0.48,5.42-1.42
		c1.63-0.93,2.94-2.27,3.91-3.98c0.96-1.75,1.46-3.6,1.46-5.59c0-3.08-1.09-5.72-3.21-7.9C555.17,240.68,552.63,239.6,549.71,239.6"
		/>
	<path class="st0" d="M613.83,250.63l2.51,2.67c-1.61,1.43-3.15,2.68-4.61,3.72c1.01,0.92,2.34,2.2,3.96,3.84
		c1.29,1.27,2.4,2.46,3.33,3.53h-5.19l-4.96-5.11c-3.1,2.53-5.62,4.17-7.57,4.91c-1.96,0.77-4,1.15-6.17,1.15
		c-2.87,0-5.19-0.82-6.91-2.49c-1.73-1.62-2.61-3.7-2.61-6.17c0-1.85,0.58-3.72,1.77-5.58c1.15-1.88,3.55-4.24,7.16-7.08
		c-2.04-2.47-3.34-4.3-3.92-5.47c-0.59-1.16-0.89-2.27-0.89-3.35c0-1.86,0.73-3.38,2.15-4.61c1.66-1.42,3.72-2.11,6.2-2.11
		c1.54,0,2.95,0.29,4.25,0.94c1.27,0.61,2.25,1.44,2.94,2.51c0.69,1.04,1.01,2.18,1.01,3.36c0,1.25-0.46,2.59-1.32,3.98
		c-0.88,1.41-2.6,3.22-5.21,5.43l5.66,5.93l3.7,3.75C611.13,252.92,612.67,251.67,613.83,250.63 M597.01,246.84
		c-3.16,2.39-5.22,4.29-6.22,5.68c-0.97,1.44-1.46,2.72-1.46,3.94c0,1.42,0.58,2.66,1.81,3.74c1.2,1.1,2.66,1.65,4.42,1.65
		c1.3,0,2.62-0.29,3.86-0.83c2.03-0.85,4.3-2.33,6.89-4.37l-5.88-6.07C599.41,249.53,598.28,248.29,597.01,246.84 M597.46,241.9
		c1.82-1.4,3.2-2.78,4.11-4.14c0.61-0.95,0.94-1.81,0.94-2.56c0-0.86-0.41-1.6-1.24-2.23c-0.84-0.63-1.95-0.92-3.36-0.92
		c-1.32,0-2.38,0.32-3.22,0.95c-0.79,0.64-1.24,1.41-1.24,2.29c0,0.66,0.18,1.32,0.5,1.91C594.79,238.63,595.97,240.21,597.46,241.9
		"/>
	<path class="st0" d="M654.52,227.14l17.4,37.27h-4.05l-5.85-12.24h-16.07l-5.8,12.24h-4.19l17.63-37.27H654.52z M654.05,235.05
		l-6.4,13.51h12.77L654.05,235.05z"/>
	<path class="st0" d="M703.86,242.55l-2.81,1.76c-2.43-3.22-5.76-4.86-9.95-4.86c-3.36,0-6.16,1.1-8.37,3.27
		c-2.21,2.18-3.32,4.76-3.32,7.87c0,2,0.49,3.9,1.52,5.66c1.01,1.78,2.43,3.15,4.19,4.15c1.8,0.96,3.79,1.46,6.01,1.46
		c4.05,0,7.35-1.61,9.92-4.86l2.81,1.86c-1.34,1.98-3.09,3.51-5.29,4.64c-2.23,1.08-4.77,1.62-7.61,1.62
		c-4.35,0-7.98-1.38-10.84-4.14c-2.89-2.78-4.31-6.16-4.31-10.14c0-2.66,0.67-5.12,1.99-7.43c1.35-2.28,3.2-4.07,5.56-5.35
		c2.34-1.3,4.99-1.93,7.86-1.93c1.83,0,3.62,0.28,5.31,0.82c1.68,0.58,3.14,1.3,4.33,2.2C702.04,240.03,703.03,241.19,703.86,242.55
		"/>
	<path class="st0" d="M737.44,242.55l-2.8,1.76c-2.43-3.22-5.74-4.86-9.95-4.86c-3.38,0-6.15,1.1-8.37,3.27
		c-2.24,2.18-3.32,4.76-3.32,7.87c0,2,0.5,3.9,1.51,5.66c1.01,1.78,2.43,3.15,4.2,4.15c1.78,0.96,3.79,1.46,6.01,1.46
		c4.03,0,7.36-1.61,9.91-4.86l2.8,1.86c-1.31,1.98-3.08,3.51-5.29,4.64c-2.25,1.08-4.77,1.62-7.59,1.62
		c-4.37,0-7.96-1.38-10.87-4.14c-2.89-2.78-4.29-6.16-4.29-10.14c0-2.66,0.67-5.12,2.01-7.43c1.34-2.28,3.18-4.07,5.54-5.35
		c2.32-1.3,4.96-1.93,7.88-1.93c1.81,0,3.55,0.28,5.29,0.82c1.7,0.58,3.12,1.3,4.3,2.2C735.62,240.03,736.62,241.19,737.44,242.55"
		/>
	<path class="st0" d="M767.49,255.27l2.99,1.57c-0.98,1.93-2.1,3.48-3.39,4.67c-1.29,1.17-2.74,2.08-4.34,2.67
		c-1.62,0.64-3.43,0.94-5.46,0.94c-4.5,0-8.01-1.48-10.57-4.4c-2.54-2.96-3.79-6.3-3.79-10.01c0-3.49,1.04-6.64,3.22-9.39
		c2.72-3.46,6.36-5.19,10.91-5.19c4.72,0,8.47,1.78,11.28,5.35c1.99,2.52,3.01,5.65,3.04,9.4h-24.8c0.06,3.22,1.09,5.85,3.05,7.89
		c1.98,2.06,4.43,3.09,7.33,3.09c1.41,0,2.79-0.27,4.11-0.75c1.32-0.48,2.47-1.12,3.37-1.95
		C765.38,258.38,766.39,257.08,767.49,255.27 M767.49,247.83c-0.47-1.9-1.18-3.39-2.08-4.52c-0.91-1.15-2.08-2.04-3.59-2.73
		c-1.48-0.71-3.07-1.05-4.68-1.05c-2.73,0-5.05,0.85-6.97,2.62c-1.46,1.25-2.5,3.15-3.24,5.68H767.49z"/>
	<path class="st0" d="M791.87,239.86l-2.28,2.34c-1.88-1.84-3.74-2.76-5.56-2.76c-1.16,0-2.15,0.39-2.96,1.13
		c-0.83,0.74-1.22,1.66-1.22,2.66c0,0.91,0.33,1.76,1.01,2.58c0.65,0.82,2.08,1.79,4.25,2.9c2.64,1.39,4.46,2.68,5.38,3.98
		c0.94,1.27,1.39,2.72,1.39,4.31c0,2.29-0.78,4.2-2.37,5.76c-1.58,1.57-3.59,2.36-5.98,2.36c-1.58,0-3.1-0.33-4.56-1.04
		c-1.44-0.7-2.63-1.65-3.58-2.86l2.24-2.53c1.79,2.05,3.72,3.07,5.75,3.07c1.43,0,2.64-0.48,3.66-1.35
		c0.95-0.93,1.47-2.01,1.47-3.22c0-1.02-0.32-1.93-1-2.75c-0.66-0.77-2.14-1.74-4.46-2.93c-2.51-1.27-4.19-2.54-5.08-3.8
		c-0.91-1.23-1.35-2.7-1.35-4.29c0-2.1,0.71-3.85,2.14-5.21c1.43-1.39,3.24-2.08,5.41-2.08
		C786.72,236.12,789.29,237.38,791.87,239.86"/>
	<path class="st0" d="M811.21,236.12c4.24,0,7.78,1.54,10.56,4.6c2.56,2.81,3.82,6.15,3.82,9.98c0,3.85-1.32,7.23-4.03,10.09
		c-2.66,2.89-6.12,4.33-10.34,4.33c-4.23,0-7.68-1.44-10.36-4.33c-2.7-2.86-4.03-6.24-4.03-10.09c0-3.84,1.27-7.13,3.8-9.95
		C803.43,237.68,806.93,236.12,811.21,236.12 M811.18,239.6c-2.94,0-5.46,1.08-7.59,3.27c-2.12,2.18-3.2,4.82-3.2,7.9
		c0,1.99,0.48,3.84,1.46,5.59c0.98,1.71,2.29,3.05,3.92,3.98c1.65,0.94,3.45,1.42,5.41,1.42c1.98,0,3.79-0.48,5.44-1.42
		c1.62-0.93,2.94-2.27,3.9-3.98c1-1.75,1.43-3.6,1.43-5.59c0-3.08-1.05-5.72-3.17-7.9C816.67,240.68,814.12,239.6,811.18,239.6"/>
	<path class="st0" d="M830.79,236.85h3.62v4.01c1.1-1.58,2.24-2.75,3.42-3.58c1.2-0.77,2.47-1.16,3.77-1.16c1,0,2.03,0.34,3.13,0.93
		l-1.85,3.01c-0.74-0.33-1.37-0.49-1.85-0.49c-1.2,0-2.36,0.49-3.41,1.47c-1.11,0.99-1.95,2.47-2.52,4.51
		c-0.44,1.58-0.68,4.76-0.68,9.55v9.3h-3.62V236.85z"/>
	<path class="st0" d="M849,225.5c0.8,0,1.48,0.27,2.05,0.84c0.58,0.57,0.85,1.27,0.85,2.08c0,0.8-0.27,1.48-0.85,2.06
		c-0.58,0.57-1.25,0.86-2.05,0.86c-0.81,0-1.48-0.29-2.05-0.86c-0.57-0.58-0.88-1.26-0.88-2.06c0-0.81,0.31-1.51,0.88-2.08
		C847.52,225.76,848.19,225.5,849,225.5 M847.23,236.85h3.54v27.55h-3.54V236.85z"/>
	<path class="st0" d="M871.21,236.12c4.24,0,7.77,1.54,10.56,4.6c2.53,2.81,3.81,6.15,3.81,9.98c0,3.85-1.34,7.23-4.03,10.09
		c-2.69,2.89-6.12,4.33-10.34,4.33c-4.27,0-7.71-1.44-10.38-4.33c-2.67-2.86-4.01-6.24-4.01-10.09c0-3.84,1.26-7.13,3.8-9.95
		C863.41,237.68,866.93,236.12,871.21,236.12 M871.19,239.6c-2.94,0-5.48,1.08-7.61,3.27c-2.13,2.18-3.17,4.82-3.17,7.9
		c0,1.99,0.48,3.84,1.43,5.59c0.98,1.71,2.29,3.05,3.94,3.98c1.62,0.94,3.41,1.42,5.41,1.42c1.98,0,3.77-0.48,5.43-1.42
		c1.63-0.93,2.94-2.27,3.9-3.98c0.98-1.75,1.46-3.6,1.46-5.59c0-3.08-1.07-5.72-3.2-7.9C876.65,240.68,874.14,239.6,871.19,239.6"/>
	<path class="st0" d="M906.02,239.86l-2.28,2.34c-1.91-1.84-3.77-2.76-5.58-2.76c-1.13,0-2.13,0.39-2.95,1.13
		c-0.83,0.74-1.26,1.66-1.26,2.66c0,0.91,0.34,1.76,1.02,2.58c0.7,0.82,2.1,1.79,4.28,2.9c2.65,1.39,4.43,2.68,5.39,3.98
		c0.92,1.27,1.4,2.72,1.4,4.31c0,2.29-0.8,4.2-2.39,5.76c-1.59,1.57-3.59,2.36-5.98,2.36c-1.59,0-3.12-0.33-4.55-1.04
		c-1.46-0.7-2.62-1.65-3.6-2.86l2.23-2.53c1.82,2.05,3.72,3.07,5.77,3.07c1.42,0,2.64-0.48,3.62-1.35c1.01-0.93,1.52-2.01,1.52-3.22
		c0-1.02-0.34-1.93-1.01-2.75c-0.66-0.77-2.16-1.74-4.47-2.93c-2.49-1.27-4.17-2.54-5.07-3.8c-0.91-1.23-1.34-2.7-1.34-4.29
		c0-2.1,0.71-3.85,2.14-5.21c1.43-1.39,3.24-2.08,5.42-2.08C900.9,236.12,903.44,237.38,906.02,239.86"/>
</g>
</svg>
