<?xml version="1.0" encoding="utf-8"?>
<!-- Generator: Adobe Illustrator 24.2.1, SVG Export Plug-In . SVG Version: 6.00 Build 0)  -->
<svg version="1.1" id="Layer_1" xmlns="http://www.w3.org/2000/svg" xmlns:xlink="http://www.w3.org/1999/xlink" x="0px" y="0px"
	 viewBox="0 0 1635.91 312.96" style="enable-background:new 0 0 1635.91 312.96;" xml:space="preserve">
<style type="text/css">
	.st0{fill:#FFDD00;}
	.st1{fill:#FFFFFF;}
</style>
<path d="M1635.91,287.76c0,13.92-11.28,25.2-25.2,25.2H25.2c-13.92,0-25.2-11.28-25.2-25.2V25.2C0,11.28,11.28,0,25.2,0h1585.51
	c13.92,0,25.2,11.28,25.2,25.2V287.76z"/>
<g>
	<polygon class="st0" points="54.16,39.33 91.08,39.33 99.88,104.86 100.16,104.86 109.86,39.33 152.54,39.33 162.2,104.86 
		162.48,104.86 171.31,39.33 208.22,39.33 185.74,143.48 141,143.48 131.35,76.01 131.07,76.01 121.4,143.48 76.67,143.48 	"/>
	<polygon class="st0" points="232.32,39.33 311.54,39.33 311.54,66.48 271.85,66.48 271.85,77.56 308.51,77.56 308.51,104.7 
		271.85,104.7 271.85,116.39 312.84,116.39 312.84,143.48 232.32,143.48 	"/>
	<path class="st0" d="M396.08,68.92c-0.15-6.5-3.76-8.66-9.1-8.66c-6.62,0-9.53,2.89-9.53,6.08c0,3.72,2.45,5.32,6.78,6.62
		c7.94,2.34,22.51,5.19,33.03,9.68c13.15,5.47,18.91,14.87,18.91,27.4c0,25.54-20.76,36.22-50.23,36.22
		c-25.1,0-48.17-7.79-48.17-34.92h39.54c0,2.9,0.59,5.78,2.17,7.95c1.58,1.99,4.18,3.29,8.07,3.29c6.05,0,9.97-3.89,9.97-8.5
		c0-3.88-3.03-5.9-6.95-7.07l-29.29-8.65c-16-4.76-21.61-14.46-21.61-27.85c0-21.65,17.46-33.92,47.88-33.92
		c25.96,0,45.47,8.11,45.47,32.33H396.08z"/>
	<polygon class="st0" points="484.2,67.35 458.54,67.35 458.54,39.33 551.14,39.33 551.14,67.35 525.47,67.35 525.47,143.48 
		484.2,143.48 	"/>
	<polygon class="st0" points="577.97,39.33 657.18,39.33 657.18,66.48 617.53,66.48 617.53,77.56 654.16,77.56 654.16,104.7 
		617.53,104.7 617.53,116.39 658.5,116.39 658.5,143.48 577.97,143.48 	"/>
	<path class="st0" d="M687.92,39.33h61.61c22.36,0,35.49,6.8,35.49,26.43c0,11.97-5.06,21.03-20.66,24.81v0.29
		c10.12,0.87,15.6,5.32,17.61,13.28c2.3,8.93,2.04,23.65,6.78,39.35h-40.38c-2.44-7.78-3.74-20.9-5.21-29.83
		c-0.84-5.22-3.46-7.2-10.09-7.2h-4.77v37.03h-40.39V39.33z M731.77,82.75c7.94,0,13.72-2.73,13.72-10.5
		c0-7.64-5.35-9.24-13.45-9.24h-3.73v19.74H731.77z"/>
	<polygon class="st0" points="816.35,39.33 865.81,39.33 887.85,102.39 888.16,102.39 888.16,39.33 921.64,39.33 921.64,143.48 
		872.19,143.48 850.09,80.02 849.8,80.02 849.8,143.48 816.35,143.48 	"/>
	<path class="st0" d="M435.3,233.31c0,25.12-18.04,37.69-49.47,37.69c-31.46,0-49.47-12.57-49.47-37.69v-69.22h41.25v67.5
		c0,8.22,3.89,11.43,8.22,11.43c4.33,0,8.23-3.21,8.23-11.43v-67.5h41.25V233.31z"/>
	<polygon class="st0" points="468.36,164.09 517.84,164.09 539.9,227.14 540.19,227.14 540.19,164.09 573.66,164.09 573.66,268.27 
		524.17,268.27 502.13,204.77 501.8,204.77 501.8,268.27 468.36,268.27 	"/>
	<rect x="607.45" y="164.09" class="st0" width="41.22" height="104.18"/>
	<path class="st0" d="M732.48,161.36c35.94,0,53.82,22.35,53.82,54.81c0,32.46-17.89,54.83-53.82,54.83
		c-35.91,0-53.79-22.38-53.79-54.83C678.69,183.71,696.56,161.36,732.48,161.36 M732.48,243.88c6.38,0,11.11-3.62,11.11-27.71
		c0-23.52-4.45-27.7-11.11-27.7c-6.61,0-11.09,4.18-11.09,27.7C721.39,240.26,726.18,243.88,732.48,243.88"/>
	<polygon class="st0" points="816.35,164.09 865.81,164.09 887.85,227.14 888.16,227.14 888.16,164.09 921.64,164.09 921.64,268.27 
		872.19,268.27 850.09,204.77 849.8,204.77 849.8,268.27 816.35,268.27 	"/>
	<g>
		<path class="st0" d="M1310.02,37.85h-17.58l-19.69,146.21h-0.63l-21.56-146.21h-95.24l-21.61,146.21h-0.63l-19.63-146.21h-82.35
			l50.2,232.34h99.8l21.53-150.52h0.66l21.53,150.52h99.8l5.01-23.23c-12.77-13.56-19.61-31.72-19.61-54.67V37.85z"/>
		<path class="st1" d="M1310.02,37.85V192.3c0,22.95,6.85,41.11,19.61,54.67l45.14-209.11H1310.02z"/>
		<path class="st0" d="M1438.73,37.85v150.61c0,18.33-8.7,25.47-18.34,25.47c-9.66,0-18.35-7.14-18.35-25.47V37.85h-19.63
			l-46.38,214.88c18.81,15.65,47.31,23.63,84.37,23.63c70.14,0,110.37-28.04,110.37-84.07V37.85H1438.73z"/>
		<polygon class="st0" points="970.72,37.85 957.02,37.85 1006.34,270.2 1020.06,270.2 		"/>
		<polygon class="st0" points="1043.83,270.2 1057.53,270.2 1008.21,37.85 994.5,37.85 		"/>
		<g>
			<path class="st0" d="M1558.54,48.96c-0.13-1.56-0.96-2.32-2.56-2.32c-1.22,0-2.45,0.64-2.45,1.98c0,1.66,1.49,1.85,2.81,2.17
				c2.34,0.6,5.8,1.26,5.8,4.35c0,3.82-3.33,5.14-6.63,5.14c-3.52,0-6.01-1.36-5.9-5.24h3.37c-0.13,1.71,0.85,2.86,2.58,2.86
				c1.32,0,3.07-0.4,3.07-2.05c0-1.81-2.2-1.94-3.52-2.28c-2.15-0.53-5.09-1.51-5.09-4.24c0-3.52,3.24-5.07,6.39-5.07
				c2.98,0,5.31,1.62,5.31,4.71H1558.54z"/>
			<path class="st0" d="M1574.31,59.96h-2.75l-4.07-13.22l-0.04,0.04v13.17h-3.09V44.57h5.41l3.22,11.19h0.04l3.5-11.19h5.22v15.39
				h-3.09V46.79l-0.04-0.04L1574.31,59.96z"/>
		</g>
	</g>
</g>
</svg>
