<svg id="Capa_1" data-name="Capa 1" xmlns="http://www.w3.org/2000/svg" viewBox="0 0 283.46 283.46"><path d="M153.54,115a32,32,0,0,0-44.39,44.4,2.72,2.72,0,0,0,2.28,1.23,2.75,2.75,0,0,0,2.29-4.26,26.4,26.4,0,0,1-4.25-11.9h3a2.74,2.74,0,1,0,0-5.48h-3a26.46,26.46,0,0,1,23.65-23.65v3a2.74,2.74,0,1,0,5.48,0v-3a26.35,26.35,0,0,1,11.91,4.24,2.74,2.74,0,0,0,3-4.57Z"/><path d="M146.07,124.73a2.75,2.75,0,0,0-3.76.94l-8,13.32H124.16a2.74,2.74,0,1,0,0,5.48h11.71a2.71,2.71,0,0,0,2.35-1.33L147,128.49A2.74,2.74,0,0,0,146.07,124.73Z"/><path d="M182.75,130.2h-4.67a43.9,43.9,0,0,0-16-23.51V94.86a8.61,8.61,0,0,0-5.86-8.15V53.84a5.68,5.68,0,0,0-5.67-5.67H121.23a5.69,5.69,0,0,0-5.68,5.67V86.71a8.61,8.61,0,0,0-5.85,8.15v11.83a43.71,43.71,0,0,0,0,70.08v11.84a8.61,8.61,0,0,0,5.85,8.15v32.86a5.68,5.68,0,0,0,5.68,5.67h29.29a5.67,5.67,0,0,0,5.67-5.67V196.76a8.62,8.62,0,0,0,5.86-8.15V176.77a43.86,43.86,0,0,0,16-23.51h4.67a8.61,8.61,0,0,0,8.6-8.6V138.8A8.61,8.61,0,0,0,182.75,130.2ZM138.61,53.66h11.91a.18.18,0,0,1,.19.18V86.26h-12.1ZM121,53.84a.18.18,0,0,1,.19-.18h11.9v32.6H121Zm-5.86,41h0a3.12,3.12,0,0,1,3.12-3.12h35.15a3.12,3.12,0,0,1,3.12,3.12v8.33a43.71,43.71,0,0,0-41.39,0V94.86Zm17.95,135h-11.9a.19.19,0,0,1-.19-.19V197.21h12.09Zm17.58-.19a.19.19,0,0,1-.19.19H138.61v-32.6h12.1v32.41Zm5.86-41h0a3.12,3.12,0,0,1-3.12,3.11H118.3a3.12,3.12,0,0,1-3.12-3.11v-8.34a43.63,43.63,0,0,0,41.39,0Zm-20.7-8.6a38.28,38.28,0,1,1,38.28-38.28A38.32,38.32,0,0,1,135.87,180Zm50-35.35a3.12,3.12,0,0,1-3.11,3.12h-3.54a43.78,43.78,0,0,0,0-12.1h3.54a3.12,3.12,0,0,1,3.11,3.12Z"/><path d="M162.6,124.06a2.74,2.74,0,0,0-4.57,3,26.31,26.31,0,0,1,4.24,11.9h-3a2.74,2.74,0,1,0,0,5.48h3a26.48,26.48,0,0,1-23.66,23.66v-3a2.74,2.74,0,0,0-5.48,0v3a26.31,26.31,0,0,1-11.9-4.24,2.74,2.74,0,1,0-3,4.57,32,32,0,0,0,44.4-44.4Z"/></svg>