<svg id="Capa_1" data-name="Capa 1" xmlns="http://www.w3.org/2000/svg" viewBox="0 0 142.03 10.08"><path d="M6.54,7.11C6.54,9.32,4,9.45,2.92,9.45c-.5,0-.81,0-.81,0V5S3,5,3.49,5C5,5,6.54,5.37,6.54,7.11m1.65.15c0-2.46-3.42-2.67-3.42-2.67S7.1,4,7.1,2.25C7.1.27,4.46,0,3.29,0H0A.67.67,0,0,1,.48.63V9.38a.68.68,0,0,1-.48.67H3.74c3.7,0,4.45-1.64,4.45-2.79M5.64,2.34c0,1.87-1.95,2-2.8,2-.42,0-.73,0-.73,0V.6s.4,0,1.14,0c1.14,0,2.39.48,2.39,1.77"/><path d="M115,7.11c0,2.21-2.53,2.34-3.62,2.34-.5,0-.81,0-.81,0V5s.85,0,1.38,0c1.46,0,3,.39,3,2.13m1.65.15c0-2.46-3.42-2.67-3.42-2.67s2.33-.59,2.33-2.34c0-2-2.64-2.3-3.81-2.3h-3.29a.67.67,0,0,1,.48.68V9.38a.68.68,0,0,1-.48.67h3.74c3.7,0,4.45-1.64,4.45-2.79m-2.55-4.92c0,1.87-2,2-2.8,2-.42,0-.73,0-.73,0V.6s.4,0,1.14,0c1.14,0,2.39.48,2.39,1.77"/><path d="M19.54,10.05c-.61-.23-.73-.41-.87-.72L13.94-.28s-4.45,9-4.74,9.61a1.74,1.74,0,0,1-.8.72h2.11c-.45-.15-.5-.38-.36-.72.07-.18.52-1.16,1.09-2.28h4.48c.53,1.15,1,2.1,1.12,2.28.14.34,0,.54-.43.72ZM15.42,6.41H11.54c.75-1.6,1.93-4.15,1.93-4.15s1,2.28,1.95,4.15"/><path d="M29.78.64v9.69s-8.24-8.57-8.24-8.72V9.38a.68.68,0,0,0,.49.67H20.28a.72.72,0,0,0,.45-.67V1.2c0-.43,0-.46-.2-.7a2.3,2.3,0,0,0-.8-.53h2.38L29,7.19V.64A.72.72,0,0,0,28.51,0h1.74a.69.69,0,0,0-.47.67"/><path d="M41.9,10.05c-.6-.23-.72-.41-.86-.72-.27-.57-4.73-9.61-4.73-9.61s-4.45,9-4.74,9.61a1.74,1.74,0,0,1-.8.72h2.12c-.46-.15-.51-.38-.37-.72.07-.18.52-1.16,1.09-2.28h4.48c.53,1.15,1,2.1,1.12,2.28.14.34,0,.55-.43.72ZM37.79,6.41H33.9c.76-1.6,1.94-4.15,1.94-4.15s1,2.28,1.95,4.15"/><path d="M52.22.64v9.69S44,1.76,44,1.62V9.39a.68.68,0,0,0,.48.66H42.73a.72.72,0,0,0,.45-.66V1.2c0-.43,0-.46-.21-.69a2.18,2.18,0,0,0-.8-.54h2.39L51.4,7.19V.64A.7.7,0,0,0,51,0h1.74a.71.71,0,0,0-.47.67"/><path d="M64.17,10.05c-.6-.24-.72-.42-.86-.73L58.57-.28s-4.44,9-4.73,9.6a1.7,1.7,0,0,1-.8.73h2.11c-.45-.15-.5-.39-.36-.73.07-.18.52-1.15,1.09-2.27h4.47c.54,1.15,1,2.09,1.13,2.27.13.34,0,.55-.44.73ZM60.06,6.41H56.17c.76-1.6,1.94-4.15,1.94-4.15s1,2.28,2,4.15"/><path d="M79.51,10.05a3.46,3.46,0,0,1-1.1-.59A34.41,34.41,0,0,1,75.81,6a2.64,2.64,0,0,0-1.68-1.11,2.63,2.63,0,0,0,2.53-2.5c0-.93-.54-2.46-4-2.46H69.41a.69.69,0,0,1,.47.65V9.38a.74.74,0,0,1-.47.67H72a.76.76,0,0,1-.49-.67V5.3h1c.9,0,1.26.64,1.71,1.23.6.84,1.23,1.74,2.11,2.85a1.79,1.79,0,0,0,1.42.7ZM75.12,2.48c0,1.55-1.3,2.22-2.61,2.22-.45,0-1,0-1,0V.6s.52,0,1.3,0a2,2,0,0,1,2.32,1.93"/><path d="M87.47,10.05h-7A.69.69,0,0,0,81,9.38V.64A.72.72,0,0,0,80.56,0h6.5l0,1.15A1.8,1.8,0,0,0,85.64.6h-3V4.14h2.81a.8.8,0,0,0,.61-.41V5.17a.8.8,0,0,0-.61-.41H82.67V9.42h2c1.87,0,2.52,0,3.16-.94Z"/><path d="M97,2.72C97,1.56,96.33,0,92.88,0h-3.3a.73.73,0,0,1,.48.67V9.38a.76.76,0,0,1-.49.67h2.58a.71.71,0,0,1-.48-.67v-4a5.66,5.66,0,0,0,3.43-.09A2.88,2.88,0,0,0,97,2.72m-1.48,0c0,2-2,2.31-3,2.31a2.75,2.75,0,0,1-.84-.1V.6a9.48,9.48,0,0,1,1.15,0c1.74,0,2.64.85,2.64,2.2"/><path d="M106.87.64V6.85c0,2.43-1.83,3.34-4,3.34-1.9,0-4.34-.8-4.34-3.31V.64A.78.78,0,0,0,98,0h2.77a.79.79,0,0,0-.57.67V6.91c0,1,.41,2.59,2.85,2.59s3.06-1.25,3-2.59V.64a.68.68,0,0,0-.45-.67h1.69a.69.69,0,0,0-.47.67"/><path d="M125,10.05h-6.88a.72.72,0,0,0,.48-.67V.63a.68.68,0,0,0-.48-.66h2.59a.69.69,0,0,0-.46.66V9.42h1.85c2.07,0,2.66,0,3.25-.95Z"/><path d="M126.9,10.05a.73.73,0,0,0,.46-.67V.63A.69.69,0,0,0,126.9,0h2.56a.69.69,0,0,0-.45.66V9.38a.74.74,0,0,0,.45.67Z"/><path d="M141.87,9.17a9.68,9.68,0,0,1-4.36,1c-3.42,0-6.43-2.06-6.43-5.16,0-2.53,2.23-5.22,6.62-5.22a11.28,11.28,0,0,1,4.08.85s.19,2.26.16,2.2a4.45,4.45,0,0,0-4.1-2.42c-3.3,0-5,2-5,4.4a4.58,4.58,0,0,0,5,4.69A4.48,4.48,0,0,0,142,7.12s-.15,2.05-.15,2.05"/></svg>