<svg id="Capa_1" data-name="Capa 1" xmlns="http://www.w3.org/2000/svg" viewBox="0 0 115.16 36.9"><path d="M20.88,17.51a1.67,1.67,0,0,1-.6.58l-8.87,5a1.65,1.65,0,0,1-1.64,0L.94,18a1.62,1.62,0,0,1-.81-1.4l0-10.09a1.58,1.58,0,0,1,.22-.8A1.62,1.62,0,0,1,1,5.14l8.87-5a1.68,1.68,0,0,1,1.64,0l8.83,5.08a1.62,1.62,0,0,1,.81,1.4l0,10.08a1.61,1.61,0,0,1-.22.81m-1.72-.57c.57.14.78-.2.37-.62l-1-1a2.78,2.78,0,0,1-.57-1.8l0-5.12a1.83,1.83,0,0,0-.83-1.44L11.49,3.66a1.87,1.87,0,0,0-1.68,0L4.1,6.88a1.82,1.82,0,0,0-.85,1.43l0,6.49a1.84,1.84,0,0,0,.84,1.44l5.68,3.27a1.84,1.84,0,0,0,1.68,0l4.63-2.6a2.45,2.45,0,0,1,1.71-.28Z"/><path d="M38.52,15a1.5,1.5,0,0,0-1.09.43,5.09,5.09,0,0,1-1.59,1,4.85,4.85,0,0,1-1.91.37,5,5,0,0,1-1.93-.4,5.15,5.15,0,0,1-1.57-1.07,4.9,4.9,0,0,1-1.07-1.59A5,5,0,0,1,29,11.87a5.1,5.1,0,0,1,.4-1.94,5,5,0,0,1,1.07-1.59A5.24,5.24,0,0,1,32,7.27,4.81,4.81,0,0,1,34,6.9a4.86,4.86,0,0,1,1.91.38,6,6,0,0,1,1.59,1,1.49,1.49,0,0,0,1.08.44,1.44,1.44,0,0,0,1-.39,1.32,1.32,0,0,0,.48-1,1.83,1.83,0,0,0-.51-1.1A5.8,5.8,0,0,0,38.3,5.12a10,10,0,0,0-1.82-.92A7,7,0,0,0,34,3.78h0a8.85,8.85,0,0,0-3.2.7A8.57,8.57,0,0,0,28.24,6.2a8.06,8.06,0,0,0-1.71,2.54,7.73,7.73,0,0,0-.63,3.12,7.92,7.92,0,0,0,.62,3.21,8,8,0,0,0,1.73,2.55A8.31,8.31,0,0,0,30.8,19.3a8.06,8.06,0,0,0,3.11.61,8.42,8.42,0,0,0,2.56-.36,8.31,8.31,0,0,0,1.89-.86,4.73,4.73,0,0,0,1.22-1.08,1.94,1.94,0,0,0,.48-1.08,1.45,1.45,0,0,0-.49-1.1A1.54,1.54,0,0,0,38.52,15Z"/><path d="M51.82,9.23a6.68,6.68,0,0,0-2-1.37,5.86,5.86,0,0,0-2.4-.52h0a6.82,6.82,0,0,0-2.5.55,6.49,6.49,0,0,0-2,1.34,6.19,6.19,0,0,0-1.83,4.42,6.31,6.31,0,0,0,.48,2.51,6.13,6.13,0,0,0,1.36,2,6.32,6.32,0,0,0,8.9,0,6.56,6.56,0,0,0,1.35-2,6.08,6.08,0,0,0,.51-2.43,6.22,6.22,0,0,0-.5-2.46A6.67,6.67,0,0,0,51.82,9.23Zm-4.47,8.1a3.67,3.67,0,0,1-2.58-1.08A3.75,3.75,0,0,1,44,15.08a3.56,3.56,0,0,1-.28-1.42A3.65,3.65,0,0,1,44,12.23a3.77,3.77,0,0,1,.79-1.17A3.87,3.87,0,0,1,46,10.28,3.56,3.56,0,0,1,47.38,10,3.67,3.67,0,0,1,50,11.08a3.71,3.71,0,0,1,.79,1.18,3.83,3.83,0,0,1,.28,1.43,4,4,0,0,1-.29,1.42,3.76,3.76,0,0,1-.8,1.16,3.52,3.52,0,0,1-1.18.78A3.48,3.48,0,0,1,47.35,17.33Z"/><path d="M65.82,9.29a6.56,6.56,0,0,0-2-1.37,5.82,5.82,0,0,0-2.4-.52h0a6.8,6.8,0,0,0-2.49.54,6.7,6.7,0,0,0-2,1.35,6.14,6.14,0,0,0-1.34,2,6.22,6.22,0,0,0-.49,2.44,6.09,6.09,0,0,0,1.84,4.5,6.45,6.45,0,0,0,2,1.31,6.35,6.35,0,0,0,6.92-1.35,6.49,6.49,0,0,0,1.35-2,6,6,0,0,0,.51-2.42,6.18,6.18,0,0,0-.5-2.46A6.49,6.49,0,0,0,65.82,9.29Zm-4.47,8.1a3.49,3.49,0,0,1-1.41-.29,3.77,3.77,0,0,1-1.17-.79A3.87,3.87,0,0,1,58,15.14a3.56,3.56,0,0,1-.28-1.42,3.67,3.67,0,0,1,1.08-2.6A3.82,3.82,0,0,1,60,10.33a3.66,3.66,0,0,1,1.41-.28,3.85,3.85,0,0,1,1.43.3,3.66,3.66,0,0,1,1.17.79,3.71,3.71,0,0,1,.79,1.18,3.8,3.8,0,0,1,0,2.84,3.68,3.68,0,0,1-2,1.95A3.61,3.61,0,0,1,61.35,17.39Z"/><path d="M99.62,9.43a6.81,6.81,0,0,0-2-1.37,5.86,5.86,0,0,0-2.4-.52h0a6.9,6.9,0,0,0-2.5.54,6.65,6.65,0,0,0-2,1.35,6.25,6.25,0,0,0-1.84,4.42,6.26,6.26,0,0,0,.49,2.5,6,6,0,0,0,1.35,2,6.55,6.55,0,0,0,2,1.31,6.39,6.39,0,0,0,2.44.48,6.24,6.24,0,0,0,2.48-.49,6.39,6.39,0,0,0,2-1.34,6.8,6.8,0,0,0,1.35-2,6,6,0,0,0,.5-2.42,5.82,5.82,0,0,0-.5-2.46A6.64,6.64,0,0,0,99.62,9.43Zm-4.47,8.1a3.57,3.57,0,0,1-1.42-.29,3.73,3.73,0,0,1-1.16-.79,3.82,3.82,0,0,1-.79-1.18,3.48,3.48,0,0,1-.27-1.41,3.67,3.67,0,0,1,1.08-2.6,3.77,3.77,0,0,1,1.17-.79,3.56,3.56,0,0,1,1.42-.28,3.66,3.66,0,0,1,1.43.3,3.61,3.61,0,0,1,1.17.79,3.7,3.7,0,0,1,1.06,2.61,3.49,3.49,0,0,1-.29,1.41,3.66,3.66,0,0,1-.79,1.17,3.79,3.79,0,0,1-1.18.78A3.65,3.65,0,0,1,95.15,17.53Z"/><path d="M110.84,13.91l4-4,0,0a1.39,1.39,0,0,0,.36-.93,1.21,1.21,0,0,0-.43-1,1.37,1.37,0,0,0-.88-.33A1.29,1.29,0,0,0,113,8L109,12l-4-4.1a1.25,1.25,0,0,0-.91-.37,1.43,1.43,0,0,0-.89.32,1.18,1.18,0,0,0-.46,1,1.49,1.49,0,0,0,.37.92l4,4.12-4,4,0,0a1.42,1.42,0,0,0-.35.91,1.23,1.23,0,0,0,.41.92,1.28,1.28,0,0,0,1.85,0l4-4,4,4.05a1.27,1.27,0,0,0,.94.42,1.3,1.3,0,0,0,.91-.37,1.28,1.28,0,0,0,.42-.92,1.47,1.47,0,0,0-.34-.91Z"/><path d="M70.35,2.77a1.37,1.37,0,0,0-.93.33,1,1,0,0,0-.39.8L69,19a1,1,0,0,0,.38.8,1.43,1.43,0,0,0,.93.34,1.42,1.42,0,0,0,.94-.33,1,1,0,0,0,.38-.8l.07-15.09a1,1,0,0,0-.39-.8A1.43,1.43,0,0,0,70.35,2.77Z"/><path d="M85.56,9.38a6.47,6.47,0,0,0-2-1.36,5.68,5.68,0,0,0-2.4-.53h0a6.62,6.62,0,0,0-2.5.55,6.49,6.49,0,0,0-2,1.34,4.12,4.12,0,0,0-.28.31l0-5.76a1,1,0,0,0-.38-.8,1.43,1.43,0,0,0-.93-.34,1.37,1.37,0,0,0-.93.33,1,1,0,0,0-.39.8L73.7,19a1,1,0,0,0,.38.81,1.49,1.49,0,0,0,1.86,0,1,1,0,0,0,.39-.8V18c.1.11.2.23.32.34a6.16,6.16,0,0,0,2,1.31,6.25,6.25,0,0,0,2.44.48,6,6,0,0,0,2.48-.49,6.12,6.12,0,0,0,2-1.34,6.49,6.49,0,0,0,1.35-2,6.13,6.13,0,0,0,.51-2.42,6.22,6.22,0,0,0-.5-2.46A6.79,6.79,0,0,0,85.56,9.38Zm-4.47,8.1a3.66,3.66,0,0,1-1.41-.28,3.86,3.86,0,0,1-1.17-.8,3.75,3.75,0,0,1-.78-1.17,3.53,3.53,0,0,1-.28-1.42,3.67,3.67,0,0,1,1.08-2.6,3.54,3.54,0,0,1,2.59-1.06,3.67,3.67,0,0,1,2.6,1.08,3.65,3.65,0,0,1,1.07,2.61,3.76,3.76,0,0,1-.3,1.42,3.57,3.57,0,0,1-.79,1.16,3.52,3.52,0,0,1-1.18.78A3.48,3.48,0,0,1,81.09,17.48Z"/><path d="M82.39,29.52a.92.92,0,0,0,.42-.1v.41a1.27,1.27,0,0,1-.54.11c-.41,0-.61-.23-.61-.67v-2.1h-.38v-.39h.38v-.54h.48v.54h.65v.4h-.66v2.06C82.15,29.42,82.23,29.52,82.39,29.52Z"/><path d="M83.63,27.17a1.53,1.53,0,0,1,1.05-.43,1.54,1.54,0,0,1,1,.44,1.47,1.47,0,0,1,.47,1.17,1.34,1.34,0,0,1,0,.19H83.64a1,1,0,0,0,.36.73,1,1,0,0,0,.68.27,1.07,1.07,0,0,0,.83-.34l.38.22a1.48,1.48,0,0,1-1.22.54,1.41,1.41,0,0,1-.52-.1,2,2,0,0,1-.49-.29,1.4,1.4,0,0,1-.37-.51,1.67,1.67,0,0,1-.15-.71A1.51,1.51,0,0,1,83.63,27.17Zm1.72.26a1,1,0,0,0-.67-.26,1,1,0,0,0-.68.25,1.11,1.11,0,0,0-.36.73h2.07A1,1,0,0,0,85.35,27.43Z"/><path d="M88.22,26.76a1.49,1.49,0,0,1,.72.19,1.42,1.42,0,0,1,.57.57l-.43.15a.94.94,0,0,0-.38-.36,1,1,0,0,0-.49-.13,1,1,0,0,0-.73.31,1.23,1.23,0,0,0-.33.87,1.15,1.15,0,0,0,.33.87,1,1,0,0,0,.72.32,1,1,0,0,0,.49-.13.88.88,0,0,0,.38-.36l.44.16a1.49,1.49,0,0,1-.58.56,1.5,1.5,0,0,1-.73.19,1.43,1.43,0,0,1-.52-.11,1.53,1.53,0,0,1-.87-.8,1.8,1.8,0,0,1-.14-.71,1.63,1.63,0,0,1,.15-.7,1.3,1.3,0,0,1,.38-.5,1.76,1.76,0,0,1,.49-.29A1.42,1.42,0,0,1,88.22,26.76Z"/><path d="M91.68,26.78a1.21,1.21,0,0,1,.85.33,1.36,1.36,0,0,1,.34,1V30h-.48v-1.8a1,1,0,0,0-.22-.71.77.77,0,0,0-.58-.23,1,1,0,0,0-.69.3,1.15,1.15,0,0,0-.36.61v1.83h-.48V26.8h.49v.75a1,1,0,0,1,.36-.5A1.16,1.16,0,0,1,91.68,26.78Z"/><path d="M94.46,26.89a1.43,1.43,0,0,1,1.05,0,1.8,1.8,0,0,1,.49.3,1.28,1.28,0,0,1,.37.5,1.62,1.62,0,0,1,.14.7,1.58,1.58,0,0,1-.25.9,1.51,1.51,0,0,1-.59.54A1.6,1.6,0,0,1,95,30a1.43,1.43,0,0,1-.52-.11A2,2,0,0,1,94,29.6a1.42,1.42,0,0,1-.38-.51,1.83,1.83,0,0,1-.14-.71,1.63,1.63,0,0,1,.15-.7,1.3,1.3,0,0,1,.38-.5A1.55,1.55,0,0,1,94.46,26.89Zm1.25.63a1,1,0,0,0-1.46,0,1.18,1.18,0,0,0-.33.86,1.15,1.15,0,0,0,.33.88,1,1,0,0,0,.72.31,1,1,0,0,0,.73-.31,1.12,1.12,0,0,0,.33-.87A1.14,1.14,0,0,0,95.71,27.52Z"/><path d="M97.63,25.75V30h-.49l0-4.21Z"/><path d="M99.26,26.91a1.43,1.43,0,0,1,1,0,2,2,0,0,1,.49.29,1.4,1.4,0,0,1,.37.51,1.62,1.62,0,0,1,.14.7,1.6,1.6,0,0,1-.84,1.44,1.6,1.6,0,0,1-.7.17,1.43,1.43,0,0,1-.52-.11,2,2,0,0,1-.49-.29,1.42,1.42,0,0,1-.38-.51,1.83,1.83,0,0,1-.14-.71,1.6,1.6,0,0,1,.15-.7,1.3,1.3,0,0,1,.38-.5A1.55,1.55,0,0,1,99.26,26.91Zm1.25.63a1,1,0,0,0-.73-.31,1.06,1.06,0,0,0-.73.3,1.23,1.23,0,0,0-.33.87,1.15,1.15,0,0,0,.33.88,1,1,0,0,0,.72.31,1,1,0,0,0,.73-.31,1.12,1.12,0,0,0,.33-.87A1.14,1.14,0,0,0,100.51,27.54Z"/><path d="M104.36,26.86h.48V30a1.22,1.22,0,0,1-.14.59,1,1,0,0,1-.35.39,1.54,1.54,0,0,1-.44.19,1.8,1.8,0,0,1-.45.06,1.58,1.58,0,0,1-1-.26v-.43a1.53,1.53,0,0,0,1,.28.94.94,0,0,0,.64-.22.74.74,0,0,0,.26-.6v-.61a1,1,0,0,1-.42.47,1.2,1.2,0,0,1-.65.18,1.46,1.46,0,0,1-1-.43,1.61,1.61,0,0,1,1-2.78A1.26,1.26,0,0,1,104,27a1,1,0,0,1,.41.46Zm-1,2.75a1,1,0,0,0,.73-.3,1.17,1.17,0,0,0,.32-.88,1.15,1.15,0,0,0-.31-.88,1,1,0,0,0-.73-.31,1,1,0,0,0-.73.31,1.33,1.33,0,0,0,0,1.74A1,1,0,0,0,103.33,29.61Z"/><path d="M106.11,26.87V30h-.49l0-3.13Zm.61-1.49-.65.87h-.43l.4-.87Z"/><path d="M108.29,26.84a1.2,1.2,0,0,1,.65.18,1,1,0,0,1,.42.46v-.6h.48V30h-.48V29.4a1,1,0,0,1-.42.47,1.2,1.2,0,0,1-.65.18,1.46,1.46,0,0,1-1-.43,1.53,1.53,0,0,1-.46-1.18,1.57,1.57,0,0,1,.47-1.18A1.51,1.51,0,0,1,108.29,26.84Zm0,.42a1.07,1.07,0,0,0-.73.31,1.15,1.15,0,0,0-.33.87,1.1,1.1,0,0,0,.32.87,1,1,0,0,0,1.46,0,1.17,1.17,0,0,0,.32-.88,1.15,1.15,0,0,0-.31-.88A1,1,0,0,0,108.34,27.26Z"/><path d="M83,32.6a1.32,1.32,0,0,1,.51.1,1.57,1.57,0,0,1,.47.3,1.27,1.27,0,0,1,.36.5,1.8,1.8,0,0,1,.13.71A1.49,1.49,0,0,1,84,35.38a1.46,1.46,0,0,1-1,.43,1.23,1.23,0,0,1-.65-.19,1,1,0,0,1-.42-.47V36.9h-.48l0-4.27h.48v.59a1,1,0,0,1,.41-.45A1.26,1.26,0,0,1,83,32.6Zm-.8,2.48a1.07,1.07,0,0,0,.73.31,1,1,0,0,0,.73-.32,1.33,1.33,0,0,0,0-1.74,1,1,0,0,0-1.46,0,1.14,1.14,0,0,0-.31.87A1.19,1.19,0,0,0,82.16,35.08Z"/><path d="M86.41,32.61a1.2,1.2,0,0,1,.65.18,1,1,0,0,1,.42.46v-.6H88v3.14h-.48v-.61a1,1,0,0,1-.42.47,1.2,1.2,0,0,1-.65.18,1.46,1.46,0,0,1-1-.43,1.53,1.53,0,0,1-.46-1.18A1.57,1.57,0,0,1,85.38,33,1.51,1.51,0,0,1,86.41,32.61Zm0,.42a1.07,1.07,0,0,0-.73.31,1.15,1.15,0,0,0-.33.87,1.1,1.1,0,0,0,.32.87,1,1,0,0,0,1.46,0,1.17,1.17,0,0,0,.32-.88,1.15,1.15,0,0,0-.31-.88A1,1,0,0,0,86.46,33Z"/><path d="M90.24,32.63l.23,0v.44h-.24a1,1,0,0,0-.75.3,1.31,1.31,0,0,0-.37.82v1.59h-.49V32.66h.49v1a1.15,1.15,0,0,1,.35-.7A1.09,1.09,0,0,1,90.24,32.63Z"/><path d="M92.23,32.63a1.4,1.4,0,0,1,.65.18,1,1,0,0,1,.42.46v-.59h.48v3.13h-.48v-.62a1,1,0,0,1-.42.47,1.27,1.27,0,0,1-.66.19,1.5,1.5,0,0,1-1-.44,1.52,1.52,0,0,1-.46-1.18,1.5,1.5,0,0,1,.47-1.17A1.46,1.46,0,0,1,92.23,32.63Zm0,.43a1,1,0,0,0-.73.31,1.28,1.28,0,0,0,0,1.73,1,1,0,0,0,.73.32,1.06,1.06,0,0,0,.73-.3,1.19,1.19,0,0,0,.32-.88,1.21,1.21,0,0,0-.31-.88A1,1,0,0,0,92.28,33.06Z"/><path d="M97.22,35.44a1,1,0,0,0,.42-.1v.41a1.19,1.19,0,0,1-.53.11c-.41,0-.61-.23-.61-.67v-2.1h-.38v-.39h.38v-.54H97v.54h.66v.4H97v2.06C97,35.34,97.05,35.44,97.22,35.44Z"/><path d="M100.51,32.71H101v3.13h-.49v-.76a1.05,1.05,0,0,1-.37.53,1,1,0,0,1-.76.26,1.16,1.16,0,0,1-.83-.32,1.38,1.38,0,0,1-.33-1V32.7h.48v1.83a1,1,0,0,0,.2.7.72.72,0,0,0,.56.22.91.91,0,0,0,.68-.3,1.37,1.37,0,0,0,.37-.66Z"/><path d="M106.28,32.73l-1.47,3.12h-.08l-1.43-3.13h.5l1,2.28,1-2.27Z"/><path d="M107.34,31.65v.45h-.49v-.45Zm0,1.08,0,3.13h-.48V32.73Z"/><path d="M110.58,31.66h.48v4.22h-.49v-.62a1,1,0,0,1-.43.47,1.13,1.13,0,0,1-.65.19,1.52,1.52,0,0,1-1-.44A1.54,1.54,0,0,1,108,34.3a1.75,1.75,0,0,1,.14-.7,1.5,1.5,0,0,1,1.35-.89,1.35,1.35,0,0,1,.66.17,1,1,0,0,1,.41.46Zm-1.77,3.52a1,1,0,0,0,.74.31.94.94,0,0,0,.72-.3,1.39,1.39,0,0,0,0-1.76,1,1,0,0,0-.72-.3,1,1,0,0,0-.74.31,1.12,1.12,0,0,0-.33.86A1.22,1.22,0,0,0,108.81,35.18Z"/><path d="M113.09,32.72a1.2,1.2,0,0,1,.65.18,1,1,0,0,1,.42.46v-.6h.48v3.13h-.48v-.61a1,1,0,0,1-.42.47,1.2,1.2,0,0,1-.65.18,1.46,1.46,0,0,1-1-.43,1.53,1.53,0,0,1-.46-1.18,1.57,1.57,0,0,1,.47-1.18A1.5,1.5,0,0,1,113.09,32.72Zm0,.42a1,1,0,0,0-.73.31,1.15,1.15,0,0,0-.33.87,1.1,1.1,0,0,0,.32.87,1,1,0,0,0,1.46,0,1.17,1.17,0,0,0,.32-.88,1.15,1.15,0,0,0-.31-.88A1,1,0,0,0,113.14,33.14Z"/><path d="M79.62,34.94v.42h-3v-.43Z"/></svg>