<svg id="Capa_1" data-name="Capa 1" xmlns="http://www.w3.org/2000/svg" viewBox="0 0 85.19 20.31"><path d="M28.36,20.31H24.91V15.69h3.34v.55H25.52v1.41h2.56v.55H25.52v1.56h2.84Z"/><path d="M31.91,20.4a2.57,2.57,0,0,1-.84-.12,1.71,1.71,0,0,1-.6-.32,1.33,1.33,0,0,1-.36-.49,1.71,1.71,0,0,1-.14-.61h.58a1,1,0,0,0,.14.44.86.86,0,0,0,.29.31,1.28,1.28,0,0,0,.41.18,1.93,1.93,0,0,0,.49.06,2.16,2.16,0,0,0,.46-.05,1.13,1.13,0,0,0,.35-.16.69.69,0,0,0,.24-.88.65.65,0,0,0-.24-.22,1.82,1.82,0,0,0-.44-.18l-.66-.16a3.15,3.15,0,0,1-.67-.2,1.37,1.37,0,0,1-.45-.26,1,1,0,0,1-.34-.78,1.1,1.1,0,0,1,.12-.51,1.23,1.23,0,0,1,.33-.39,1.4,1.4,0,0,1,.5-.26,2,2,0,0,1,.67-.1,2.5,2.5,0,0,1,.69.09,1.52,1.52,0,0,1,.54.27,1.1,1.1,0,0,1,.35.42,1.38,1.38,0,0,1,.15.58h-.59c-.06-.54-.43-.82-1.12-.82a1.32,1.32,0,0,0-.78.19.58.58,0,0,0-.27.5.49.49,0,0,0,.05.25.39.39,0,0,0,.16.18,1.3,1.3,0,0,0,.33.14,3.24,3.24,0,0,0,.5.13,7.56,7.56,0,0,1,1,.27,1.26,1.26,0,0,1,.33.16.92.92,0,0,1,.28.24,1.13,1.13,0,0,1,.19.32,1.3,1.3,0,0,1,.07.41,1.26,1.26,0,0,1-.12.55,1.44,1.44,0,0,1-.35.43,1.78,1.78,0,0,1-.53.28A2.11,2.11,0,0,1,31.91,20.4Z"/><path d="M38.67,16.24H37.13v4.07h-.61V16.24H35v-.55h3.67Z"/><path d="M40.44,19.91a.41.41,0,0,1-.4.4.38.38,0,0,1-.29-.12.38.38,0,0,1-.12-.28.4.4,0,0,1,.12-.29.38.38,0,0,1,.29-.11.37.37,0,0,1,.28.11A.4.4,0,0,1,40.44,19.91Z"/><path d="M46.16,20.31h-.58v-4l-.66.57-.31-.37,1-.84h.58Z"/><path d="M51.46,18A2.62,2.62,0,0,1,51,19.68a1.65,1.65,0,0,1-1.33.63,1.6,1.6,0,0,1-1.19-.55l.38-.37a1,1,0,0,0,.81.36c.85,0,1.28-.58,1.28-1.74,0-.08,0-.14,0-.2a1.44,1.44,0,0,1-1.31.76,1.38,1.38,0,0,1-1.1-.46,1.44,1.44,0,0,1-.35-1,1.37,1.37,0,0,1,.4-1,1.45,1.45,0,0,1,1.09-.45,1.61,1.61,0,0,1,1.37.77A2.69,2.69,0,0,1,51.46,18Zm-.68-.76a1.57,1.57,0,0,0-.45-.7,1.06,1.06,0,0,0-.71-.29.91.91,0,0,0-.69.28.84.84,0,0,0,0,1.19.9.9,0,0,0,.67.27,1.34,1.34,0,0,0,.69-.2A1.22,1.22,0,0,0,50.78,17.25Z"/><path d="M56.06,16.22a6.35,6.35,0,0,0-1.49,1.65,4.51,4.51,0,0,0-.51,2.21c0,.05,0,.13,0,.23H53.5c0-.1,0-.18,0-.23a5,5,0,0,1,1.78-3.81H53.08v-.58h3Z"/><path d="M60.27,18.91a1.34,1.34,0,0,1-.39,1,1.87,1.87,0,0,1-2.41,0,1.34,1.34,0,0,1-.38-1,1.29,1.29,0,0,1,.18-.67,1.12,1.12,0,0,1,.52-.44.89.89,0,0,1-.47-.84,1.14,1.14,0,0,1,.34-.84,1.5,1.5,0,0,1,2,0A1.14,1.14,0,0,1,60,17a.88.88,0,0,1-.46.84,1.09,1.09,0,0,1,.51.44A1.27,1.27,0,0,1,60.27,18.91Zm-.56,0a.69.69,0,0,0-.25-.53,1.14,1.14,0,0,0-1.56,0,.69.69,0,0,0-.25.53.72.72,0,0,0,.28.58,1.09,1.09,0,0,0,.75.26,1.13,1.13,0,0,0,.76-.26A.74.74,0,0,0,59.71,18.91Zm-.23-2a.57.57,0,0,0-.23-.45.84.84,0,0,0-.57-.2.86.86,0,0,0-.57.2.56.56,0,0,0-.22.45c0,.34.26.57.79.69C59.21,17.5,59.48,17.27,59.48,16.93Z"/><path d="M11.44,2.8,10,3.38A4.94,4.94,0,0,0,6,1.64,4.43,4.43,0,0,0,2.86,2.79,3.78,3.78,0,0,0,1.62,5.7a3.85,3.85,0,0,0,1.22,3A4.64,4.64,0,0,0,6.13,9.79,4.74,4.74,0,0,0,10.05,8l1.33.86a6.24,6.24,0,0,1-2.29,2A7.13,7.13,0,0,1,6,11.43,6.14,6.14,0,0,1,1.88,10,5.49,5.49,0,0,1,0,5.7,5.39,5.39,0,0,1,1.92,1.44,6,6,0,0,1,6,0,6.11,6.11,0,0,1,11.44,2.8Z"/><path d="M25.71,11.13H23.9L21.34,7H16.6v4.11H15V.34h7.42a3,3,0,0,1,2.33.92,3.53,3.53,0,0,1,.84,2.48A3.38,3.38,0,0,1,24.94,6a2.83,2.83,0,0,1-1.75,1ZM22.23,5.41c1.2,0,1.8-.56,1.8-1.67S23.38,2,22.07,2H16.6V5.41Z"/><path d="M39,11.13H29.11V.34H38.6V2H30.67V4.73h5.51v1.6H30.67V9.52H39Z"/><path d="M49.75.34A2.91,2.91,0,0,1,52,1.26a3.41,3.41,0,0,1,.86,2.45A3.3,3.3,0,0,1,52,6.17,3.58,3.58,0,0,1,49.45,7H43.84v4.11H42.3V.34Zm-.26,5.07c1.2,0,1.8-.56,1.8-1.67S50.65,2,49.38,2H43.84V5.41Z"/><path d="M57.2,11.13H55.66V.34H57.2Z"/><path d="M71.18,11.13H61.33V.34h9.49V2H62.89V4.73h5.5v1.6h-5.5V9.52h8.29Z"/><path d="M85.19,11.13H83.37L80.82,7H76.07v4.11H74.52V.34h7.41a3,3,0,0,1,2.33.92,3.53,3.53,0,0,1,.84,2.48A3.43,3.43,0,0,1,84.42,6a2.88,2.88,0,0,1-1.76,1ZM81.7,5.41c1.2,0,1.8-.56,1.8-1.67S82.85,2,81.55,2H76.07V5.41Z"/></svg>