<svg id="Capa_1" data-name="Capa 1" xmlns="http://www.w3.org/2000/svg" viewBox="0 0 141.73 34.82"><defs><style>.cls-1{fill-rule:evenodd;}</style></defs><path d="M6,34.82,5.46,33.5H3.74l-.55,1.32H2.57l2-4.72h.07l2,4.72Zm-1.4-3.43L4,33H5.24Z"/><path d="M16.86,34.82l-.48-3.06L15,34.94h-.07l-1.36-3.18-.49,3.06h-.58l.87-4.71h.06L15,33.79l1.56-3.68h.06l.83,4.71Z"/><path d="M26.73,34.82l-.55-1.32H24.46l-.55,1.32h-.62l2-4.72h.07l2,4.72Zm-1.4-3.43L24.67,33H26Z"/><path d="M37.58,34.82l-.48-3.06-1.39,3.18h-.06l-1.37-3.18-.49,3.06h-.57l.87-4.71h.06l1.55,3.68,1.57-3.68h0l.84,4.71Z"/><path d="M46.58,34.9A2.38,2.38,0,1,1,49,32.49,2.39,2.39,0,0,1,46.58,34.9Zm0-4.21A1.83,1.83,0,1,0,48.4,32.5,1.73,1.73,0,0,0,46.62,30.69Z"/><path d="M56.58,34.89c-.66,0-1.19-.31-1.5-1.24l.56-.15a1,1,0,0,0,1,.88.8.8,0,0,0,.83-.79.9.9,0,0,0-.56-.79l-.65-.33a1.31,1.31,0,0,1-.88-1.16,1.19,1.19,0,0,1,1.27-1.16,1.33,1.33,0,0,1,1.24.77l-.48.3c-.24-.41-.47-.56-.8-.56a.58.58,0,0,0-.63.58c0,.29.15.48.58.7l.6.3A1.32,1.32,0,0,1,58,33.5,1.37,1.37,0,0,1,56.58,34.89Z"/><path d="M73.16,30.76v4.06h-.58V30.76H71.45v-.53h2.84v.53Z"/><path d="M83.68,33.19A1.53,1.53,0,0,1,82,34.9c-1.3,0-1.64-.81-1.64-1.74V30.23h.58V33.1c0,1,.48,1.26,1.07,1.26s1.09-.23,1.09-1.2V30.23h.58Z"/><path d="M91.36,34.89c-.66,0-1.19-.31-1.5-1.24l.56-.15a1,1,0,0,0,1,.88.8.8,0,0,0,.83-.79.9.9,0,0,0-.56-.79L91,32.47a1.31,1.31,0,0,1-.88-1.16,1.19,1.19,0,0,1,1.27-1.16,1.33,1.33,0,0,1,1.24.77l-.48.3c-.24-.41-.47-.56-.8-.56a.58.58,0,0,0-.63.58c0,.29.15.48.58.7l.6.3a1.32,1.32,0,0,1,.88,1.26A1.37,1.37,0,0,1,91.36,34.89Z"/><path d="M108.8,34.9a2.38,2.38,0,1,1,2.43-2.41A2.38,2.38,0,0,1,108.8,34.9Zm0-4.21a1.77,1.77,0,0,0-1.79,1.83,1.75,1.75,0,0,0,1.75,1.83,1.78,1.78,0,0,0,1.82-1.85A1.73,1.73,0,0,0,108.84,30.69Z"/><path d="M118.81,33.69c0,.64-.26,1.21-1,1.21a1.23,1.23,0,0,1-.93-.48l.39-.46a.65.65,0,0,0,.54.36c.34,0,.4-.33.4-.74V30.23h.58Z"/><path d="M127.44,34.9a2.38,2.38,0,1,1,2.44-2.41A2.39,2.39,0,0,1,127.44,34.9Zm0-4.21a1.76,1.76,0,0,0-1.78,1.83,1.74,1.74,0,0,0,1.74,1.83,1.78,1.78,0,0,0,1.82-1.85A1.73,1.73,0,0,0,127.48,30.69Z"/><path d="M137.44,34.89c-.66,0-1.19-.31-1.51-1.24l.57-.15a1,1,0,0,0,1,.88.8.8,0,0,0,.83-.79.9.9,0,0,0-.56-.79l-.65-.33a1.31,1.31,0,0,1-.88-1.16,1.2,1.2,0,0,1,1.27-1.16,1.35,1.35,0,0,1,1.25.77l-.49.3c-.24-.41-.47-.56-.8-.56a.59.59,0,0,0-.63.58c0,.29.15.48.58.7l.6.3a1.31,1.31,0,0,1,.89,1.26A1.37,1.37,0,0,1,137.44,34.89Z"/><path class="cls-1" d="M92.19,22.89c.82,0,11.53-6.18,11.53-14,0-3.75-2.3-6.81-5.72-7.12-3-.28-4.46,1.22-5.81,2.77-1.34-1.55-2.81-3.05-5.8-2.77C83,2,80.67,5.09,80.67,8.84,80.67,16.71,91.38,22.89,92.19,22.89Z"/><rect x="122.97" y="0.14" width="1.62" height="4.28" transform="translate(4.29 34.68) rotate(-16.23)"/><rect x="115.85" y="3.91" width="1.62" height="4.28" transform="translate(26.35 80.15) rotate(-42.34)"/><rect x="137.42" y="5.24" width="4.28" height="1.62" transform="translate(40.98 105.02) rotate(-47.59)"/><rect x="130.3" y="1.47" width="4.28" height="1.62" transform="matrix(0.28, -0.96, 0.96, 0.28, 93.27, 128.82)"/><path d="M131.23,14.42a3.14,3.14,0,1,0-3.14,3.14A3.14,3.14,0,0,0,131.23,14.42Z"/><path d="M128.09,21.5a7.08,7.08,0,1,1,7.07-7.08A7.07,7.07,0,0,1,128.09,21.5Zm0-15.54a14,14,0,0,0-12.85,8.59,14.11,14.11,0,0,0,25.75,0A14.08,14.08,0,0,0,128.06,6Z"/><path d="M20,12.82c0,6.29-4.2,10.07-9.7,10.07A9.87,9.87,0,0,1,.13,12.74,10.25,10.25,0,0,1,10.62,2.3c3.19,0,5.67,1.16,8.24,3.84L16.6,8.54a7.19,7.19,0,0,0-6.15-3.17c-3.89,0-6.85,3.22-6.85,7.39s2.85,7.09,6.74,7.09c3,0,5.81-2,6.12-5H11.75V11.67H20Z"/><path d="M40.51,22.55,38.22,11.24,32.64,23.12h-.28L27.14,11.27,24.71,22.55H21.35L25.78,2.1h.29l6.62,14.33,6.6-14.3h.28L44,22.55Z"/><path d="M55.65,23A10.35,10.35,0,1,1,66.08,12.51,10.33,10.33,0,0,1,55.65,23Zm.17-17.52a6.94,6.94,0,0,0-7,7.11,6.92,6.92,0,1,0,13.82.25C62.64,8.56,59.74,5.43,55.82,5.43Z"/><path d="M67.51,5.11a1.43,1.43,0,1,1,1.43-1.43A1.43,1.43,0,0,1,67.51,5.11Zm0-2.63a1.2,1.2,0,1,0,1.17,1.21A1.19,1.19,0,0,0,67.52,2.48Zm.3,2-.48-.7v.7h-.26V2.89h.38c.39,0,.55.18.55.45a.41.41,0,0,1-.39.43l.51.71Zm-.36-1.35h-.12v.44h.09c.21,0,.32-.07.32-.23S67.69,3.13,67.46,3.13Z"/></svg>