<svg id="Capa_1" data-name="Capa 1" xmlns="http://www.w3.org/2000/svg" viewBox="0 0 141.73 29.84"><path d="M19.05,22a1.85,1.85,0,0,0-.19-.84,1.56,1.56,0,0,0-.54-.6,2.49,2.49,0,0,0-.86-.3,5.38,5.38,0,0,0-.95-.06H14.17l-1.59,7.58h3.67a2.74,2.74,0,0,0,1.32-.32,2.43,2.43,0,0,0,.95-.88,2.21,2.21,0,0,0,.36-1.2,1.51,1.51,0,0,0-.31-.95,1.74,1.74,0,0,0-.91-.6,2.14,2.14,0,0,0,1.05-.73,1.8,1.8,0,0,0,.34-1.1m-1.2,3.39a1.52,1.52,0,0,1-.17.68,1.47,1.47,0,0,1-.47.52,2,2,0,0,1-.78.28,5.93,5.93,0,0,1-.93.05H13.78l.54-2.62h1.93a2,2,0,0,1,1.26.28,1,1,0,0,1,.34.81m-.23-2.3A2.78,2.78,0,0,1,16,23.4H14.5L15,21h1.61a2.8,2.8,0,0,1,.94.1.88.88,0,0,1,.4.34,1,1,0,0,1,.15.55,1.21,1.21,0,0,1-.48,1"/><path d="M23.65,24.62a6.09,6.09,0,0,1-.27,1,2.63,2.63,0,0,1-.44.77,1.86,1.86,0,0,1-.64.51,1.67,1.67,0,0,1-.77.2.79.79,0,0,1-.56-.18.62.62,0,0,1-.19-.48,3.81,3.81,0,0,1,.1-.68l.73-3.51h-.93L20,25.42a6.54,6.54,0,0,0-.18,1.19,1.18,1.18,0,0,0,.39.89,1.45,1.45,0,0,0,1,.36,2.73,2.73,0,0,0,2-1.12l-.2,1h.86l1.15-5.49h-.94Z"/><path d="M28.53,22.13a2.61,2.61,0,0,0-1.43.41A3,3,0,0,0,26,23.79a4,4,0,0,0-.41,1.75,2.84,2.84,0,0,0,.26,1.22,1.88,1.88,0,0,0,.78.82,2.24,2.24,0,0,0,1.12.28,2.47,2.47,0,0,0,1.68-.61,2.73,2.73,0,0,0,.9-1.29l-.91-.09a2,2,0,0,1-.72.91,1.69,1.69,0,0,1-.95.32,1.09,1.09,0,0,1-.86-.41,1.71,1.71,0,0,1-.36-1.17c0-.09,0-.19,0-.29h4a4.85,4.85,0,0,0,.08-.83,2.29,2.29,0,0,0-.59-1.66,2.06,2.06,0,0,0-1.57-.61m1.27,2.38H26.72a2.51,2.51,0,0,1,.74-1.24,1.63,1.63,0,0,1,1.09-.41,1.2,1.2,0,0,1,.91.37,1.54,1.54,0,0,1,.35,1.08,1.72,1.72,0,0,1,0,.2"/><path d="M35.1,22.13a2,2,0,0,0-1,.26,4.32,4.32,0,0,0-1,.82l.2-1h-.85L31.3,27.74h.93l.53-2.55a3.32,3.32,0,0,1,.83-1.78,1.84,1.84,0,0,1,1.27-.51.77.77,0,0,1,.55.17.58.58,0,0,1,.19.44,4.29,4.29,0,0,1-.11.75l-.73,3.48h.94l.69-3.32a5.56,5.56,0,0,0,.14-1,1.28,1.28,0,0,0-.38-1,1.47,1.47,0,0,0-1-.36"/><path d="M40.33,22.13a2.61,2.61,0,0,0-2,.87,3.82,3.82,0,0,0-.95,2.66,2.28,2.28,0,0,0,.28,1.15,1.88,1.88,0,0,0,.8.78,2.51,2.51,0,0,0,1.16.27,2.8,2.8,0,0,0,1.49-.43,2.9,2.9,0,0,0,1.09-1.25,4.15,4.15,0,0,0,.38-1.76,2.26,2.26,0,0,0-.61-1.67,2.11,2.11,0,0,0-1.6-.62m1.12,3.27a3.14,3.14,0,0,1-.28.68,3,3,0,0,1-.43.57,2.13,2.13,0,0,1-.55.37,1.61,1.61,0,0,1-.6.12,1.25,1.25,0,0,1-.94-.4,1.67,1.67,0,0,1-.37-1.18,3.91,3.91,0,0,1,.13-.95,3,3,0,0,1,.43-.94,2.21,2.21,0,0,1,.66-.61,1.54,1.54,0,0,1,.8-.21,1.23,1.23,0,0,1,.94.41,1.65,1.65,0,0,1,.37,1.16,3.18,3.18,0,0,1-.16,1"/><path d="M45.81,22.85a1.39,1.39,0,0,1,.94.29,1.07,1.07,0,0,1,.35.79l.91-.07a1.62,1.62,0,0,0-.56-1.25,2.29,2.29,0,0,0-1.57-.48,2.1,2.1,0,0,0-1.45.46,1.46,1.46,0,0,0-.51,1.12,1.3,1.3,0,0,0,.17.66,1.54,1.54,0,0,0,.52.49,8.3,8.3,0,0,0,1,.45,2.63,2.63,0,0,1,.93.54.65.65,0,0,1,.19.46.73.73,0,0,1-.31.58,1.52,1.52,0,0,1-.93.25,1.63,1.63,0,0,1-.78-.18,1,1,0,0,1-.45-.47,1.6,1.6,0,0,1-.13-.69l-.93.06a1.63,1.63,0,0,0,.63,1.53,2.73,2.73,0,0,0,1.61.47,3.05,3.05,0,0,0,1.22-.23,1.78,1.78,0,0,0,.76-.63,1.44,1.44,0,0,0-.19-1.85,5.85,5.85,0,0,0-1.36-.73A4.38,4.38,0,0,1,45,24a.59.59,0,0,1-.23-.46.63.63,0,0,1,.27-.48,1.14,1.14,0,0,1,.75-.22"/><polygon points="52.8 20.16 51.22 27.74 52.15 27.74 53.73 20.16 52.8 20.16"/><polygon points="53.6 27.74 54.53 27.74 55.68 22.25 54.75 22.25 53.6 27.74"/><polygon points="55.19 20.16 54.96 21.22 55.89 21.22 56.12 20.16 55.19 20.16"/><path d="M59.5,22.13a1.72,1.72,0,0,0-.76.17,3.35,3.35,0,0,0-.8.57l.56-2.71h-.93L56,27.74h.82l.21-1a1.92,1.92,0,0,0,.65.87,1.65,1.65,0,0,0,1,.29,2,2,0,0,0,.65-.12,2.35,2.35,0,0,0,.67-.37,3.27,3.27,0,0,0,.63-.65,4.07,4.07,0,0,0,.72-2.35,2.44,2.44,0,0,0-.52-1.67,1.65,1.65,0,0,0-1.28-.57m.61,3.55a2.4,2.4,0,0,1-.67,1.07,1.36,1.36,0,0,1-.9.35,1.11,1.11,0,0,1-.84-.37,1.56,1.56,0,0,1-.33-1.07v-.18a3.24,3.24,0,0,1,.21-1,3,3,0,0,1,.71-1.2,1.34,1.34,0,0,1,.93-.39,1,1,0,0,1,.82.38,1.57,1.57,0,0,1,.34,1.08,3.85,3.85,0,0,1-.27,1.34"/><path d="M66,22.33a1.53,1.53,0,0,0-.68-.2,1.39,1.39,0,0,0-.83.3,4,4,0,0,0-.83.94l.23-1.12H63l-1.15,5.49h.89l.46-2.2a4.22,4.22,0,0,1,.81-2A1.44,1.44,0,0,1,65,23a.87.87,0,0,1,.53.18Z"/><path d="M68.55,22.13a2.62,2.62,0,0,0-2,.87,3.81,3.81,0,0,0-.94,2.66,2.38,2.38,0,0,0,.27,1.15,1.94,1.94,0,0,0,.8.78,2.52,2.52,0,0,0,1.17.27,2.76,2.76,0,0,0,1.48-.43,2.84,2.84,0,0,0,1.09-1.25,4,4,0,0,0,.38-1.76,2.29,2.29,0,0,0-.6-1.67,2.12,2.12,0,0,0-1.6-.62m1.12,3.27a3.16,3.16,0,0,1-.29.68,2.67,2.67,0,0,1-.43.57,2,2,0,0,1-.55.37,1.52,1.52,0,0,1-.59.12,1.28,1.28,0,0,1-1-.4,1.72,1.72,0,0,1-.37-1.18,4,4,0,0,1,.14-.95,2.61,2.61,0,0,1,.43-.94,2.07,2.07,0,0,1,.65-.61,1.57,1.57,0,0,1,.8-.21,1.23,1.23,0,0,1,.94.41,1.65,1.65,0,0,1,.38,1.16,3.52,3.52,0,0,1-.16,1"/><path d="M74,22.85a1.38,1.38,0,0,1,.93.29,1,1,0,0,1,.35.79l.92-.07a1.65,1.65,0,0,0-.56-1.25,2.31,2.31,0,0,0-1.58-.48,2.06,2.06,0,0,0-1.44.46,1.43,1.43,0,0,0-.52,1.12,1.21,1.21,0,0,0,.18.66,1.45,1.45,0,0,0,.52.49,7.49,7.49,0,0,0,1,.45,2.85,2.85,0,0,1,.93.54.69.69,0,0,1,.18.46.73.73,0,0,1-.31.58,1.46,1.46,0,0,1-.92.25,1.61,1.61,0,0,1-.78-.18,1,1,0,0,1-.46-.47,1.78,1.78,0,0,1-.12-.69l-.94.06A1.68,1.68,0,0,0,72,27.39a2.77,2.77,0,0,0,1.62.47,3,3,0,0,0,1.21-.23,1.72,1.72,0,0,0,.76-.63,1.45,1.45,0,0,0,.25-.8,1.4,1.4,0,0,0-.44-1.05A5.93,5.93,0,0,0,74,24.42a4,4,0,0,1-.8-.41.57.57,0,0,1-.24-.46.63.63,0,0,1,.27-.48,1.15,1.15,0,0,1,.76-.22"/><path d="M83,22.13a1.71,1.71,0,0,0-.8.19,3.42,3.42,0,0,0-.86.7l.16-.77h-.86L79,29.84H80l.62-3a1.67,1.67,0,0,0,1.52,1,2,2,0,0,0,.87-.2,3.29,3.29,0,0,0,.84-.63,3.63,3.63,0,0,0,.7-1.13,4.18,4.18,0,0,0,.28-1.57,2.31,2.31,0,0,0-.52-1.63,1.66,1.66,0,0,0-1.3-.57m.4,4.06a1.5,1.5,0,0,1-1.31.91,1.16,1.16,0,0,1-1.1-.75,2.8,2.8,0,0,1-.09-.86,3.35,3.35,0,0,1,.17-.94,3.41,3.41,0,0,1,.43-.92,2,2,0,0,1,.57-.56,1.18,1.18,0,0,1,.66-.19,1.07,1.07,0,0,1,.83.38,1.59,1.59,0,0,1,.33,1.08,3.8,3.8,0,0,1-.49,1.85"/><path d="M88.53,22.13a2.72,2.72,0,0,0-1.58.43A2.53,2.53,0,0,0,86,23.81l1,.08a1.47,1.47,0,0,1,.54-.74,1.71,1.71,0,0,1,1-.26,1.53,1.53,0,0,1,1,.26.6.6,0,0,1,.24.51,2.59,2.59,0,0,1-.11.64,4.25,4.25,0,0,1-1.27.18,11,11,0,0,0-1.19.1,2.43,2.43,0,0,0-.85.31,1.58,1.58,0,0,0-.55.57,1.53,1.53,0,0,0-.21.81A1.5,1.5,0,0,0,86,27.41a1.69,1.69,0,0,0,1.23.45,2.38,2.38,0,0,0,1-.19,3.67,3.67,0,0,0,.93-.62,3.56,3.56,0,0,0,.11.69h1A3.49,3.49,0,0,1,90,27a5,5,0,0,1,.15-1.06l.3-1.36a4.51,4.51,0,0,0,.13-1,1.16,1.16,0,0,0-.45-.94,2.52,2.52,0,0,0-1.62-.48M89,26.21a1.71,1.71,0,0,1-.68.68,1.69,1.69,0,0,1-.89.25,1.09,1.09,0,0,1-.77-.26.82.82,0,0,1-.27-.64.87.87,0,0,1,.17-.54.93.93,0,0,1,.5-.35,5.46,5.46,0,0,1,1.15-.19l.76-.08a2.58,2.58,0,0,0,.42-.12A4,4,0,0,1,89,26.21"/><path d="M95.35,22.33a1.53,1.53,0,0,0-.69-.2,1.36,1.36,0,0,0-.82.3,4,4,0,0,0-.83.94l.23-1.12h-.83l-1.14,5.49h.88l.47-2.2a4.22,4.22,0,0,1,.81-2,1.42,1.42,0,0,1,1-.55.87.87,0,0,1,.53.18Z"/><path d="M97.94,22.13a2.68,2.68,0,0,0-1.58.43,2.47,2.47,0,0,0-.92,1.25l.94.08a1.54,1.54,0,0,1,.55-.74,1.67,1.67,0,0,1,1-.26,1.49,1.49,0,0,1,1,.26.6.6,0,0,1,.24.51,2.59,2.59,0,0,1-.11.64,4.11,4.11,0,0,1-1.26.18,11,11,0,0,0-1.2.1,2.45,2.45,0,0,0-.84.31,1.61,1.61,0,0,0-.56.57,1.53,1.53,0,0,0-.21.81,1.51,1.51,0,0,0,.47,1.14,1.69,1.69,0,0,0,1.22.45,2.38,2.38,0,0,0,1-.19,3.89,3.89,0,0,0,.94-.62,3.65,3.65,0,0,0,.1.69h1a3.34,3.34,0,0,1-.11-.75,4.89,4.89,0,0,1,.14-1.06l.31-1.36a5.09,5.09,0,0,0,.12-1,1.16,1.16,0,0,0-.45-.94,2.49,2.49,0,0,0-1.61-.48m.51,4.08a1.85,1.85,0,0,1-.68.68,1.72,1.72,0,0,1-.89.25,1.1,1.1,0,0,1-.78-.26.82.82,0,0,1-.27-.64A.94.94,0,0,1,96,25.7a1,1,0,0,1,.51-.35,5.33,5.33,0,0,1,1.15-.19l.75-.08a2.58,2.58,0,0,0,.42-.12,4,4,0,0,1-.38,1.25"/><path d="M106.16,20.26l-1.07.64-.29,1.35h-.74l-.15.72h.74L104,26.16a6.08,6.08,0,0,0-.14.83.7.7,0,0,0,.25.57,1.37,1.37,0,0,0,.89.27,2.48,2.48,0,0,0,.65-.09l.15-.76a2.26,2.26,0,0,1-.55.06.44.44,0,0,1-.31-.09.34.34,0,0,1-.1-.25A5.32,5.32,0,0,1,105,26l.64-3h.91l.16-.72h-.92Z"/><path d="M109.7,22.13a2.61,2.61,0,0,0-2,.87,3.82,3.82,0,0,0-1,2.66,2.39,2.39,0,0,0,.28,1.15,1.88,1.88,0,0,0,.8.78,2.52,2.52,0,0,0,1.17.27,2.79,2.79,0,0,0,1.48-.43,2.9,2.9,0,0,0,1.09-1.25,4.15,4.15,0,0,0,.38-1.76,2.26,2.26,0,0,0-.61-1.67,2.11,2.11,0,0,0-1.6-.62m1.12,3.27a3.14,3.14,0,0,1-.28.68,2.67,2.67,0,0,1-.43.57,2,2,0,0,1-.55.37,1.61,1.61,0,0,1-.6.12,1.25,1.25,0,0,1-.94-.4,1.67,1.67,0,0,1-.37-1.18,3.52,3.52,0,0,1,.14-.95,2.78,2.78,0,0,1,.42-.94,2.21,2.21,0,0,1,.66-.61,1.54,1.54,0,0,1,.8-.21,1.23,1.23,0,0,1,.94.41,1.65,1.65,0,0,1,.37,1.16,3.18,3.18,0,0,1-.16,1"/><path d="M116.86,23.11a1.68,1.68,0,0,0-1.55-1,2.23,2.23,0,0,0-1.23.41,3.05,3.05,0,0,0-1,1.24,4,4,0,0,0-.41,1.83,2.39,2.39,0,0,0,.52,1.67,1.65,1.65,0,0,0,1.3.58,2.26,2.26,0,0,0,1.67-.92l-.17.8h.87l1.58-7.58h-.93Zm-1,3.34a1.48,1.48,0,0,1-1.16.66,1,1,0,0,1-.65-.22,1.21,1.21,0,0,1-.39-.55,2.75,2.75,0,0,1-.11-.9,3.54,3.54,0,0,1,.64-1.88,1.72,1.72,0,0,1,.55-.51,1.25,1.25,0,0,1,.61-.15,1.15,1.15,0,0,1,.86.36,1.49,1.49,0,0,1,.34,1,3.4,3.4,0,0,1-.69,2.17"/><path d="M121.47,22.13a2.63,2.63,0,0,0-2,.87,3.81,3.81,0,0,0-.94,2.66,2.38,2.38,0,0,0,.27,1.15,2,2,0,0,0,.81.78,2.45,2.45,0,0,0,1.16.27,2.76,2.76,0,0,0,1.48-.43,2.84,2.84,0,0,0,1.09-1.25,4,4,0,0,0,.38-1.76,2.29,2.29,0,0,0-.6-1.67,2.12,2.12,0,0,0-1.6-.62m1.12,3.27a3.16,3.16,0,0,1-.29.68,2.67,2.67,0,0,1-.43.57,2,2,0,0,1-.55.37,1.52,1.52,0,0,1-.59.12,1.24,1.24,0,0,1-.94-.4,1.67,1.67,0,0,1-.38-1.18,4,4,0,0,1,.14-.95,2.61,2.61,0,0,1,.43-.94,2.07,2.07,0,0,1,.65-.61,1.57,1.57,0,0,1,.8-.21,1.25,1.25,0,0,1,.95.41,1.7,1.7,0,0,1,.37,1.16,3.18,3.18,0,0,1-.16,1"/><path d="M127,22.85a1.38,1.38,0,0,1,.93.29,1,1,0,0,1,.35.79l.92-.07a1.65,1.65,0,0,0-.56-1.25,2.3,2.3,0,0,0-1.57-.48,2.09,2.09,0,0,0-1.45.46,1.47,1.47,0,0,0-.52,1.12,1.21,1.21,0,0,0,.18.66,1.54,1.54,0,0,0,.52.49,7.49,7.49,0,0,0,1,.45,2.85,2.85,0,0,1,.93.54.7.7,0,0,1,.19.46.76.76,0,0,1-.31.58,1.52,1.52,0,0,1-.93.25,1.61,1.61,0,0,1-.78-.18,1,1,0,0,1-.46-.47,1.78,1.78,0,0,1-.12-.69l-.94.06a1.68,1.68,0,0,0,.63,1.53,2.79,2.79,0,0,0,1.62.47,3,3,0,0,0,1.21-.23,1.81,1.81,0,0,0,.77-.63,1.53,1.53,0,0,0,.25-.8,1.41,1.41,0,0,0-.45-1.05,5.7,5.7,0,0,0-1.35-.73,4,4,0,0,1-.8-.41.56.56,0,0,1-.23-.46.65.65,0,0,1,.26-.48,1.15,1.15,0,0,1,.76-.22"/><polygon points="3.23 0 0 15.42 3.18 15.42 6.39 0 3.23 0"/><path d="M14.6,15.25a6,6,0,0,0,1.76-1.34,6.6,6.6,0,0,0,1.34-2.34,9,9,0,0,0,.5-3,5,5,0,0,0-1.07-3.44A3.61,3.61,0,0,0,14.3,4a4.7,4.7,0,0,0-1.57.26,6.21,6.21,0,0,0-1.55.9L12.26,0h-3L6,15.42H8.76l.39-1.84a3.73,3.73,0,0,0,3.52,2.1,4.43,4.43,0,0,0,1.93-.43m-3.88-2.56a2.64,2.64,0,0,1-.63-1.83,5.79,5.79,0,0,1,1.12-3.67,2.43,2.43,0,0,1,2-1.05,2,2,0,0,1,1.49.68,2.67,2.67,0,0,1,.61,1.87,6.66,6.66,0,0,1-.46,2.42,3.88,3.88,0,0,1-1.14,1.74,2.27,2.27,0,0,1-1.45.55,2,2,0,0,1-1.5-.71"/><path d="M24.72,15.68a5.55,5.55,0,0,0,3-.81,5.75,5.75,0,0,0,2.11-2.45L27.08,12a2.58,2.58,0,0,1-2.34,1.56,2,2,0,0,1-1.55-.69,2.49,2.49,0,0,1-.64-1.8c0-.06,0-.15,0-.27h7.57a8.44,8.44,0,0,0,.21-2,4.93,4.93,0,0,0-1.21-3.55A4.29,4.29,0,0,0,25.87,4a5.72,5.72,0,0,0-4.95,2.42,6.84,6.84,0,0,0-1.27,4.08,5.13,5.13,0,0,0,1.41,3.77,4.92,4.92,0,0,0,3.66,1.42m-.85-8.83a2.37,2.37,0,0,1,1.68-.71A1.92,1.92,0,0,1,27,6.76a2.74,2.74,0,0,1,.56,1.86c0,.07,0,.18,0,.31H22.86a3.74,3.74,0,0,1,1-2.08"/><path d="M39.43,6.78l1.16-2.47A3.48,3.48,0,0,0,39.19,4q-1.84,0-3.42,2.43l.45-2.17H33.4L31.07,15.42h3l.73-3.5a15.81,15.81,0,0,1,.9-3.12A3.92,3.92,0,0,1,37,7.23a2.66,2.66,0,0,1,1.59-.59,2.74,2.74,0,0,1,.87.14"/><path d="M50.27,5.35A5.25,5.25,0,0,0,46.41,4a6,6,0,0,0-4.6,1.84,6.88,6.88,0,0,0-1.75,4.95,5.31,5.31,0,0,0,.6,2.48,4.14,4.14,0,0,0,1.82,1.79,6,6,0,0,0,2.8.63,5.88,5.88,0,0,0,4.65-2A6.89,6.89,0,0,0,51.66,9a4.88,4.88,0,0,0-1.39-3.66m-2.8,6.93a2.59,2.59,0,0,1-2.09,1.07,2.15,2.15,0,0,1-1.64-.71,2.7,2.7,0,0,1-.65-1.9,6.22,6.22,0,0,1,.42-2.12,3.88,3.88,0,0,1,1.18-1.76,2.7,2.7,0,0,1,1.73-.6A2.16,2.16,0,0,1,48,6.9a2.38,2.38,0,0,1,.62,1.72,5.72,5.72,0,0,1-1.19,3.66"/><polygon points="69.19 13.67 61.19 13.67 64.04 0 61.98 0 58.76 15.42 68.83 15.42 69.19 13.67"/><polygon points="74.76 4.25 72.85 4.25 70.52 15.42 72.42 15.42 74.76 4.25"/><polygon points="75.64 0 73.75 0 73.3 2.16 75.19 2.16 75.64 0"/><path d="M82.09,15.42a5,5,0,0,0,1.35-.74,6.63,6.63,0,0,0,1.29-1.34,7.55,7.55,0,0,0,1-2.07,8.33,8.33,0,0,0,.42-2.71,4.93,4.93,0,0,0-1-3.4A3.37,3.37,0,0,0,82.53,4,3.63,3.63,0,0,0,81,4.34a7,7,0,0,0-1.64,1.17L80.5,0H78.6L75.38,15.42h1.67l.44-2.12a3.84,3.84,0,0,0,1.32,1.79,3.31,3.31,0,0,0,1.94.58,3.86,3.86,0,0,0,1.34-.25m-3.22-2.05a3.11,3.11,0,0,1-.68-2.18v-.36a6.41,6.41,0,0,1,.43-2.06,5.82,5.82,0,0,1,1.44-2.44A2.72,2.72,0,0,1,82,5.53a2.13,2.13,0,0,1,1.68.78,3.24,3.24,0,0,1,.68,2.19,8,8,0,0,1-.54,2.73,5,5,0,0,1-1.37,2.19,2.83,2.83,0,0,1-1.84.69,2.2,2.2,0,0,1-1.7-.74"/><path d="M90.11,10.94a8.48,8.48,0,0,1,1.65-4,3,3,0,0,1,2.06-1.11,1.85,1.85,0,0,1,1.08.35l.78-1.76A3.24,3.24,0,0,0,94.28,4a2.74,2.74,0,0,0-1.69.62A7.83,7.83,0,0,0,90.9,6.53l.48-2.28H89.69L87.36,15.42h1.81Z"/><path d="M102.73,11.62a4.11,4.11,0,0,1-1.47,1.85,3.37,3.37,0,0,1-1.92.64,2.24,2.24,0,0,1-1.76-.82,3.49,3.49,0,0,1-.72-2.39,4.18,4.18,0,0,1,0-.59h8.22a9.91,9.91,0,0,0,.15-1.69,4.69,4.69,0,0,0-1.19-3.38A4.23,4.23,0,0,0,100.88,4,5.49,5.49,0,0,0,98,4.83a6,6,0,0,0-2.19,2.56,7.86,7.86,0,0,0-.85,3.55,5.56,5.56,0,0,0,.54,2.49,3.76,3.76,0,0,0,1.58,1.67,4.65,4.65,0,0,0,2.28.57,5.05,5.05,0,0,0,3.42-1.24,5.63,5.63,0,0,0,1.84-2.62Zm-4-5.3a3.39,3.39,0,0,1,2.23-.84,2.41,2.41,0,0,1,1.84.76,3.12,3.12,0,0,1,.71,2.19c0,.09,0,.23,0,.43H97.2a5.06,5.06,0,0,1,1.5-2.54"/><path d="M109.27,10.94a8.48,8.48,0,0,1,1.65-4,2.93,2.93,0,0,1,2-1.11,1.85,1.85,0,0,1,1.08.35l.78-1.76a3.24,3.24,0,0,0-1.4-.41,2.76,2.76,0,0,0-1.69.62,7.83,7.83,0,0,0-1.69,1.91l.48-2.28h-1.69l-2.33,11.17h1.81Z"/><polygon points="120.49 0 118.09 0 116.11 2.89 117.69 2.89 120.49 0"/><polygon points="114.28 15.42 116.19 15.42 118.52 4.25 116.62 4.25 114.28 15.42"/><path d="M129.36,5a5,5,0,0,0-3.28-1,5.53,5.53,0,0,0-3.22.88A5,5,0,0,0,121,7.43l1.93.16A3,3,0,0,1,124,6.08a3.36,3.36,0,0,1,2-.53,3,3,0,0,1,1.93.53,1.23,1.23,0,0,1,.49,1,5.25,5.25,0,0,1-.22,1.29,8.55,8.55,0,0,1-2.58.38,20.34,20.34,0,0,0-2.43.2,5,5,0,0,0-1.72.63,3.16,3.16,0,0,0-1.56,2.81,3.09,3.09,0,0,0,.94,2.33,3.47,3.47,0,0,0,2.5.91,4.92,4.92,0,0,0,2-.39A7.77,7.77,0,0,0,127.2,14a6.64,6.64,0,0,0,.22,1.39h1.92a7.55,7.55,0,0,1-.23-1.52,10.18,10.18,0,0,1,.3-2.15L130,9a9.9,9.9,0,0,0,.26-2.07A2.31,2.31,0,0,0,129.36,5m-2.25,7.32a3.59,3.59,0,0,1-1.37,1.39,3.67,3.67,0,0,1-1.82.5,2.21,2.21,0,0,1-1.58-.52,1.73,1.73,0,0,1-.55-1.31,1.89,1.89,0,0,1,.35-1.1,2,2,0,0,1,1-.72,11.93,11.93,0,0,1,2.34-.37c.72-.06,1.23-.12,1.54-.18a3.8,3.8,0,0,0,.85-.24,8.09,8.09,0,0,1-.79,2.55"/><path d="M137.27,8.67a8.33,8.33,0,0,1-1.63-.84,1.21,1.21,0,0,1-.47-.93,1.27,1.27,0,0,1,.55-1,2.33,2.33,0,0,1,1.53-.45,2.83,2.83,0,0,1,1.91.59,2.16,2.16,0,0,1,.71,1.6l1.86-.13A3.4,3.4,0,0,0,140.59,5a4.67,4.67,0,0,0-3.2-1,4.27,4.27,0,0,0-2.95.94,3,3,0,0,0-1.05,2.27,2.52,2.52,0,0,0,.36,1.35,3.23,3.23,0,0,0,1.06,1,17.44,17.44,0,0,0,1.93.91,5.83,5.83,0,0,1,1.9,1.09,1.43,1.43,0,0,1,.38.94,1.47,1.47,0,0,1-.63,1.18,3,3,0,0,1-1.9.51,3.21,3.21,0,0,1-1.58-.37,2,2,0,0,1-.93-.95,3.42,3.42,0,0,1-.25-1.39l-1.9.11a3.36,3.36,0,0,0,1.28,3.11,5.54,5.54,0,0,0,3.29,1,5.88,5.88,0,0,0,2.47-.48,3.5,3.5,0,0,0,1.55-1.28,3,3,0,0,0,.51-1.63,2.84,2.84,0,0,0-.9-2.12,11.17,11.17,0,0,0-2.76-1.49"/></svg>