<svg id="Capa_1" data-name="Capa 1" xmlns="http://www.w3.org/2000/svg" viewBox="0 0 110.76 82.92"><defs><style>.cls-1{fill:#fff;}</style></defs><rect width="110.76" height="82.92"/><path class="cls-1" d="M21.18,62.75h-.95a.07.07,0,0,0-.07,0L17.41,69a.07.07,0,0,0,.06.11h1a.08.08,0,0,0,.07,0l2.08-4.8a.08.08,0,0,1,.14,0L22.84,69a.08.08,0,0,0,.07,0h1A.08.08,0,0,0,24,69l-2.76-6.18a.05.05,0,0,0-.06,0"/><path class="cls-1" d="M32.74,62.79h1a.07.07,0,0,1,.07.08V68a.08.08,0,0,0,.08.07h3.22a.08.08,0,0,1,.07.08V69a.08.08,0,0,1-.07.08H32.74a.09.09,0,0,1-.08-.08V62.87a.08.08,0,0,1,.08-.08"/><path class="cls-1" d="M45.85,62.87a.08.08,0,0,1,.08-.08h2.45a2.15,2.15,0,0,1,2.44,2.1v0c0,1.41-1.16,2.15-2.57,2.15H47.06a.07.07,0,0,0-.08.07V69a.08.08,0,0,1-.08.08h-1a.09.09,0,0,1-.08-.08Zm2.44,3.19c.85,0,1.38-.47,1.38-1.12v0c0-.74-.54-1.12-1.38-1.12H47.06a.07.07,0,0,0-.08.07V66a.07.07,0,0,0,.08.07Z"/><path class="cls-1" d="M62.12,62.75h-.95a.07.07,0,0,0-.07,0L58.35,69a.07.07,0,0,0,.07.11h1a.08.08,0,0,0,.07,0l2.09-4.8a.07.07,0,0,1,.13,0L63.78,69a.08.08,0,0,0,.07,0h1a.08.08,0,0,0,.07-.11l-2.75-6.18a.08.08,0,0,0-.07,0"/><path class="cls-1" d="M72.93,66v0a3.21,3.21,0,0,1,3.3-3.25,3.36,3.36,0,0,1,2.46.93.09.09,0,0,1,0,.11l-.63.7a.08.08,0,0,1-.11,0,2.51,2.51,0,0,0-1.74-.73,2.13,2.13,0,0,0-2.11,2.22h0a2.15,2.15,0,0,0,2.11,2.24A2.46,2.46,0,0,0,78,67.4a.11.11,0,0,1,.11,0l.62.62a.08.08,0,0,1,0,.11,3.33,3.33,0,0,1-2.55,1.06A3.19,3.19,0,0,1,72.93,66"/><path class="cls-1" d="M90.76,62.75h-1a.07.07,0,0,0-.07,0L87,69a.08.08,0,0,0,.07.11h1a.07.07,0,0,0,.06,0l2.09-4.8a.08.08,0,0,1,.14,0L92.42,69a.08.08,0,0,0,.07,0h1a.08.08,0,0,0,.07-.11l-2.75-6.18a.08.08,0,0,0-.07,0"/><path class="cls-1" d="M31.28,15.93H18.49a.08.08,0,0,0-.07.08V55.33a.08.08,0,0,0,.07.08h4.13a.08.08,0,0,0,.07-.08V42.94a.06.06,0,0,1,0-.06l11-8s0,0,0-.06V19.08A3.67,3.67,0,0,0,33,16.79a2,2,0,0,0-1.7-.86M29.41,32.44l-6.6,5a.08.08,0,0,1-.12-.06v-17a.08.08,0,0,1,.08-.08h4.85a1.9,1.9,0,0,1,1.26.46A1.63,1.63,0,0,1,29.44,22V32.38a.06.06,0,0,1,0,.06"/><path class="cls-1" d="M42.46,49.15V16a.07.07,0,0,0-.07-.08H38.26a.07.07,0,0,0-.07.08V52.73a2.71,2.71,0,0,0,.72,1.91,2.2,2.2,0,0,0,1.71.77H50.94a2.5,2.5,0,0,0,1.9-.83,2.6,2.6,0,0,0,.65-1.79V16a.08.08,0,0,0-.08-.08H49.29a.08.08,0,0,0-.08.08V49.15a2,2,0,0,1-.48,1.33,1.74,1.74,0,0,1-1.33.63H44.16c-.82,0-1.7-.52-1.7-2"/><path class="cls-1" d="M73.23,33.91a.09.09,0,0,0,0-.06V18.55a2.64,2.64,0,0,0-.64-1.79,2.52,2.52,0,0,0-1.9-.83H58A.08.08,0,0,0,58,16V55.33a.08.08,0,0,0,.07.08h4.13a.08.08,0,0,0,.07-.08V41.9a.09.09,0,0,1,0-.06l2.5-2a.07.07,0,0,1,.12,0l4.43,15.49a.09.09,0,0,0,.07.06H73.9a.07.07,0,0,0,.07-.1L68.54,37.6a.08.08,0,0,1,0-.08Zm-11,3.56V20.31a.08.08,0,0,1,.08-.08H67.1a1.82,1.82,0,0,1,1.34.6A1.93,1.93,0,0,1,69,22.18V32.44a.09.09,0,0,1,0,.06l-6.59,5a.08.08,0,0,1-.13-.06"/><polygon class="cls-1" points="93.88 20.36 93.88 15.95 78.7 15.93 78.7 55.33 93.88 55.35 93.88 50.94 82.89 50.94 82.89 34.3 88.22 34.3 88.22 29.88 82.89 29.88 82.89 20.36 93.88 20.36"/></svg>