<svg id="Capa_1" data-name="Capa 1" xmlns="http://www.w3.org/2000/svg" viewBox="0 0 141.73 28.6"><path d="M3.75,14.54v3.23c0,.67.34.72.92.72h.6V20.6c-.39,0-.82.07-1.23.07-2.29,0-3.18-.75-3.18-2.55V14.54H-.29v-2H.86V10.05H3.75V12.5H5.27v2Z"/><path d="M13.89,15.35V20.6H11V16c0-.75-.28-1.2-1.1-1.2a1.21,1.21,0,0,0-1.27,1.35V20.6H5.74V9.42H8.63v4.06a3.07,3.07,0,0,1,2.47-1.17C12.64,12.31,13.89,13.26,13.89,15.35Z"/><path d="M23.05,17.38H17.12a1.55,1.55,0,0,0,1.61,1.36,1.52,1.52,0,0,0,1.43-.7h2.71a4,4,0,0,1-4.14,2.74,4.05,4.05,0,0,1-4.36-4.23,4,4,0,0,1,4.33-4.24c2.58,0,4.35,1.68,4.35,4.55Zm-5.93-1.71h3.15a1.52,1.52,0,0,0-1.6-1.32A1.45,1.45,0,0,0,17.12,15.67Z"/><path d="M53.06,20.6a2.41,2.41,0,0,1-.2-.84,3.17,3.17,0,0,1-2.58,1c-1.68,0-3-.88-3-2.52,0-1.45.87-2.33,3.24-2.53l1.31-.11c.65-.06,1-.24,1-.68s-.19-.64-1-.64-1.13.17-1.21.86H47.72c.14-1.88,1.38-2.85,4.1-2.85s3.82.94,3.82,2.54v4.29A2.63,2.63,0,0,0,56,20.6Zm-.25-3.19v-.47a1,1,0,0,1-.72.31l-.93.1c-.61.06-.93.31-.93.8s.4.78,1,.78A1.37,1.37,0,0,0,52.81,17.41Z"/><path d="M59.69,14.54v3.23c0,.67.35.72.93.72h.59V20.6a12.12,12.12,0,0,1-1.22.07c-2.29,0-3.19-.75-3.19-2.55V14.54H55.65v-2H56.8V10.05h2.89V12.5h1.52v2Z"/><path d="M69.84,15.35V20.6H67V16c0-.75-.28-1.2-1.1-1.2a1.21,1.21,0,0,0-1.27,1.35V20.6H61.69V9.42h2.89v4.06A3,3,0,0,1,67,12.31,2.7,2.7,0,0,1,69.84,15.35Z"/><path d="M70.62,9.42h2.9V20.6h-2.9Z"/><path d="M82.67,17.38H76.74a1.55,1.55,0,0,0,1.61,1.36,1.52,1.52,0,0,0,1.43-.7h2.71a4,4,0,0,1-4.14,2.74A4.05,4.05,0,0,1,74,16.55a4,4,0,0,1,4.33-4.24c2.58,0,4.35,1.68,4.35,4.55Zm-5.93-1.71h3.15a1.52,1.52,0,0,0-1.6-1.32A1.45,1.45,0,0,0,76.74,15.67Z"/><path d="M86.48,14.54v3.23c0,.67.34.72.92.72H88V20.6c-.39,0-.82.07-1.22.07-2.3,0-3.19-.75-3.19-2.55V14.54H82.44v-2h1.15V10.05h2.89V12.5H88v2Z"/><path d="M96.69,17.38H90.75a1.56,1.56,0,0,0,1.62,1.36A1.54,1.54,0,0,0,93.8,18h2.7a4,4,0,0,1-4.13,2.74A4.05,4.05,0,0,1,88,16.55a4,4,0,0,1,4.34-4.24c2.57,0,4.35,1.68,4.35,4.55Zm-5.94-1.71h3.16a1.52,1.52,0,0,0-1.6-1.32A1.47,1.47,0,0,0,90.75,15.67Z"/><path d="M99.69,9.43v3c0,1.64-.91,2.39-2.53,2.39h-.39v-1.4h.42c.54,0,.82-.25.82-.94v-.25H96.77V9.43Z"/><path d="M99.53,18h2.8c.09.75.47,1,1.35,1s1.15-.24,1.15-.61-.25-.6-1.23-.74l-1.16-.17c-1.71-.25-2.81-1-2.81-2.53,0-1.7,1.33-2.65,3.89-2.65,3,0,3.85,1.28,4,2.81h-2.66c0-.76-.55-1-1.29-1s-1.07.25-1.07.62.32.55,1,.64l1.38.19c1.9.26,2.86,1.07,2.86,2.57,0,1.73-1.51,2.69-4.08,2.69S99.69,20.08,99.53,18Z"/><path d="M115,12.28v.22h1.57v2H115V20.6h-2.89V14.54H111v-2h1.14v-.33c0-1.45.8-2.83,3.18-2.83a10.6,10.6,0,0,1,1.28.08v2.1H116C115.27,11.52,115,11.79,115,12.28Z"/><path d="M116.44,16.55a4.37,4.37,0,0,1,8.73,0,4.37,4.37,0,0,1-8.73,0Zm5.83,0c0-1.39-.55-2-1.47-2s-1.46.59-1.46,2,.55,2,1.46,2S122.27,17.93,122.27,16.55Z"/><path d="M125.33,16.55a4.37,4.37,0,0,1,8.73,0,4.37,4.37,0,0,1-8.73,0Zm5.83,0c0-1.39-.55-2-1.46-2s-1.46.59-1.46,2,.55,2,1.46,2S131.16,17.93,131.16,16.55Z"/><path d="M137.79,14.54v3.23c0,.67.34.72.92.72h.6V20.6c-.39,0-.82.07-1.22.07-2.3,0-3.19-.75-3.19-2.55V14.54h-1.15v-2h1.15V10.05h2.89V12.5h1.52v2Z"/><path d="M43.26,9.22h.21l.34.54H44l-.36-.56a.43.43,0,0,0,.23-.09.3.3,0,0,0,.1-.25.34.34,0,0,0-.11-.27.5.5,0,0,0-.33-.09h-.49V9.76h.2Zm0-.56h.36l.09,0,.06.06a.15.15,0,0,1,0,.1.37.37,0,0,1,0,.12.24.24,0,0,1-.08.06l-.1,0h-.33Z"/><path d="M42.72,9.89a.93.93,0,0,0,.35.23,1.15,1.15,0,0,0,.41.08,1.16,1.16,0,0,0,.42-.08,1,1,0,0,0,.34-.23,1,1,0,0,0,.24-.34,1.18,1.18,0,0,0,.08-.43,1,1,0,0,0-.32-.76,1.11,1.11,0,0,0-.34-.22,1,1,0,0,0-.42-.09,1,1,0,0,0-.41.09,1,1,0,0,0-.35.22,1,1,0,0,0-.23.34,1,1,0,0,0-.09.42,1,1,0,0,0,.09.43A.89.89,0,0,0,42.72,9.89Zm-.06-1.13a.92.92,0,0,1,.19-.28.8.8,0,0,1,.28-.2,1,1,0,0,1,.35-.07,1,1,0,0,1,.35.07.8.8,0,0,1,.28.2.92.92,0,0,1,.19.28,1.15,1.15,0,0,1,.07.36,1.06,1.06,0,0,1-.07.37,1,1,0,0,1-.19.29,1,1,0,0,1-.28.2,1,1,0,0,1-.35.07,1,1,0,0,1-.35-.07,1,1,0,0,1-.28-.2,1,1,0,0,1-.19-.29,1.06,1.06,0,0,1-.06-.37A1.13,1.13,0,0,1,42.66,8.76Z"/><path d="M48.13,25.66c-2.33-1.22-4.42-5.9-6.52-9.66-2.23-4-3-9.61-5.45-11.52a4.17,4.17,0,0,0-.56-.37,5.25,5.25,0,0,0-1.2-.38L22.75,1.12C21.05.75,20.65,0,20.65,0h0a3.77,3.77,0,0,0,2.81,4.47c2.64.81,8,1.83,9.12,2.09,1.53.35,1.5,1.29,1.5,1.29a2.2,2.2,0,0,0-1-.47c-.55-.13-6.24-1.44-9.25-2.11-1.7-.37-2.11-1.12-2.11-1.12h0a3.76,3.76,0,0,0,2.8,4.47c2.64.81,8,1.83,9.13,2.09C35.14,11.06,35.1,12,35.1,12a2.24,2.24,0,0,0-1-.47c-.55-.13-6.25-1.44-9.26-2.1-1.7-.38-2.07-1.1-2.07-1.09a3.75,3.75,0,0,0,2.81,4.44c.94.29,3.66.94,3.7.94s-1.47,5.14,2.54,6.46a19.61,19.61,0,0,1,5.84,2.66c1.45,1.05,6.24,6.1,9.65,5.74C49.35,28.36,50.46,26.89,48.13,25.66Z"/><path d="M140.7,11.21h.2l.35.54h.21l-.36-.56a.43.43,0,0,0,.23-.09.29.29,0,0,0,.1-.25.34.34,0,0,0-.11-.27.5.5,0,0,0-.33-.09h-.49v1.26h.2Zm0-.56h.36a.11.11,0,0,1,.08,0,.18.18,0,0,1,.07.05.3.3,0,0,1,0,.1.37.37,0,0,1,0,.12.16.16,0,0,1-.08.06l-.1,0h-.33Z"/><path d="M140.16,11.89a1.11,1.11,0,0,0,.34.22,1.14,1.14,0,0,0,.84,0,1.11,1.11,0,0,0,.34-.22,1,1,0,0,0,.23-.34,1.07,1.07,0,0,0,.09-.43,1,1,0,0,0-.09-.43,1,1,0,0,0-.23-.34,1.11,1.11,0,0,0-.34-.22,1.14,1.14,0,0,0-.84,0,1.11,1.11,0,0,0-.34.22,1,1,0,0,0-.32.77,1.26,1.26,0,0,0,.08.43A1.16,1.16,0,0,0,140.16,11.89Zm-.06-1.13a1,1,0,0,1,.19-.29.77.77,0,0,1,.28-.19.84.84,0,0,1,.35-.07.81.81,0,0,1,.35.07.77.77,0,0,1,.28.19,1,1,0,0,1,.19.29,1.11,1.11,0,0,1,0,.72,1,1,0,0,1-.19.29.8.8,0,0,1-.28.2,1,1,0,0,1-.35.07,1,1,0,0,1-.35-.07.8.8,0,0,1-.28-.2,1,1,0,0,1-.19-.29,1,1,0,0,1,0-.72Z"/></svg>