<svg id="Capa_1" data-name="Capa 1" xmlns="http://www.w3.org/2000/svg" viewBox="0 0 283.46 283.46"><path d="M128.27,131.48a2.33,2.33,0,0,0-2.33,2.33v2.08a2.34,2.34,0,0,0,4.67,0v-2.08A2.33,2.33,0,0,0,128.27,131.48Z"/><path d="M155.19,131.48a2.33,2.33,0,0,0-2.33,2.33v2.08a2.33,2.33,0,0,0,4.66,0v-2.08A2.33,2.33,0,0,0,155.19,131.48Z"/><path d="M148.94,140.59a2.33,2.33,0,0,0-3.29.22,5.35,5.35,0,0,1-7.84,0,2.33,2.33,0,0,0-3.51,3.07,10,10,0,0,0,14.86,0A2.33,2.33,0,0,0,148.94,140.59Z"/><path d="M138.3,135.08c0,1.46,1.54,2.65,3.43,2.65s3.43-1.19,3.43-2.65S138.3,133.61,138.3,135.08Z"/><path d="M173,123a11.81,11.81,0,0,0-20.3-8.21,31,31,0,0,0-21.92,0,11.8,11.8,0,1,0-16.2,17.14,22.24,22.24,0,0,0-.72,5.61c0,13.65,12.51,24.75,27.88,24.75s27.88-11.1,27.88-24.75a22.24,22.24,0,0,0-.72-5.61A11.72,11.72,0,0,0,173,123Zm-57.85,0a7.15,7.15,0,0,1,11-6,27.53,27.53,0,0,0-4.62,3.48,24.9,24.9,0,0,0-5.12,6.64A7.17,7.17,0,0,1,115.14,123Zm26.59,34.63c-12.8,0-23.22-9-23.22-20.09,0-7.9,5.46-14.6,12.44-17.78a26,26,0,0,1,10.78-2.3c8.32,0,16.9,4,21,11.52l0,0a17.93,17.93,0,0,1,2.2,8.53C165,148.57,154.53,157.58,141.73,157.58ZM167,127.07c0-.09-.18-.34-.2-.37a24.41,24.41,0,0,0-3.63-5,27.25,27.25,0,0,0-5.91-4.76,7.15,7.15,0,0,1,11,6A7.1,7.1,0,0,1,167,127.07Z"/><path d="M231.61,96.61l-3.87-6.41-10.3-17a32.61,32.61,0,0,0-16.19-13.54L171.73,48.3A5.86,5.86,0,0,0,164.5,51,25.66,25.66,0,0,1,119,51a5.88,5.88,0,0,0-7.24-2.73L102,52l-19.8,7.59A32.68,32.68,0,0,0,66,73.15l-10.3,17-3.87,6.41A11.32,11.32,0,0,0,53.16,110l11.49,12.64A11.36,11.36,0,0,0,78.27,125l6.23-3.32,1.19-.63a232.65,232.65,0,0,0-6.85,58.68,2.75,2.75,0,0,0,2.75,2.72h0a2.75,2.75,0,0,0,2.71-2.78c-.39-35.82,8-62.12,8.36-63.23a2.77,2.77,0,0,0-3.91-3.27l-5,2.65L61.49,91.29,70.73,76A27.09,27.09,0,0,1,84.18,64.74l17.35-6.64c-.17.06,3.8,6.55,4.21,7.11a44.55,44.55,0,0,0,10.77,10.54,44.09,44.09,0,0,0,12,5.85,44.44,44.44,0,0,0,53.45-23.5l17.34,6.64A27.19,27.19,0,0,1,212.74,76L222,91.29l-22.32,24.53-5-2.65a2.77,2.77,0,0,0-3.9,3.27,180.17,180.17,0,0,1,5.52,24.84,2.75,2.75,0,1,0,5.43-.85c-1.3-8.26-2.81-14.92-4-19.39l7.42,4a11.35,11.35,0,0,0,13.62-2.36L230.31,110A11.32,11.32,0,0,0,231.61,96.61ZM78.8,118.49l-3.11,1.66a5.82,5.82,0,0,1-7-1.2l-11.5-12.64a5.74,5.74,0,0,1-.66-6.86l2-3.25Zm98-62.32a38.95,38.95,0,0,1-67.54,4.45,40.74,40.74,0,0,1-2.53-4.45l0-.05,7-2.68a.31.31,0,0,1,.4.13,31.15,31.15,0,0,0,55.27,0,.3.3,0,0,1,.4-.13l7,2.69Zm49.47,50.14S214.75,118.94,214.75,119a5.83,5.83,0,0,1-7,1.2l-3.11-1.66L224.94,96.2l2,3.26A5.71,5.71,0,0,1,226.24,106.31Z"/><path d="M203.22,151.55a2.75,2.75,0,0,0-5.46.6,214.5,214.5,0,0,1-2.34,64.63H160.67l-5-15.55a9.25,9.25,0,0,0-8.82-6.42H136.63a9.24,9.24,0,0,0-8.82,6.42l-5,15.55H88.05a201.34,201.34,0,0,1-3.32-26.25,2.75,2.75,0,0,0-5.49.33,206.37,206.37,0,0,0,3.87,29.23h0c.49,2.34,1,4.66,1.57,6.89a11.23,11.23,0,0,0,10.93,8.56h18.71a11.2,11.2,0,0,0,10.71-7.8l8-24.83a3.76,3.76,0,0,1,3.59-2.61h10.21a3.77,3.77,0,0,1,3.59,2.61l8,24.83a11.22,11.22,0,0,0,10.71,7.8h18.72A11.24,11.24,0,0,0,198.79,227c.25-1,.49-2,.73-3.05.31-1.39.59-2.64.84-3.83h0A219.15,219.15,0,0,0,203.22,151.55ZM119.8,226.06a5.74,5.74,0,0,1-5.48,4H95.61a5.76,5.76,0,0,1-5.6-4.38c-.27-1.11-.54-2.24-.8-3.38H121Zm73.65-.4a5.74,5.74,0,0,1-5.59,4.38H169.14a5.74,5.74,0,0,1-5.48-4l-1.21-3.78h31.8l-.09.41C193.93,223.68,193.7,224.67,193.45,225.66Z"/></svg>