<svg id="Capa_1" data-name="Capa 1" xmlns="http://www.w3.org/2000/svg" viewBox="0 0 283.46 283.46"><path d="M141.73,55.55a86.18,86.18,0,1,0,86.18,86.18A86.19,86.19,0,0,0,141.73,55.55Zm66.74,41.34-6,25.39L171,132.77l-26.42-21.14V80.48l30.16-12.07A81,81,0,0,1,208.47,96.89Zm.48,88.92-28.49,4.5L165,169.82l7.9-31.6L204,127.85l17.83,21.39A79.94,79.94,0,0,1,209,185.81Zm-105.82,4.52-28.62-4.52a79.81,79.81,0,0,1-12.84-36.58l17.81-21.39,31.12,10.37,7.9,31.62ZM61.32,140.66A80,80,0,0,1,70.75,104l4.66,19.82Zm62.55,26.93-7.62-30.52,25.48-20.39,25.49,20.4-7.62,30.51Zm84.19-43.83,4.66-19.82a79.85,79.85,0,0,1,9.42,36.71Zm-41.13-58.4-25.2,10.08-25.33-10A80.13,80.13,0,0,1,166.93,65.36Zm-58.37,3.12,30.3,12v31.14l-26.43,21.14L81,122.28,75,96.89A80.94,80.94,0,0,1,108.56,68.48ZM79.31,192.39l23.35,3.69,14.13,22.12A80.72,80.72,0,0,1,79.31,192.39Zm45.71,28-17.14-26.84,15.18-20.24H160.4l15.4,20.34-14.94,26.18a80.13,80.13,0,0,1-35.83.57Zm43.82-3L181.09,196l23.07-3.64A80.73,80.73,0,0,1,168.84,217.45Z"/></svg>