<svg id="Capa_1" data-name="Capa 1" xmlns="http://www.w3.org/2000/svg" viewBox="0 0 283.46 283.46"><path d="M222.21,145.61h-15.3v-11a9.19,9.19,0,0,0-9.18-9.18H147V101.34a8.86,8.86,0,0,0-8.85-8.85H126.18V60.67A12.7,12.7,0,0,0,113.49,48H82.39A12.7,12.7,0,0,0,69.7,60.67V92.49H57.76a8.86,8.86,0,0,0-8.85,8.85v37a2.7,2.7,0,1,0,5.4,0v-37a3.49,3.49,0,0,1,3.45-3.44h80.36a3.49,3.49,0,0,1,3.45,3.44v90.31H54.31V171.57a2.7,2.7,0,0,0-5.4,0v35.78a8.87,8.87,0,0,0,8.85,8.87h1.87v8.1a11.17,11.17,0,1,0,22.33,0v-8.1h32v8.1a11.18,11.18,0,0,0,11.16,11.17h97.13a12.36,12.36,0,0,0,12.35-12.35V158A12.37,12.37,0,0,0,222.21,145.61ZM120.77,92.49H75.1V60.67a7.3,7.3,0,0,1,7.29-7.29h31.1a7.29,7.29,0,0,1,7.28,7.29ZM147,130.83h50.76a3.79,3.79,0,0,1,3.78,3.78v11H147ZM76.55,224.32a5.76,5.76,0,1,1-11.52,0v-8.1H76.55ZM57.76,210.81a3.5,3.5,0,0,1-3.45-3.46V197.06h87.26v10.29a3.5,3.5,0,0,1-3.45,3.46Zm73.09,13.51a5.76,5.76,0,1,1-11.52,0v-8.1h11.52Zm81.38,5.77H134.76l.6-1.4a11.05,11.05,0,0,0,.89-4.37v-8.1h1.87a8.87,8.87,0,0,0,8.85-8.87V151h65.26Zm16.92-7a7,7,0,0,1-6.94,7h-4.58V151h4.58a7,7,0,0,1,6.94,6.95Z"/><path d="M72.06,141.73a2.7,2.7,0,0,0,2.7,2.7h46.37a2.7,2.7,0,1,0,0-5.4H74.76A2.7,2.7,0,0,0,72.06,141.73Z"/><path d="M117.42,109.42h-39a10.1,10.1,0,1,0,0,20.2h39a10.1,10.1,0,1,0,0-20.2Zm3.32,13.43a4.68,4.68,0,0,1-3.32,1.37h-39a4.7,4.7,0,1,1,0-9.4h39a4.7,4.7,0,0,1,3.32,8Z"/><path d="M168,179.54l18.33,8.31a2.73,2.73,0,0,0,3.57-1.34l6.27-13.8a2.69,2.69,0,0,0-1.35-3.57l-18.34-8.32a2.7,2.7,0,0,0-3.57,1.34L166.63,176A2.71,2.71,0,0,0,168,179.54Zm8.71-12.69,13.42,6.09-4,8.88-13.41-6.09Z"/><path d="M172.62,220.15a11.37,11.37,0,1,0-11.37-11.36A11.37,11.37,0,0,0,172.62,220.15Zm0-17.32a6,6,0,1,1-6,6A6,6,0,0,1,172.62,202.83Z"/><path d="M51.61,157.65a2.71,2.71,0,1,0-2.7-2.71A2.71,2.71,0,0,0,51.61,157.65Z"/></svg>